Dinish-CondensedRegular.ufo
<glyph name="numbersign" format="2">
  <advance width="473"/>
  <unicode hex="0023"/>
  <outline>
    <contour>
      <point x="67" y="0" type="line"/>
      <point x="133" y="0" type="line"/>
      <point x="159" y="228" type="line"/>
      <point x="280" y="228" type="line"/>
      <point x="254" y="0" type="line"/>
      <point x="321" y="0" type="line"/>
      <point x="346" y="228" type="line"/>
      <point x="432" y="228" type="line"/>
      <point x="432" y="290" type="line"/>
      <point x="353" y="290" type="line"/>
      <point x="370" y="436" type="line"/>
      <point x="453" y="436" type="line"/>
      <point x="453" y="498" type="line"/>
      <point x="376" y="498" type="line"/>
      <point x="399" y="707" type="line"/>
      <point x="332" y="707" type="line"/>
      <point x="309" y="498" type="line"/>
      <point x="188" y="498" type="line"/>
      <point x="212" y="707" type="line"/>
      <point x="144" y="707" type="line"/>
      <point x="122" y="498" type="line"/>
      <point x="42" y="498" type="line"/>
      <point x="42" y="436" type="line"/>
      <point x="115" y="436" type="line"/>
      <point x="98" y="290" type="line"/>
      <point x="20" y="290" type="line"/>
      <point x="20" y="228" type="line"/>
      <point x="92" y="228" type="line"/>
    </contour>
    <contour>
      <point x="166" y="290" type="line"/>
      <point x="182" y="436" type="line"/>
      <point x="302" y="436" type="line"/>
      <point x="286" y="290" type="line"/>
    </contour>
  </outline>
</glyph>
<glyph name="dollar" format="2">
  <advance width="380"/>
  <unicode hex="0024"/>
  <outline>
    <contour>
      <point x="163" y="-74" type="line"/>
      <point x="217" y="-74" type="line"/>
      <point x="217" y="28" type="line"/>
      <point x="300.286" y="39.898"/>
      <point x="344" y="99.79"/>
      <point x="344" y="202" type="curve" smooth="yes"/>
      <point x="344" y="294.107"/>
      <point x="305.444" y="349.967"/>
      <point x="217" y="386" type="curve" smooth="yes"/>
      <point x="163" y="408" type="line" smooth="yes"/>
      <point x="116.919" y="426.774"/>
      <point x="97" y="458.162"/>
      <point x="97" y="512" type="curve" smooth="yes"/>
      <point x="97" y="575.108"/>
      <point x="129.563" y="613.02"/>
      <point x="183.766" y="613.02" type="curve" smooth="yes"/>
      <point x="240.956" y="613.02"/>
      <point x="270.497" y="576.268"/>
      <point x="273" y="502" type="curve"/>
      <point x="337" y="502" type="line"/>
      <point x="331" y="605.333"/>
      <point x="291" y="662.667"/>
      <point x="217" y="674" type="curve"/>
      <point x="217" y="771" type="line"/>
      <point x="163" y="771" type="line"/>
      <point x="163" y="675" type="line"/>
      <point x="77.529" y="665.35"/>
      <point x="29" y="602.697"/>
      <point x="29" y="502" type="curve" smooth="yes"/>
      <point x="29" y="417.704"/>
      <point x="61.121" y="373.308"/>
      <point x="152" y="332" type="curve" smooth="yes"/>
      <point x="201.582" y="309.463" type="line"/>
      <point x="256.852" y="279.146"/>
      <point x="275" y="250.358"/>
      <point x="275" y="193" type="curve" smooth="yes"/>
      <point x="275" y="118.978"/>
      <point x="245.977" y="84.808"/>
      <point x="183.106" y="84.808" type="curve" smooth="yes"/>
      <point x="127.974" y="84.808"/>
      <point x="101.176" y="120.659"/>
      <point x="97" y="200" type="curve"/>
      <point x="27" y="200" type="line"/>
      <point x="31" y="91.333"/>
      <point x="76.333" y="33.667"/>
      <point x="163" y="27" type="curve"/>
    </contour>
  </outline>
</glyph>
<glyph name="percent" format="2">
  <advance width="709"/>
  <unicode hex="0025"/>
  <outline>
    <contour>
      <point x="196" y="0" type="line"/>
      <point x="260" y="0" type="line"/>
      <point x="514" y="707" type="line"/>
      <point x="450" y="707" type="line"/>
    </contour>
    <contour>
      <point x="141" y="270" type="curve" smooth="yes"/>
      <point x="214.887" y="270"/>
      <point x="249" y="311.062"/>
      <point x="249" y="400" type="curve" smooth="yes"/>
      <point x="249" y="586" type="line" smooth="yes"/>
      <point x="249" y="672.123"/>
      <point x="213.667" y="714"/>
      <point x="141" y="714" type="curve" smooth="yes"/>
      <point x="68.776" y="714"/>
      <point x="34" y="672.399"/>
      <point x="34" y="586" type="curve" smooth="yes"/>
      <point x="34" y="400" type="line" smooth="yes"/>
      <point x="34" y="313.185"/>
      <point x="69.545" y="270"/>
    </contour>
    <contour>
      <point x="141" y="334" type="curve" smooth="yes"/>
      <point x="114.212" y="334"/>
      <point x="104" y="352.216"/>
      <point x="104" y="400" type="curve" smooth="yes"/>
      <point x="104" y="586" type="line" smooth="yes"/>
      <point x="104" y="632.396"/>
      <point x="114.177" y="650"/>
      <point x="141" y="650" type="curve" smooth="yes"/>
      <point x="168.49" y="650"/>
      <point x="178" y="633.55"/>
      <point x="178" y="586" type="curve" smooth="yes"/>
      <point x="178" y="400" type="line" smooth="yes"/>
      <point x="178" y="354.204"/>
      <point x="166.673" y="334"/>
    </contour>
    <contour>
      <point x="567" y="-9" type="curve" smooth="yes"/>
      <point x="640.887" y="-9"/>
      <point x="675" y="32.062"/>
      <point x="675" y="121" type="curve" smooth="yes"/>
      <point x="675" y="307" type="line" smooth="yes"/>
      <point x="675" y="393.123"/>
      <point x="639.667" y="435"/>
      <point x="567" y="435" type="curve" smooth="yes"/>
      <point x="494.776" y="435"/>
      <point x="460" y="393.399"/>
      <point x="460" y="307" type="curve" smooth="yes"/>
      <point x="460" y="121" type="line" smooth="yes"/>
      <point x="460" y="34.185"/>
      <point x="495.545" y="-9"/>
    </contour>
    <contour>
      <point x="567" y="55" type="curve" smooth="yes"/>
      <point x="540.212" y="55"/>
      <point x="530" y="73.216"/>
      <point x="530" y="121" type="curve" smooth="yes"/>
      <point x="530" y="307" type="line" smooth="yes"/>
      <point x="530" y="353.396"/>
      <point x="540.177" y="371"/>
      <point x="567" y="371" type="curve" smooth="yes"/>
      <point x="594.49" y="371"/>
      <point x="604" y="354.55"/>
      <point x="604" y="307" type="curve" smooth="yes"/>
      <point x="604" y="121" type="line" smooth="yes"/>
      <point x="604" y="75.204"/>
      <point x="592.673" y="55"/>
    </contour>
  </outline>
</glyph>
<glyph name="ampersand" format="2">
  <advance width="531"/>
  <unicode hex="0026"/>
  <outline>
    <contour>
      <point x="361" y="212" type="line"/>
      <point x="265" y="376" type="line"/>
      <point x="341.863" y="456.643"/>
      <point x="373" y="514.016"/>
      <point x="373" y="575" type="curve" smooth="yes"/>
      <point x="373" y="659.211"/>
      <point x="316.432" y="717"/>
      <point x="234" y="717" type="curve" smooth="yes"/>
      <point x="152.824" y="717"/>
      <point x="96" y="658.529"/>
      <point x="96" y="575" type="curve" smooth="yes"/>
      <point x="96" y="513.133"/>
      <point x="143.931" y="435.311"/>
      <point x="176" y="384" type="curve"/>
      <point x="84.431" y="281.332"/>
      <point x="51" y="219.016"/>
      <point x="51" y="151" type="curve" smooth="yes"/>
      <point x="51" y="52.576"/>
      <point x="109.689" y="-10"/>
      <point x="202" y="-10" type="curve" smooth="yes"/>
      <point x="266.884" y="-10"/>
      <point x="313.907" y="17.176"/>
      <point x="356" y="79" type="curve"/>
      <point x="377" y="45" type="line" smooth="yes"/>
      <point x="398.853" y="9.618"/>
      <point x="411.667" y="-1"/>
      <point x="446" y="-1" type="curve" smooth="yes"/>
      <point x="480" y="-1" type="line"/>
      <point x="480" y="69" type="line"/>
      <point x="469" y="69" type="line" smooth="yes"/>
      <point x="451.565" y="69"/>
      <point x="441.317" y="76.499"/>
      <point x="428" y="99" type="curve" smooth="yes"/>
      <point x="399" y="148" type="line"/>
      <point x="472" y="268" type="line"/>
      <point x="417" y="304" type="line"/>
    </contour>
    <contour>
      <point x="227" y="440" type="curve"/>
      <point x="193.201" y="478.857"/>
      <point x="171" y="533.514"/>
      <point x="171" y="578" type="curve" smooth="yes"/>
      <point x="171" y="623.744"/>
      <point x="196.356" y="653"/>
      <point x="236" y="653" type="curve" smooth="yes"/>
      <point x="275.493" y="653"/>
      <point x="299" y="625.016"/>
      <point x="299" y="578" type="curve" smooth="yes"/>
      <point x="299" y="536.788"/>
      <point x="280.258" y="500.867"/>
    </contour>
    <contour>
      <point x="318" y="142" type="line"/>
      <point x="280.934" y="83.205"/>
      <point x="249.805" y="60"/>
      <point x="208" y="60" type="curve" smooth="yes"/>
      <point x="156.772" y="60"/>
      <point x="126" y="95.65"/>
      <point x="126" y="155" type="curve" smooth="yes"/>
      <point x="126" y="205.364"/>
      <point x="149.613" y="249.906"/>
      <point x="214" y="321" type="curve"/>
    </contour>
  </outline>
</glyph>
<glyph name="parenleft" format="2">
  <advance width="265"/>
  <unicode hex="0028"/>
  <outline>
    <contour>
      <point x="214" y="-86" type="line"/>
      <point x="154.398" y="46.448"/>
      <point x="122" y="195.058"/>
      <point x="122" y="336" type="curve" smooth="yes"/>
      <point x="122" y="476.275"/>
      <point x="154.118" y="623.597"/>
      <point x="214" y="758" type="curve"/>
      <point x="154" y="758" type="line"/>
      <point x="86.294" y="626.571"/>
      <point x="51" y="481.968"/>
      <point x="51" y="336" type="curve" smooth="yes"/>
      <point x="51" y="190.821"/>
      <point x="86.66" y="44.719"/>
      <point x="154" y="-86" type="curve"/>
    </contour>
  </outline>
</glyph>
<glyph name="parenright" format="2">
  <advance width="265"/>
  <unicode hex="0029"/>
  <outline>
    <contour>
      <point x="112" y="-86" type="line"/>
      <point x="178.709" y="46.084"/>
      <point x="214" y="192.092"/>
      <point x="214" y="336" type="curve" smooth="yes"/>
      <point x="214" y="480.575"/>
      <point x="178.402" y="627.851"/>
      <point x="112" y="758" type="curve"/>
      <point x="51" y="758" type="line"/>
      <point x="111.169" y="621.618"/>
      <point x="143" y="475.609"/>
      <point x="143" y="336" type="curve" smooth="yes"/>
      <point x="143" y="192.766"/>
      <point x="111.571" y="48.602"/>
      <point x="51" y="-86" type="curve"/>
    </contour>
  </outline>
</glyph>
<glyph name="asterisk" format="2">
  <advance width="356"/>
  <unicode hex="002A"/>
  <outline>
    <contour>
      <point x="75" y="479" type="line"/>
      <point x="153" y="524" type="line"/>
      <point x="153" y="419" type="line"/>
      <point x="204" y="419" type="line"/>
      <point x="204" y="524" type="line"/>
      <point x="282" y="479" type="line"/>
      <point x="305" y="519" type="line"/>
      <point x="224" y="565" type="line"/>
      <point x="304" y="611" type="line"/>
      <point x="282" y="651" type="line"/>
      <point x="204" y="606" type="line"/>
      <point x="204" y="707" type="line"/>
      <point x="153" y="707" type="line"/>
      <point x="153" y="607" type="line"/>
      <point x="75" y="652" type="line"/>
      <point x="51" y="611" type="line"/>
      <point x="131" y="565" type="line"/>
      <point x="51" y="519" type="line"/>
    </contour>
  </outline>
</glyph>
<glyph name="plus" format="2">
  <advance width="430"/>
  <unicode hex="002B"/>
  <outline>
    <contour>
      <point x="41" y="249" type="line"/>
      <point x="182" y="249" type="line"/>
      <point x="182" y="109" type="line"/>
      <point x="249" y="109" type="line"/>
      <point x="249" y="249" type="line"/>
      <point x="390" y="249" type="line"/>
      <point x="390" y="316" type="line"/>
      <point x="249" y="316" type="line"/>
      <point x="249" y="457" type="line"/>
      <point x="182" y="457" type="line"/>
      <point x="182" y="316" type="line"/>
      <point x="41" y="316" type="line"/>
    </contour>
  </outline>
</glyph>
<glyph name="comma" format="2">
  <advance width="153"/>
  <unicode hex="002C"/>
  <outline>
    <contour>
      <point x="42" y="-144" type="line"/>
      <point x="112" y="-84" type="line"/>
      <point x="112" y="95" type="line"/>
      <point x="42" y="95" type="line"/>
    </contour>
  </outline>
</glyph>
<glyph name="one" format="2">
  <advance width="280"/>
  <unicode hex="0031"/>
  <outline>
    <contour>
      <point x="144" y="0" type="line"/>
      <point x="213" y="0" type="line"/>
      <point x="213" y="707" type="line"/>
      <point x="144" y="707" type="line"/>
      <point x="40" y="625" type="line"/>
      <point x="40" y="538" type="line"/>
      <point x="144" y="620" type="line"/>
    </contour>
  </outline>
</glyph>
<glyph name="three" format="2">
  <advance width="414"/>
  <unicode hex="0033"/>
  <outline>
    <contour>
      <point x="48" y="184" type="line"/>
      <point x="48" y="139" type="line" smooth="yes"/>
      <point x="48" y="44.463"/>
      <point x="103.991" y="-9"/>
      <point x="203" y="-9" type="curve" smooth="yes"/>
      <point x="305.073" y="-9"/>
      <point x="361" y="49.051"/>
      <point x="361" y="155" type="curve" smooth="yes"/>
      <point x="361" y="229" type="line" smooth="yes"/>
      <point x="361" y="307.095"/>
      <point x="340.199" y="345.455"/>
      <point x="284" y="371" type="curve"/>
      <point x="335.699" y="394.265"/>
      <point x="357" y="432.781"/>
      <point x="357" y="503" type="curve" smooth="yes"/>
      <point x="357" y="563" type="line" smooth="yes"/>
      <point x="357" y="661.325"/>
      <point x="302.682" y="716"/>
      <point x="205" y="716" type="curve" smooth="yes"/>
      <point x="106.017" y="716"/>
      <point x="50" y="660.344"/>
      <point x="50" y="562" type="curve" smooth="yes"/>
      <point x="50" y="520" type="line"/>
      <point x="124" y="520" type="line"/>
      <point x="124" y="561" type="line" smooth="yes"/>
      <point x="124" y="617.219"/>
      <point x="152.53" y="649"/>
      <point x="203" y="649" type="curve" smooth="yes"/>
      <point x="255.426" y="649"/>
      <point x="284" y="615.84"/>
      <point x="284" y="555" type="curve" smooth="yes"/>
      <point x="284" y="500" type="line" smooth="yes"/>
      <point x="284" y="431.619"/>
      <point x="257.44" y="400"/>
      <point x="200" y="400" type="curve" smooth="yes"/>
      <point x="170" y="400" type="line"/>
      <point x="170" y="334" type="line"/>
      <point x="200" y="334" type="line" smooth="yes"/>
      <point x="259.109" y="334"/>
      <point x="287" y="300.659"/>
      <point x="287" y="230" type="curve" smooth="yes"/>
      <point x="287" y="152" type="line" smooth="yes"/>
      <point x="287" y="90.048"/>
      <point x="258.126" y="57"/>
      <point x="204" y="57" type="curve" smooth="yes"/>
      <point x="151.909" y="57"/>
      <point x="122" y="89.098"/>
      <point x="122" y="145" type="curve" smooth="yes"/>
      <point x="122" y="184" type="line"/>
    </contour>
  </outline>
</glyph>
<glyph name="four" format="2">
  <advance width="425"/>
  <unicode hex="0034"/>
  <outline>
    <contour>
      <point x="37" y="142" type="line"/>
      <point x="252" y="142" type="line"/>
      <point x="252" y="0" type="line"/>
      <point x="327" y="0" type="line"/>
      <point x="327" y="142" type="line"/>
      <point x="389" y="142" type="line"/>
      <point x="389" y="209" type="line"/>
      <point x="327" y="209" type="line"/>
      <point x="327" y="394" type="line"/>
      <point x="252" y="394" type="line"/>
      <point x="252" y="209" type="line"/>
      <point x="110" y="209" type="line"/>
      <point x="260" y="707" type="line"/>
      <point x="185" y="707" type="line"/>
      <point x="37" y="209" type="line"/>
    </contour>
  </outline>
</glyph>
<glyph name="five" format="2">
  <advance width="407"/>
  <unicode hex="0035"/>
  <outline>
    <contour>
      <point x="53" y="168" type="line"/>
      <point x="53" y="150" type="line" smooth="yes"/>
      <point x="53" y="47.355"/>
      <point x="106.165" y="-9"/>
      <point x="203" y="-9" type="curve" smooth="yes"/>
      <point x="303.667" y="-9"/>
      <point x="354" y="48"/>
      <point x="354" y="162" type="curve" smooth="yes"/>
      <point x="354" y="287" type="line" smooth="yes"/>
      <point x="354" y="398.333"/>
      <point x="308.333" y="454"/>
      <point x="217" y="454" type="curve" smooth="yes"/>
      <point x="182.373" y="454"/>
      <point x="151.249" y="441.695"/>
      <point x="131" y="420" type="curve"/>
      <point x="131" y="637" type="line"/>
      <point x="348" y="637" type="line"/>
      <point x="348" y="707" type="line"/>
      <point x="61" y="707" type="line"/>
      <point x="61" y="337" type="line"/>
      <point x="125" y="337" type="line"/>
      <point x="143" y="370.333"/>
      <point x="169" y="387"/>
      <point x="203" y="387" type="curve" smooth="yes"/>
      <point x="256.096" y="387"/>
      <point x="280" y="355.645"/>
      <point x="280" y="286" type="curve" smooth="yes"/>
      <point x="280" y="159" type="line" smooth="yes"/>
      <point x="280" y="88.795"/>
      <point x="255.686" y="57"/>
      <point x="202" y="57" type="curve"/>
      <point x="150" y="57.667"/>
      <point x="124" y="89"/>
      <point x="124" y="151" type="curve" smooth="yes"/>
      <point x="124" y="168" type="line"/>
    </contour>
  </outline>
</glyph>
<glyph name="seven" format="2">
  <advance width="369"/>
  <unicode hex="0037"/>
  <outline>
    <contour>
      <point x="73" y="0" type="line"/>
      <point x="147" y="0" type="line"/>
      <point x="338" y="640" type="line"/>
      <point x="338" y="640.235"/>
      <point x="338" y="705.204"/>
      <point x="338" y="707" type="curve"/>
      <point x="32" y="707" type="line"/>
      <point x="32" y="640" type="line"/>
      <point x="264" y="640" type="line"/>
    </contour>
  </outline>
</glyph>
<glyph name="eight" format="2">
  <advance width="412"/>
  <unicode hex="0038"/>
  <outline>
    <contour>
      <point x="124" y="371" type="curve"/>
      <point x="76.667" y="345"/>
      <point x="53" y="299.333"/>
      <point x="53" y="234" type="curve" smooth="yes"/>
      <point x="53" y="157" type="line" smooth="yes"/>
      <point x="53" y="53.292"/>
      <point x="110.414" y="-9"/>
      <point x="206" y="-9" type="curve" smooth="yes"/>
      <point x="302.594" y="-9"/>
      <point x="359" y="52.198"/>
      <point x="359" y="157" type="curve" smooth="yes"/>
      <point x="359" y="234" type="line" smooth="yes"/>
      <point x="359" y="300.654"/>
      <point x="335.876" y="345.912"/>
      <point x="289" y="371" type="curve"/>
      <point x="330.677" y="391.839"/>
      <point x="355" y="438.273"/>
      <point x="355" y="497" type="curve" smooth="yes"/>
      <point x="355" y="562" type="line" smooth="yes"/>
      <point x="355" y="656.21"/>
      <point x="297.152" y="716"/>
      <point x="206" y="716" type="curve" smooth="yes"/>
      <point x="115.515" y="716"/>
      <point x="57" y="655.521"/>
      <point x="57" y="562" type="curve" smooth="yes"/>
      <point x="57" y="497" type="line" smooth="yes"/>
      <point x="57" y="440.214"/>
      <point x="81.916" y="393.357"/>
    </contour>
    <contour>
      <point x="126" y="497" type="curve" smooth="yes"/>
      <point x="126" y="562" type="line" smooth="yes"/>
      <point x="126" y="617.833"/>
      <point x="156.37" y="652"/>
      <point x="206" y="652" type="curve" smooth="yes"/>
      <point x="256.533" y="652"/>
      <point x="287" y="618.148"/>
      <point x="287" y="562" type="curve" smooth="yes"/>
      <point x="287" y="497" type="line" smooth="yes"/>
      <point x="287" y="435.387"/>
      <point x="257.986" y="401"/>
      <point x="206" y="401" type="curve" smooth="yes"/>
      <point x="155" y="401"/>
      <point x="126" y="435.8"/>
    </contour>
    <contour>
      <point x="122" y="159" type="curve" smooth="yes"/>
      <point x="122" y="236" type="line" smooth="yes"/>
      <point x="122" y="303.151"/>
      <point x="151.236" y="339"/>
      <point x="206" y="339" type="curve" smooth="yes"/>
      <point x="262.667" y="339"/>
      <point x="291" y="304.667"/>
      <point x="291" y="236" type="curve" smooth="yes"/>
      <point x="291" y="159" type="line" smooth="yes"/>
      <point x="291" y="89.331"/>
      <point x="262.399" y="54"/>
      <point x="206" y="54" type="curve" smooth="yes"/>
      <point x="151.2" y="54"/>
      <point x="122" y="90.5"/>
    </contour>
  </outline>
</glyph>
<glyph name="nine" format="2">
  <advance width="404"/>
  <unicode hex="0039"/>
  <outline>
    <contour>
      <point x="122" y="0" type="line"/>
      <point x="197" y="0" type="line"/>
      <point x="324" y="302" type="line" smooth="yes"/>
      <point x="348.49" y="360.236"/>
      <point x="356" y="394.97"/>
      <point x="356" y="450" type="curve" smooth="yes"/>
      <point x="356" y="552" type="line" smooth="yes"/>
      <point x="356" y="654.118"/>
      <point x="298.268" y="716"/>
      <point x="203" y="716" type="curve" smooth="yes"/>
      <point x="107.189" y="716"/>
      <point x="48" y="654.138"/>
      <point x="48" y="554" type="curve" smooth="yes"/>
      <point x="48" y="438" type="line" smooth="yes"/>
      <point x="48" y="342.922"/>
      <point x="101.379" y="285"/>
      <point x="189" y="285" type="curve" smooth="yes"/>
      <point x="212.238" y="285"/>
      <point x="235.972" y="290.729"/>
      <point x="247" y="299" type="curve"/>
    </contour>
    <contour>
      <point x="123" y="444" type="curve" smooth="yes"/>
      <point x="123" y="555" type="line" smooth="yes"/>
      <point x="123" y="615.55"/>
      <point x="151.468" y="649"/>
      <point x="203" y="649" type="curve" smooth="yes"/>
      <point x="253.835" y="649"/>
      <point x="282" y="615.131"/>
      <point x="282" y="554" type="curve" smooth="yes"/>
      <point x="282" y="440" type="line" smooth="yes"/>
      <point x="282" y="382.473"/>
      <point x="253.496" y="350"/>
      <point x="203" y="350" type="curve" smooth="yes"/>
      <point x="151.468" y="350"/>
      <point x="123" y="383.45"/>
    </contour>
  </outline>
</glyph>
<glyph name="colon" format="2">
  <advance width="163"/>
  <unicode hex="003A"/>
  <outline>
    <contour>
      <point x="42" y="0" type="line"/>
      <point x="122" y="0" type="line"/>
      <point x="122" y="91" type="line"/>
      <point x="42" y="91" type="line"/>
    </contour>
    <contour>
      <point x="42" y="346" type="line"/>
      <point x="122" y="346" type="line"/>
      <point x="122" y="437" type="line"/>
      <point x="42" y="437" type="line"/>
    </contour>
  </outline>
</glyph>
<glyph name="semicolon" format="2">
  <advance width="163"/>
  <unicode hex="003B"/>
  <outline>
    <contour>
      <point x="42" y="346" type="line"/>
      <point x="122" y="346" type="line"/>
      <point x="122" y="437" type="line"/>
      <point x="42" y="437" type="line"/>
    </contour>
    <contour>
      <point x="50" y="-144" type="line"/>
      <point x="120" y="-84" type="line"/>
      <point x="120" y="95" type="line"/>
      <point x="50" y="95" type="line"/>
    </contour>
  </outline>
</glyph>
<glyph name="equal" format="2">
  <advance width="430"/>
  <unicode hex="003D"/>
  <outline>
    <contour>
      <point x="41" y="344" type="line"/>
      <point x="390" y="344" type="line"/>
      <point x="390" y="411" type="line"/>
      <point x="41" y="411" type="line"/>
    </contour>
    <contour>
      <point x="41" y="153" type="line"/>
      <point x="390" y="153" type="line"/>
      <point x="390" y="220" type="line"/>
      <point x="41" y="220" type="line"/>
    </contour>
  </outline>
</glyph>
<glyph name="greater" format="2">
  <advance width="430"/>
  <unicode hex="003E"/>
  <outline>
    <contour>
      <point x="41" y="108" type="line"/>
      <point x="390" y="250" type="line"/>
      <point x="390" y="315" type="line"/>
      <point x="41" y="458" type="line"/>
      <point x="41" y="389" type="line"/>
      <point x="305" y="283" type="line"/>
      <point x="41" y="176" type="line"/>
    </contour>
  </outline>
</glyph>
<glyph name="question" format="2">
  <advance width="371"/>
  <unicode hex="003F"/>
  <outline>
    <contour>
      <point x="145" y="182" type="line"/>
      <point x="220" y="182" type="line"/>
      <point x="220" y="247" type="line" smooth="yes"/>
      <point x="220" y="288.044"/>
      <point x="225.032" y="306.238"/>
      <point x="246" y="341" type="curve" smooth="yes"/>
      <point x="284" y="404" type="line" smooth="yes"/>
      <point x="312.887" y="451.892"/>
      <point x="334" y="494.88"/>
      <point x="334" y="552" type="curve" smooth="yes"/>
      <point x="334" y="656.886"/>
      <point x="278.622" y="717"/>
      <point x="182" y="717" type="curve" smooth="yes"/>
      <point x="81.333" y="717"/>
      <point x="31" y="652.667"/>
      <point x="31" y="524" type="curve"/>
      <point x="105" y="524" type="line"/>
      <point x="105" y="616.051"/>
      <point x="126.016" y="650"/>
      <point x="183" y="650" type="curve" smooth="yes"/>
      <point x="233.667" y="650"/>
      <point x="259" y="617.333"/>
      <point x="259" y="552" type="curve" smooth="yes"/>
      <point x="259" y="512.857"/>
      <point x="252.904" y="489.725"/>
      <point x="224" y="442" type="curve" smooth="yes"/>
      <point x="181" y="371" type="line" smooth="yes"/>
      <point x="150.652" y="320.891"/>
      <point x="145" y="296.119"/>
      <point x="145" y="252" type="curve" smooth="yes"/>
    </contour>
    <contour>
      <point x="142" y="0" type="line"/>
      <point x="222" y="0" type="line"/>
      <point x="222" y="99" type="line"/>
      <point x="142" y="99" type="line"/>
    </contour>
  </outline>
</glyph>
<glyph name="A" format="2">
  <advance width="472"/>
  <unicode hex="0041"/>
  <anchor x="236" y="760" name="top"/>
  <anchor x="236" y="667" name="t.ring"/>
  <anchor x="236" y="-86" name="bottom"/>
  <anchor x="458" y="0" name="b.cedilla"/>
  <outline>
    <contour>
      <point x="9" y="0" type="line"/>
      <point x="87" y="0" type="line"/>
      <point x="132" y="180" type="line"/>
      <point x="339" y="180" type="line"/>
      <point x="384" y="0" type="line"/>
      <point x="463" y="0" type="line"/>
      <point x="270" y="707" type="line"/>
      <point x="202" y="707" type="line"/>
    </contour>
    <contour>
      <point x="148" y="245" type="line"/>
      <point x="236" y="594" type="line"/>
      <point x="323" y="245" type="line"/>
    </contour>
  </outline>
</glyph>
<glyph name="B" format="2">
  <advance width="481"/>
  <unicode hex="0042"/>
  <anchor x="207" y="760" name="top"/>
  <anchor x="207" y="-86" name="bottom"/>
  <outline>
    <contour>
      <point x="109.82" y="0" type="line"/>
      <point x="243" y="0" type="line" smooth="yes"/>
      <point x="367.718" y="0"/>
      <point x="428" y="63.541"/>
      <point x="428" y="195" type="curve" smooth="yes"/>
      <point x="428" y="291"/>
      <point x="394.667" y="348.333"/>
      <point x="328" y="367" type="curve"/>
      <point x="390" y="389.667"/>
      <point x="421" y="441.333"/>
      <point x="421" y="522" type="curve" smooth="yes"/>
      <point x="421" y="648.767"/>
      <point x="364.656" y="707"/>
      <point x="242" y="707" type="curve" smooth="yes"/>
      <point x="109.82" y="707" type="line"/>
      <point x="109.82" y="640" type="line"/>
      <point x="237" y="640" type="line" smooth="yes"/>
      <point x="314.311" y="640"/>
      <point x="346" y="604.532"/>
      <point x="346" y="518" type="curve" smooth="yes"/>
      <point x="346" y="438.664"/>
      <point x="310" y="399"/>
      <point x="236" y="399" type="curve" smooth="yes"/>
      <point x="109.82" y="399" type="line"/>
      <point x="109.82" y="333" type="line"/>
      <point x="237" y="333" type="line" smooth="yes"/>
      <point x="314.333" y="333"/>
      <point x="353" y="288.667"/>
      <point x="353" y="200" type="curve" smooth="yes"/>
      <point x="353" y="108.476"/>
      <point x="316.825" y="67"/>
      <point x="237" y="67" type="curve" smooth="yes"/>
      <point x="109.82" y="67" type="line"/>
    </contour>
    <contour>
      <point x="61" y="0" type="line"/>
      <point x="136" y="-0.002" type="line"/>
      <point x="136" y="707.389" type="line"/>
      <point x="61" y="707" type="line"/>
    </contour>
  </outline>
</glyph>
<glyph name="C" format="2">
  <advance width="489"/>
  <unicode hex="0043"/>
  <anchor x="246" y="760" name="top"/>
  <anchor x="217" y="0" name="b.cedilla"/>
  <anchor x="236" y="-86" name="bottom"/>
  <outline>
    <contour>
      <point x="361" y="206" type="line"/>
      <point x="361" y="197" type="line" smooth="yes"/>
      <point x="361" y="107.561"/>
      <point x="320.884" y="59"/>
      <point x="247" y="59" type="curve" smooth="yes"/>
      <point x="167.664" y="59"/>
      <point x="128" y="108.333"/>
      <point x="128" y="205" type="curve" smooth="yes"/>
      <point x="128" y="494" type="line" smooth="yes"/>
      <point x="128" y="597.569"/>
      <point x="166.97" y="648"/>
      <point x="247" y="648" type="curve" smooth="yes"/>
      <point x="321.295" y="648"/>
      <point x="361" y="599.24"/>
      <point x="361" y="508" type="curve" smooth="yes"/>
      <point x="361" y="501" type="line"/>
      <point x="436" y="501" type="line"/>
      <point x="436" y="510" type="line" smooth="yes"/>
      <point x="436" y="639.382"/>
      <point x="365.333" y="716"/>
      <point x="246" y="716" type="curve" smooth="yes"/>
      <point x="123.367" y="716"/>
      <point x="53" y="637.611"/>
      <point x="53" y="501" type="curve" smooth="yes"/>
      <point x="53" y="206" type="line" smooth="yes"/>
      <point x="53" y="71.549"/>
      <point x="125.115" y="-8"/>
      <point x="247" y="-8" type="curve" smooth="yes"/>
      <point x="364.667" y="-8"/>
      <point x="434" y="67.636"/>
      <point x="434" y="196" type="curve" smooth="yes"/>
      <point x="434" y="206" type="line"/>
    </contour>
  </outline>
</glyph>
<glyph name="D" format="2">
  <advance width="488"/>
  <unicode hex="0044"/>
  <anchor x="207" y="760" name="top"/>
  <anchor x="207" y="-86" name="bottom"/>
  <outline>
    <contour>
      <point x="61" y="0" type="line"/>
      <point x="245" y="0" type="line" smooth="yes"/>
      <point x="365.075" y="0"/>
      <point x="435" y="78.758"/>
      <point x="435" y="214" type="curve" smooth="yes"/>
      <point x="435" y="493" type="line" smooth="yes"/>
      <point x="435" y="628.909"/>
      <point x="365.667" y="707"/>
      <point x="245" y="707" type="curve" smooth="yes"/>
      <point x="61" y="707" type="line"/>
    </contour>
    <contour>
      <point x="136" y="67" type="line"/>
      <point x="136" y="640" type="line"/>
      <point x="245" y="640" type="line" smooth="yes"/>
      <point x="320.914" y="640"/>
      <point x="360" y="587.319"/>
      <point x="360" y="485" type="curve" smooth="yes"/>
      <point x="360" y="213" type="line" smooth="yes"/>
      <point x="360" y="117.783"/>
      <point x="320" y="67"/>
      <point x="245" y="67" type="curve" smooth="yes"/>
    </contour>
  </outline>
</glyph>
<glyph name="E" format="2">
  <advance width="412"/>
  <unicode hex="0045"/>
  <anchor x="232" y="760" name="top"/>
  <anchor x="232" y="-86" name="bottom"/>
  <anchor x="376" y="0" name="b.cedilla"/>
  <outline>
    <contour>
      <point x="61" y="0" type="line"/>
      <point x="376" y="0" type="line"/>
      <point x="376" y="67" type="line"/>
      <point x="135" y="67" type="line"/>
      <point x="135" y="326" type="line"/>
      <point x="342" y="326" type="line"/>
      <point x="342" y="393" type="line"/>
      <point x="135" y="393" type="line"/>
      <point x="135" y="640" type="line"/>
      <point x="376" y="640" type="line"/>
      <point x="376" y="707" type="line"/>
      <point x="61" y="707" type="line"/>
    </contour>
  </outline>
</glyph>
<glyph name="F" format="2">
  <advance width="406"/>
  <unicode hex="0046"/>
  <anchor x="231" y="760" name="top"/>
  <anchor x="236" y="-86" name="bottom"/>
  <outline>
    <contour>
      <point x="115.64" y="323" type="line"/>
      <point x="343" y="323" type="line"/>
      <point x="343" y="390" type="line"/>
      <point x="115.64" y="390" type="line"/>
    </contour>
    <contour>
      <point x="115.82" y="640" type="line"/>
      <point x="376" y="640" type="line"/>
      <point x="376" y="707" type="line"/>
      <point x="115.82" y="707" type="line"/>
    </contour>
    <contour>
      <point x="61" y="0" type="line"/>
      <point x="136" y="0" type="line"/>
      <point x="136" y="707.034" type="line"/>
      <point x="61" y="707" type="line"/>
    </contour>
  </outline>
</glyph>
<glyph name="G" format="2">
  <advance width="489"/>
  <unicode hex="0047"/>
  <anchor x="246" y="760" name="top"/>
  <anchor x="246" y="-86" name="bottom"/>
  <outline>
    <contour>
      <point x="245" y="300" type="line"/>
      <point x="361" y="300" type="line"/>
      <point x="361" y="202" type="line" smooth="yes"/>
      <point x="361" y="107.577"/>
      <point x="321.935" y="59"/>
      <point x="246" y="59" type="curve" smooth="yes"/>
      <point x="167.331" y="59"/>
      <point x="128" y="108.333"/>
      <point x="128" y="205" type="curve" smooth="yes"/>
      <point x="128" y="494" type="line" smooth="yes"/>
      <point x="128" y="596.667"/>
      <point x="167.333" y="648"/>
      <point x="246" y="648" type="curve" smooth="yes"/>
      <point x="317.87" y="648"/>
      <point x="361" y="599.994"/>
      <point x="361" y="520" type="curve" smooth="yes"/>
      <point x="361" y="508" type="line"/>
      <point x="436" y="508" type="line"/>
      <point x="436" y="520" type="line" smooth="yes"/>
      <point x="436" y="641.123"/>
      <point x="363.415" y="716"/>
      <point x="246" y="716" type="curve" smooth="yes"/>
      <point x="123.367" y="716"/>
      <point x="53" y="637.611"/>
      <point x="53" y="501" type="curve" smooth="yes"/>
      <point x="53" y="206" type="line" smooth="yes"/>
      <point x="53" y="70.771"/>
      <point x="124.042" y="-8"/>
      <point x="246" y="-8" type="curve" smooth="yes"/>
      <point x="366.369" y="-8"/>
      <point x="436" y="70.06"/>
      <point x="436" y="205" type="curve" smooth="yes"/>
      <point x="436" y="362" type="line"/>
      <point x="245" y="362" type="line"/>
    </contour>
  </outline>
</glyph>
<glyph name="J" format="2">
  <advance width="269"/>
  <unicode hex="004A"/>
  <anchor x="165" y="760" name="top"/>
  <anchor x="236" y="-86" name="bottom"/>
  <outline>
    <contour>
      <point x="25" y="0" type="line"/>
      <point x="60" y="0" type="line" smooth="yes"/>
      <point x="152.657" y="0"/>
      <point x="202" y="48.648"/>
      <point x="202" y="140" type="curve" smooth="yes"/>
      <point x="202" y="707" type="line"/>
      <point x="127" y="707" type="line"/>
      <point x="127" y="148" type="line" smooth="yes"/>
      <point x="127" y="95.37"/>
      <point x="101.432" y="67"/>
      <point x="54" y="67" type="curve" smooth="yes"/>
      <point x="25" y="67" type="line"/>
    </contour>
  </outline>
</glyph>
<glyph name="K" format="2">
  <advance width="472"/>
  <unicode hex="004B"/>
  <anchor x="230" y="760" name="top"/>
  <anchor x="230" y="-86" name="bottom"/>
  <outline>
    <contour>
      <point x="61" y="0" type="line"/>
      <point x="136" y="0" type="line"/>
      <point x="136" y="189" type="line"/>
      <point x="226" y="343" type="line"/>
      <point x="384" y="0" type="line"/>
      <point x="466" y="0" type="line"/>
      <point x="271" y="419" type="line"/>
      <point x="441" y="707" type="line"/>
      <point x="362" y="707" type="line"/>
      <point x="136" y="313" type="line"/>
      <point x="136" y="707" type="line"/>
      <point x="61" y="707" type="line"/>
    </contour>
  </outline>
</glyph>
<glyph name="M" format="2">
  <advance width="612"/>
  <unicode hex="004D"/>
  <anchor x="307" y="760" name="top"/>
  <anchor x="236" y="-86" name="bottom"/>
  <outline>
    <contour>
      <point x="61" y="0" type="line"/>
      <point x="136" y="0" type="line"/>
      <point x="136" y="540" type="line"/>
      <point x="282" y="164" type="line"/>
      <point x="331" y="164" type="line"/>
      <point x="476" y="543" type="line"/>
      <point x="476" y="0" type="line"/>
      <point x="551" y="0" type="line"/>
      <point x="551" y="707" type="line"/>
      <point x="476" y="707" type="line"/>
      <point x="307" y="270" type="line"/>
      <point x="136" y="707" type="line"/>
      <point x="61" y="707" type="line"/>
    </contour>
  </outline>
</glyph>
<glyph name="N" format="2">
  <advance width="514"/>
  <unicode hex="004E"/>
  <anchor x="254" y="760" name="top"/>
  <anchor x="254" y="-86" name="bottom"/>
  <outline>
    <contour>
      <point x="61" y="0" type="line"/>
      <point x="136" y="0" type="line"/>
      <point x="136" y="543" type="line"/>
      <point x="378" y="0" type="line"/>
      <point x="453" y="0" type="line"/>
      <point x="453" y="707" type="line"/>
      <point x="378" y="707" type="line"/>
      <point x="378" y="163" type="line"/>
      <point x="136" y="707" type="line"/>
      <point x="61" y="707" type="line"/>
    </contour>
  </outline>
</glyph>
<glyph name="O" format="2">
  <advance width="489"/>
  <unicode hex="004F"/>
  <anchor x="245" y="760" name="top"/>
  <anchor x="245" y="-86" name="bottom"/>
  <anchor x="216" y="0" name="b.cedilla"/>
  <outline>
    <contour>
      <point x="245" y="-8" type="curve" smooth="yes"/>
      <point x="365.405" y="-8"/>
      <point x="436" y="71.096"/>
      <point x="436" y="206" type="curve" smooth="yes"/>
      <point x="436" y="501" type="line" smooth="yes"/>
      <point x="436" y="638.288"/>
      <point x="366.963" y="716"/>
      <point x="245" y="716" type="curve" smooth="yes"/>
      <point x="122.107" y="716"/>
      <point x="53" y="638.615"/>
      <point x="53" y="501" type="curve" smooth="yes"/>
      <point x="53" y="206" type="line" smooth="yes"/>
      <point x="53" y="70.981"/>
      <point x="123.861" y="-8"/>
    </contour>
    <contour>
      <point x="246" y="59" type="curve" smooth="yes"/>
      <point x="167.331" y="59"/>
      <point x="128" y="108.333"/>
      <point x="128" y="205" type="curve" smooth="yes"/>
      <point x="128" y="494" type="line" smooth="yes"/>
      <point x="128" y="597.333"/>
      <point x="166.823" y="648"/>
      <point x="246" y="648" type="curve" smooth="yes"/>
      <point x="322.165" y="648"/>
      <point x="361" y="595.994"/>
      <point x="361" y="494" type="curve" smooth="yes"/>
      <point x="361" y="205" type="line" smooth="yes"/>
      <point x="361" y="110.948"/>
      <point x="320.082" y="59"/>
    </contour>
  </outline>
</glyph>
<glyph name="P" format="2">
  <advance width="450"/>
  <unicode hex="0050"/>
  <anchor x="226" y="760" name="top"/>
  <anchor x="236" y="-86" name="bottom"/>
  <outline>
    <contour>
      <point x="61" y="0" type="line"/>
      <point x="136" y="0" type="line"/>
      <point x="136" y="299" type="line"/>
      <point x="245" y="299" type="line" smooth="yes"/>
      <point x="365.667" y="299"/>
      <point x="426" y="366.333"/>
      <point x="426" y="501" type="curve" smooth="yes"/>
      <point x="426" y="640.397"/>
      <point x="367.48" y="707"/>
      <point x="245" y="707" type="curve" smooth="yes"/>
      <point x="61" y="707" type="line"/>
    </contour>
    <contour>
      <point x="136" y="366" type="line"/>
      <point x="136" y="640" type="line"/>
      <point x="241" y="640" type="line" smooth="yes"/>
      <point x="318.396" y="640"/>
      <point x="352" y="597.919"/>
      <point x="352" y="501" type="curve" smooth="yes"/>
      <point x="352" y="408.057"/>
      <point x="317.42" y="366"/>
      <point x="241" y="366" type="curve" smooth="yes"/>
    </contour>
  </outline>
</glyph>
<glyph name="Q" format="2">
  <advance width="489"/>
  <unicode hex="0051"/>
  <anchor x="245" y="760" name="top"/>
  <anchor x="236" y="-86" name="bottom"/>
  <outline>
    <contour>
      <point x="245" y="-8" type="curve" smooth="yes"/>
      <point x="366.238" y="-8"/>
      <point x="436" y="70.162"/>
      <point x="436" y="206" type="curve" smooth="yes"/>
      <point x="436" y="501" type="line" smooth="yes"/>
      <point x="436" y="638.288"/>
      <point x="366.963" y="716"/>
      <point x="245" y="716" type="curve" smooth="yes"/>
      <point x="122.107" y="716"/>
      <point x="53" y="638.615"/>
      <point x="53" y="501" type="curve" smooth="yes"/>
      <point x="53" y="206" type="line" smooth="yes"/>
      <point x="53" y="70.021"/>
      <point x="123" y="-8"/>
    </contour>
    <contour>
      <point x="246" y="59" type="curve" smooth="yes"/>
      <point x="167.601" y="59"/>
      <point x="128" y="107.998"/>
      <point x="128" y="205" type="curve" smooth="yes"/>
      <point x="128" y="494" type="line" smooth="yes"/>
      <point x="128" y="597.333"/>
      <point x="166.823" y="648"/>
      <point x="246" y="648" type="curve" smooth="yes"/>
      <point x="322.165" y="648"/>
      <point x="361" y="595.994"/>
      <point x="361" y="494" type="curve" smooth="yes"/>
      <point x="361" y="205" type="line" smooth="yes"/>
      <point x="361" y="109.783"/>
      <point x="321" y="59"/>
    </contour>
    <contour>
      <point x="342" y="-146" type="line"/>
      <point x="403" y="-122" type="line"/>
      <point x="340.136" y="30.197" type="line"/>
      <point x="278.157" y="9.205" type="line"/>
    </contour>
  </outline>
</glyph>
<glyph name="R" format="2">
  <advance width="477"/>
  <unicode hex="0052"/>
  <anchor x="226" y="760" name="top"/>
  <anchor x="226" y="-86" name="bottom"/>
  <outline>
    <contour>
      <point x="61" y="0" type="line"/>
      <point x="136" y="0" type="line"/>
      <point x="136" y="309" type="line"/>
      <point x="250" y="309" type="line"/>
      <point x="367" y="0" type="line"/>
      <point x="446" y="0" type="line"/>
      <point x="322" y="321" type="line"/>
      <point x="391.333" y="343.667"/>
      <point x="426" y="405.667"/>
      <point x="426" y="507" type="curve" smooth="yes"/>
      <point x="426" y="643.996"/>
      <point x="369.927" y="707"/>
      <point x="248" y="707" type="curve" smooth="yes"/>
      <point x="61" y="707" type="line"/>
    </contour>
    <contour>
      <point x="136" y="375" type="line"/>
      <point x="136" y="640" type="line"/>
      <point x="247" y="640" type="line" smooth="yes"/>
      <point x="319.261" y="640"/>
      <point x="351" y="599.41"/>
      <point x="351" y="507" type="curve" smooth="yes"/>
      <point x="351" y="417.308"/>
      <point x="317.667" y="375"/>
      <point x="247" y="375" type="curve" smooth="yes"/>
    </contour>
  </outline>
</glyph>
<glyph name="S" format="2">
  <advance width="436"/>
  <unicode hex="0053"/>
  <anchor x="216" y="760" name="top"/>
  <anchor x="194" y="0" name="b.cedilla"/>
  <anchor x="216" y="-86" name="bottom"/>
  <outline>
    <contour>
      <point x="27" y="194" type="line"/>
      <point x="29.68" y="61.348"/>
      <point x="92.587" y="-7"/>
      <point x="212" y="-7" type="curve" smooth="yes"/>
      <point x="332.43" y="-7"/>
      <point x="399" y="62.062"/>
      <point x="399" y="187" type="curve" smooth="yes"/>
      <point x="399" y="289.577"/>
      <point x="357.521" y="347.706"/>
      <point x="257" y="386" type="curve" smooth="yes"/>
      <point x="215" y="402" type="line" smooth="yes"/>
      <point x="136.685" y="431.834"/>
      <point x="109" y="465.788"/>
      <point x="109" y="532" type="curve" smooth="yes"/>
      <point x="109" y="609.333"/>
      <point x="145.531" y="650"/>
      <point x="215" y="650" type="curve" smooth="yes"/>
      <point x="283.667" y="650"/>
      <point x="320.333" y="608.667"/>
      <point x="325" y="526" type="curve"/>
      <point x="395" y="526" type="line"/>
      <point x="389.821" y="650.301"/>
      <point x="327.312" y="717"/>
      <point x="216" y="717" type="curve" smooth="yes"/>
      <point x="104.123" y="717"/>
      <point x="34" y="644.179"/>
      <point x="34" y="528" type="curve" smooth="yes"/>
      <point x="34" y="435.589"/>
      <point x="75.508" y="380.046"/>
      <point x="173" y="342" type="curve" smooth="yes"/>
      <point x="214" y="326" type="line" smooth="yes"/>
      <point x="297.478" y="293.423"/>
      <point x="325" y="258.711"/>
      <point x="325" y="186" type="curve" smooth="yes"/>
      <point x="325" y="101"/>
      <point x="288.622" y="59"/>
      <point x="215" y="59" type="curve" smooth="yes"/>
      <point x="139.756" y="59"/>
      <point x="102.835" y="101.968"/>
      <point x="99" y="194" type="curve"/>
    </contour>
  </outline>
</glyph>
<glyph name="T" format="2">
  <advance width="376"/>
  <unicode hex="0054"/>
  <anchor x="188" y="-86" name="bottom"/>
  <anchor x="188" y="760" name="top"/>
  <anchor x="156" y="0" name="b.cedilla"/>
  <outline>
    <contour>
      <point x="152" y="0" type="line"/>
      <point x="225" y="0" type="line"/>
      <point x="225" y="640" type="line"/>
      <point x="371" y="640" type="line"/>
      <point x="371" y="707" type="line"/>
      <point x="6" y="707" type="line"/>
      <point x="6" y="640" type="line"/>
      <point x="152" y="640" type="line"/>
    </contour>
  </outline>
</glyph>
<glyph name="U" format="2">
  <advance width="491"/>
  <unicode hex="0055"/>
  <anchor x="246" y="760" name="top"/>
  <anchor x="246" y="-86" name="bottom"/>
  <anchor x="272" y="0" name="b.cedilla"/>
  <outline>
    <contour>
      <point x="61" y="707" type="line"/>
      <point x="61" y="180" type="line" smooth="yes"/>
      <point x="61" y="69.881"/>
      <point x="137.638" y="-8"/>
      <point x="246" y="-8" type="curve" smooth="yes"/>
      <point x="356.244" y="-8"/>
      <point x="430" y="67.359"/>
      <point x="430" y="180" type="curve" smooth="yes"/>
      <point x="430" y="707" type="line"/>
      <point x="354" y="707" type="line"/>
      <point x="354" y="184" type="line" smooth="yes"/>
      <point x="354" y="105.925"/>
      <point x="314.081" y="59"/>
      <point x="246" y="59" type="curve" smooth="yes"/>
      <point x="177.591" y="59"/>
      <point x="137" y="106.262"/>
      <point x="137" y="184" type="curve" smooth="yes"/>
      <point x="137" y="707" type="line"/>
    </contour>
  </outline>
</glyph>
<glyph name="V" format="2">
  <advance width="433"/>
  <unicode hex="0056"/>
  <anchor x="217" y="760" name="top"/>
  <anchor x="217" y="-86" name="bottom"/>
  <outline>
    <contour>
      <point x="181" y="0" type="line"/>
      <point x="253" y="0" type="line"/>
      <point x="424" y="707" type="line"/>
      <point x="344" y="707" type="line"/>
      <point x="217" y="117" type="line"/>
      <point x="89" y="707" type="line"/>
      <point x="9" y="707" type="line"/>
    </contour>
  </outline>
</glyph>
<glyph name="W" format="2">
  <advance width="670"/>
  <unicode hex="0057"/>
  <anchor x="336" y="760" name="top"/>
  <anchor x="336" y="-86" name="bottom"/>
  <outline>
    <contour>
      <point x="148" y="0" type="line"/>
      <point x="228" y="0" type="line"/>
      <point x="336" y="596" type="line"/>
      <point x="444" y="0" type="line"/>
      <point x="524" y="0" type="line"/>
      <point x="662" y="707" type="line"/>
      <point x="588" y="707" type="line"/>
      <point x="487" y="113" type="line"/>
      <point x="387" y="707" type="line"/>
      <point x="289" y="707" type="line"/>
      <point x="189" y="113" type="line"/>
      <point x="87" y="707" type="line"/>
      <point x="9" y="707" type="line"/>
    </contour>
  </outline>
</glyph>
<glyph name="X" format="2">
  <advance width="425"/>
  <unicode hex="0058"/>
  <anchor x="214" y="760" name="top"/>
  <anchor x="236" y="-86" name="bottom"/>
  <outline>
    <contour>
      <point x="9" y="0" type="line"/>
      <point x="93" y="0" type="line"/>
      <point x="213" y="293" type="line"/>
      <point x="332" y="0" type="line"/>
      <point x="417" y="0" type="line"/>
      <point x="255" y="368" type="line"/>
      <point x="403" y="707" type="line"/>
      <point x="319" y="707" type="line"/>
      <point x="214" y="441" type="line"/>
      <point x="106" y="707" type="line"/>
      <point x="23" y="707" type="line"/>
      <point x="170" y="367" type="line"/>
    </contour>
  </outline>
</glyph>
<glyph name="Y" format="2">
  <advance width="401"/>
  <unicode hex="0059"/>
  <anchor x="201" y="760" name="top"/>
  <anchor x="201" y="-86" name="bottom"/>
  <outline>
    <contour>
      <point x="164" y="0" type="line"/>
      <point x="238" y="0" type="line"/>
      <point x="238" y="294" type="line"/>
      <point x="392" y="707" type="line"/>
      <point x="310" y="707" type="line"/>
      <point x="201" y="383" type="line"/>
      <point x="91" y="707" type="line"/>
      <point x="9" y="707" type="line"/>
      <point x="164" y="294" type="line"/>
    </contour>
  </outline>
</glyph>
<glyph name="Z" format="2">
  <advance width="394"/>
  <unicode hex="005A"/>
  <anchor x="201" y="760" name="top"/>
  <anchor x="199" y="-86" name="bottom"/>
  <outline>
    <contour>
      <point x="31" y="0" type="line"/>
      <point x="367" y="0" type="line"/>
      <point x="367" y="67" type="line"/>
      <point x="103" y="67" type="line"/>
      <point x="359" y="640" type="line"/>
      <point x="359" y="707" type="line"/>
      <point x="42" y="707" type="line"/>
      <point x="42" y="640" type="line"/>
      <point x="286" y="640" type="line"/>
      <point x="31" y="67" type="line"/>
    </contour>
  </outline>
</glyph>
<glyph name="bracketleft" format="2">
  <advance width="259"/>
  <unicode hex="005B"/>
  <outline>
    <contour>
      <point x="61" y="-86" type="line"/>
      <point x="208" y="-86" type="line"/>
      <point x="208" y="-19" type="line"/>
      <point x="132" y="-19" type="line"/>
      <point x="132" y="691" type="line"/>
      <point x="208" y="691" type="line"/>
      <point x="208" y="758" type="line"/>
      <point x="61" y="758" type="line"/>
    </contour>
  </outline>
</glyph>
<glyph name="bracketright" format="2">
  <advance width="258"/>
  <unicode hex="005D"/>
  <outline>
    <contour>
      <point x="51" y="-86" type="line"/>
      <point x="197" y="-86" type="line"/>
      <point x="197" y="758" type="line"/>
      <point x="51" y="758" type="line"/>
      <point x="51" y="691" type="line"/>
      <point x="126" y="691" type="line"/>
      <point x="126" y="-19" type="line"/>
      <point x="51" y="-19" type="line"/>
    </contour>
  </outline>
</glyph>
<glyph name="asciicircum" format="2">
  <advance width="430"/>
  <unicode hex="005E"/>
  <outline>
    <contour>
      <point x="37" y="287" type="line"/>
      <point x="103" y="287" type="line"/>
      <point x="215" y="614" type="line"/>
      <point x="326" y="287" type="line"/>
      <point x="393" y="287" type="line"/>
      <point x="248" y="707" type="line"/>
      <point x="181" y="707" type="line"/>
    </contour>
  </outline>
</glyph>
<glyph name="underscore" format="2">
  <advance width="425"/>
  <unicode hex="005F"/>
  <outline>
    <contour>
      <point x="0" y="-106" type="line"/>
      <point x="426" y="-106" type="line"/>
      <point x="426" y="-55" type="line"/>
      <point x="0" y="-55" type="line"/>
    </contour>
  </outline>
</glyph>
<glyph name="grave" format="2">
  <advance width="513"/>
  <unicode hex="0060"/>
  <outline>
    <contour>
      <point x="275" y="590" type="line"/>
      <point x="333" y="590" type="line"/>
      <point x="240" y="722" type="line"/>
      <point x="164" y="722" type="line"/>
    </contour>
  </outline>
</glyph>
<glyph name="a" format="2">
  <advance width="410"/>
  <unicode hex="0061"/>
  <anchor x="205" y="590" name="top"/>
  <anchor x="205" y="578" name="t.ring"/>
  <anchor x="205" y="-86" name="bottom"/>
  <anchor x="350" y="0" name="b.cedilla"/>
  <outline>
    <contour>
      <point x="284" y="0" type="line"/>
      <point x="350" y="0" type="line"/>
      <point x="350" y="384" type="line" smooth="yes"/>
      <point x="350" y="482.897"/>
      <point x="295.97" y="538"/>
      <point x="199" y="538" type="curve" smooth="yes"/>
      <point x="109.796" y="538"/>
      <point x="54" y="484.513"/>
      <point x="54" y="399" type="curve" smooth="yes"/>
      <point x="54" y="390" type="line"/>
      <point x="120" y="390" type="line"/>
      <point x="120" y="398" type="line" smooth="yes"/>
      <point x="120" y="447.679"/>
      <point x="148.684" y="476"/>
      <point x="199" y="476" type="curve" smooth="yes"/>
      <point x="253.667" y="476"/>
      <point x="281" y="446.333"/>
      <point x="281" y="387" type="curve" smooth="yes"/>
      <point x="281" y="302" type="line"/>
      <point x="274.168" y="302"/>
      <point x="205.834" y="302"/>
      <point x="199" y="302" type="curve" smooth="yes"/>
      <point x="97.772" y="302"/>
      <point x="41" y="247.384"/>
      <point x="41" y="150" type="curve" smooth="yes"/>
      <point x="41" y="48.504"/>
      <point x="89.278" y="-8"/>
      <point x="176" y="-8" type="curve" smooth="yes"/>
      <point x="224" y="-8"/>
      <point x="260" y="11"/>
      <point x="284" y="49" type="curve"/>
    </contour>
    <contour>
      <point x="281" y="250" type="line"/>
      <point x="281" y="152" type="line" smooth="yes"/>
      <point x="281" y="88.448"/>
      <point x="248.926" y="52"/>
      <point x="193" y="52" type="curve" smooth="yes"/>
      <point x="138.329" y="52"/>
      <point x="111" y="85.667"/>
      <point x="111" y="151" type="curve" smooth="yes"/>
      <point x="111" y="217"/>
      <point x="142.667" y="250"/>
      <point x="206" y="250" type="curve" smooth="yes"/>
    </contour>
  </outline>
</glyph>
<glyph name="b" format="2">
  <advance width="421"/>
  <unicode hex="0062"/>
  <anchor x="230" y="590" name="top"/>
  <anchor x="230" y="-86" name="bottom"/>
  <outline>
    <contour>
      <point x="60" y="0" type="line"/>
      <point x="130" y="0" type="line"/>
      <point x="130" y="48" type="line"/>
      <point x="153.333" y="10.667"/>
      <point x="187" y="-8"/>
      <point x="231" y="-8" type="curve" smooth="yes"/>
      <point x="320.185" y="-8"/>
      <point x="371" y="57.305"/>
      <point x="371" y="171.922" type="curve" smooth="yes"/>
      <point x="371" y="356.842" type="line" smooth="yes"/>
      <point x="371" y="472.04"/>
      <point x="319.779" y="537.764"/>
      <point x="230" y="537.764" type="curve" smooth="yes"/>
      <point x="186.662" y="537.764"/>
      <point x="153.333" y="517.178"/>
      <point x="130" y="478" type="curve"/>
      <point x="130" y="707" type="line"/>
      <point x="60" y="707" type="line"/>
    </contour>
    <contour>
      <point x="218" y="54" type="curve" smooth="yes"/>
      <point x="160.704" y="54"/>
      <point x="130" y="97.693"/>
      <point x="130" y="179.227" type="curve" smooth="yes"/>
      <point x="130" y="348.533" type="line" smooth="yes"/>
      <point x="130" y="432.056"/>
      <point x="160.231" y="475.764"/>
      <point x="218" y="475.764" type="curve" smooth="yes"/>
      <point x="273.333" y="475.764"/>
      <point x="301" y="433.687"/>
      <point x="301" y="349.535" type="curve" smooth="yes"/>
      <point x="301" y="180.229" type="line" smooth="yes"/>
      <point x="301" y="96.411"/>
      <point x="273.113" y="54"/>
    </contour>
  </outline>
</glyph>
<glyph name="d" format="2">
  <advance width="421"/>
  <unicode hex="0064"/>
  <anchor x="195" y="590" name="top"/>
  <anchor x="195" y="-86" name="bottom"/>
  <outline>
    <contour>
      <point x="292" y="0" type="line"/>
      <point x="361" y="0" type="line"/>
      <point x="361" y="707" type="line"/>
      <point x="292" y="707" type="line"/>
      <point x="292" y="478" type="line"/>
      <point x="268.667" y="518"/>
      <point x="234.667" y="538"/>
      <point x="190" y="538" type="curve" smooth="yes"/>
      <point x="102.077" y="538"/>
      <point x="51" y="471.489"/>
      <point x="51" y="357" type="curve" smooth="yes"/>
      <point x="51" y="172" type="line" smooth="yes"/>
      <point x="51" y="59.648"/>
      <point x="103.239" y="-8"/>
      <point x="190" y="-8" type="curve" smooth="yes"/>
      <point x="234.667" y="-8"/>
      <point x="268.667" y="10.667"/>
      <point x="292" y="48" type="curve"/>
    </contour>
    <contour>
      <point x="204" y="54" type="curve" smooth="yes"/>
      <point x="146.804" y="54"/>
      <point x="121" y="93.173"/>
      <point x="121" y="180" type="curve" smooth="yes"/>
      <point x="121" y="349" type="line" smooth="yes"/>
      <point x="121" y="433"/>
      <point x="148.667" y="475"/>
      <point x="204" y="475" type="curve" smooth="yes"/>
      <point x="262.667" y="475"/>
      <point x="292" y="432.667"/>
      <point x="292" y="348" type="curve" smooth="yes"/>
      <point x="292" y="179" type="line" smooth="yes"/>
      <point x="292" y="98.344"/>
      <point x="260.782" y="54"/>
    </contour>
  </outline>
</glyph>
<glyph name="e" format="2">
  <advance width="417"/>
  <unicode hex="0065"/>
  <anchor x="208" y="590" name="top"/>
  <anchor x="209" y="-86" name="bottom"/>
  <anchor x="263" y="0" name="b.cedilla"/>
  <outline>
    <contour>
      <point x="121" y="244" type="line"/>
      <point x="367" y="244" type="line"/>
      <point x="367" y="351" type="line" smooth="yes"/>
      <point x="367" y="470.354"/>
      <point x="309.483" y="538"/>
      <point x="208" y="538" type="curve" smooth="yes"/>
      <point x="107.173" y="538"/>
      <point x="51" y="471.093"/>
      <point x="51" y="351" type="curve" smooth="yes"/>
      <point x="51" y="180" type="line" smooth="yes"/>
      <point x="51" y="54.667"/>
      <point x="104.333" y="-8"/>
      <point x="211" y="-8" type="curve" smooth="yes"/>
      <point x="311.691" y="-8"/>
      <point x="366" y="50.514"/>
      <point x="366" y="159" type="curve" smooth="yes"/>
      <point x="366" y="162" type="line"/>
      <point x="297" y="162" type="line"/>
      <point x="297" y="158" type="line" smooth="yes"/>
      <point x="297" y="87.333"/>
      <point x="269" y="52"/>
      <point x="213" y="52" type="curve" smooth="yes"/>
      <point x="150.385" y="52"/>
      <point x="121" y="93.203"/>
      <point x="121" y="181" type="curve" smooth="yes"/>
    </contour>
    <contour>
      <point x="121" y="297" type="line"/>
      <point x="121" y="349" type="line" smooth="yes"/>
      <point x="121" y="433.199"/>
      <point x="150.194" y="475"/>
      <point x="209" y="475" type="curve" smooth="yes"/>
      <point x="269.726" y="475"/>
      <point x="298" y="435.607"/>
      <point x="298" y="351" type="curve" smooth="yes"/>
      <point x="298" y="297" type="line"/>
    </contour>
  </outline>
</glyph>
<glyph name="f" format="2">
  <advance width="294"/>
  <unicode hex="0066"/>
  <anchor x="157" y="760" name="top"/>
  <anchor x="236" y="-86" name="bottom"/>
  <outline>
    <contour>
      <point x="103" y="0" type="line"/>
      <point x="173" y="0" type="line"/>
      <point x="173" y="475" type="line"/>
      <point x="264" y="475" type="line"/>
      <point x="264" y="529" type="line"/>
      <point x="173" y="529" type="line"/>
      <point x="173" y="578" type="line" smooth="yes"/>
      <point x="173" y="629.218"/>
      <point x="194.185" y="651"/>
      <point x="244" y="651" type="curve" smooth="yes"/>
      <point x="264" y="651" type="line"/>
      <point x="264" y="707" type="line"/>
      <point x="238" y="707" type="line" smooth="yes"/>
      <point x="149.971" y="707"/>
      <point x="103" y="658.637"/>
      <point x="103" y="568" type="curve" smooth="yes"/>
      <point x="103" y="529" type="line"/>
      <point x="40" y="529" type="line"/>
      <point x="40" y="475" type="line"/>
      <point x="103" y="475" type="line"/>
    </contour>
  </outline>
</glyph>
<glyph name="g" format="2">
  <advance width="421"/>
  <unicode hex="0067"/>
  <anchor x="208" y="590" name="top"/>
  <anchor x="236" y="-86" name="bottom"/>
  <outline>
    <contour>
      <point x="57" y="-32" type="line"/>
      <point x="59.039" y="-115.621"/>
      <point x="115.058" y="-166"/>
      <point x="206" y="-166" type="curve" smooth="yes"/>
      <point x="306.236" y="-166"/>
      <point x="361" y="-101.697"/>
      <point x="361" y="16" type="curve" smooth="yes"/>
      <point x="361" y="529" type="line"/>
      <point x="292" y="529" type="line"/>
      <point x="292" y="478" type="line"/>
      <point x="269" y="518"/>
      <point x="235" y="538"/>
      <point x="190" y="538" type="curve" smooth="yes"/>
      <point x="103.352" y="538"/>
      <point x="51" y="470.207"/>
      <point x="51" y="358" type="curve" smooth="yes"/>
      <point x="51" y="212" type="line" smooth="yes"/>
      <point x="51" y="100.453"/>
      <point x="103.379" y="33"/>
      <point x="190" y="33" type="curve" smooth="yes"/>
      <point x="235.309" y="33"/>
      <point x="269.156" y="51.251"/>
      <point x="292" y="88" type="curve"/>
      <point x="292" y="10" type="line" smooth="yes"/>
      <point x="292" y="-67.609"/>
      <point x="264.038" y="-105"/>
      <point x="206" y="-105" type="curve" smooth="yes"/>
      <point x="158.137" y="-105"/>
      <point x="125.927" y="-76.325"/>
      <point x="124" y="-32" type="curve"/>
    </contour>
    <contour>
      <point x="204" y="95" type="curve" smooth="yes"/>
      <point x="148.387" y="95"/>
      <point x="121" y="136.245"/>
      <point x="121" y="220" type="curve" smooth="yes"/>
      <point x="121" y="350" type="line" smooth="yes"/>
      <point x="121" y="433.382"/>
      <point x="148.634" y="475"/>
      <point x="204" y="475" type="curve" smooth="yes"/>
      <point x="262.833" y="475"/>
      <point x="292" y="433.239"/>
      <point x="292" y="349" type="curve" smooth="yes"/>
      <point x="292" y="220" type="line" smooth="yes"/>
      <point x="292" y="139.015"/>
      <point x="261.013" y="95"/>
    </contour>
  </outline>
</glyph>
<glyph name="i" format="2">
  <advance width="203"/>
  <unicode hex="0069"/>
  <anchor x="136" y="0" name="b.cedilla"/>
  <anchor x="102" y="-86" name="bottom"/>
  <outline>
    <contour>
      <point x="67" y="0" type="line"/>
      <point x="136" y="0" type="line"/>
      <point x="136" y="529" type="line"/>
      <point x="67" y="529" type="line"/>
    </contour>
    <contour>
      <point x="67" y="613" type="line"/>
      <point x="137" y="613" type="line"/>
      <point x="137" y="706" type="line"/>
      <point x="67" y="706" type="line"/>
    </contour>
  </outline>
</glyph>
<glyph name="j" format="2">
  <advance width="199"/>
  <unicode hex="006A"/>
  <outline>
    <contour>
      <point x="62" y="613" type="line"/>
      <point x="133" y="613" type="line"/>
      <point x="133" y="706" type="line"/>
      <point x="62" y="706" type="line"/>
    </contour>
    <contour>
      <point x="-26" y="-156" type="line"/>
      <point x="-8" y="-156" type="line" smooth="yes"/>
      <point x="83.333" y="-156"/>
      <point x="133" y="-106.333"/>
      <point x="133" y="-15" type="curve" smooth="yes"/>
      <point x="133" y="529" type="line"/>
      <point x="62" y="529" type="line"/>
      <point x="62" y="-12" type="line" smooth="yes"/>
      <point x="62" y="-66.004"/>
      <point x="38.667" y="-93"/>
      <point x="-10" y="-93" type="curve" smooth="yes"/>
      <point x="-26" y="-93" type="line"/>
    </contour>
  </outline>
</glyph>
<glyph name="k" format="2">
  <advance width="418"/>
  <unicode hex="006B"/>
  <anchor x="203" y="760" name="top"/>
  <anchor x="223" y="-86" name="bottom"/>
  <outline>
    <contour>
      <point x="60" y="0" type="line"/>
      <point x="130" y="0" type="line"/>
      <point x="130" y="707" type="line"/>
      <point x="60" y="707" type="line"/>
    </contour>
    <contour>
      <point x="121.339" y="144.315" type="line"/>
      <point x="384" y="529" type="line"/>
      <point x="307" y="529" type="line"/>
      <point x="121.687" y="241.084" type="line"/>
    </contour>
    <contour>
      <point x="324" y="0" type="line"/>
      <point x="403" y="0" type="line"/>
      <point x="238.301" y="339.822" type="line"/>
      <point x="195.516" y="275.924" type="line"/>
    </contour>
  </outline>
</glyph>
<glyph name="l" format="2">
  <advance width="239"/>
  <unicode hex="006C"/>
  <anchor x="96" y="760" name="top"/>
  <anchor x="150" y="-86" name="bottom"/>
  <anchor x="216" y="397" name="dot"/>
  <outline>
    <contour>
      <point x="219" y="0" type="line"/>
      <point x="219" y="62" type="line"/>
      <point x="204" y="62" type="line" smooth="yes"/>
      <point x="155.333" y="62"/>
      <point x="131" y="89"/>
      <point x="131" y="143" type="curve" smooth="yes"/>
      <point x="131" y="707" type="line"/>
      <point x="60" y="707" type="line"/>
      <point x="60" y="140" type="line" smooth="yes"/>
      <point x="60" y="49.7"/>
      <point x="110.41" y="0"/>
      <point x="202" y="0" type="curve" smooth="yes"/>
    </contour>
  </outline>
</glyph>
<glyph name="m" format="2">
  <advance width="661"/>
  <unicode hex="006D"/>
  <anchor x="331" y="590" name="top"/>
  <anchor x="236" y="-86" name="bottom"/>
  <outline>
    <contour>
      <point x="60" y="0" type="line"/>
      <point x="131" y="0" type="line"/>
      <point x="131" y="380" type="line" smooth="yes"/>
      <point x="131" y="438.577"/>
      <point x="162.439" y="475"/>
      <point x="213" y="475" type="curve" smooth="yes"/>
      <point x="264.544" y="475"/>
      <point x="296" y="438.996"/>
      <point x="296" y="380" type="curve" smooth="yes"/>
      <point x="296" y="0" type="line"/>
      <point x="366" y="0" type="line"/>
      <point x="366" y="381" type="line" smooth="yes"/>
      <point x="366" y="438.683"/>
      <point x="398.454" y="475"/>
      <point x="450" y="475" type="curve" smooth="yes"/>
      <point x="499.825" y="475"/>
      <point x="530" y="439.167"/>
      <point x="530" y="380" type="curve" smooth="yes"/>
      <point x="530" y="0" type="line"/>
      <point x="601" y="0" type="line"/>
      <point x="601" y="383" type="line" smooth="yes"/>
      <point x="601" y="483.623"/>
      <point x="552.938" y="538"/>
      <point x="464" y="538" type="curve" smooth="yes"/>
      <point x="414.746" y="538"/>
      <point x="372.374" y="513.736"/>
      <point x="347" y="471" type="curve"/>
      <point x="323.773" y="513.356"/>
      <point x="281.473" y="538"/>
      <point x="232" y="538" type="curve" smooth="yes"/>
      <point x="188.678" y="538"/>
      <point x="149.318" y="516.218"/>
      <point x="129" y="481" type="curve"/>
      <point x="129" y="529" type="line"/>
      <point x="60" y="529" type="line"/>
    </contour>
  </outline>
</glyph>
<glyph name="n" format="2">
  <advance width="425"/>
  <unicode hex="006E"/>
  <anchor x="208" y="590" name="top"/>
  <anchor x="208" y="-86" name="bottom"/>
  <anchor x="0" y="760" name="dot"/>
  <outline>
    <contour>
      <point x="60" y="0" type="line"/>
      <point x="130" y="0" type="line"/>
      <point x="130" y="380" type="line" smooth="yes"/>
      <point x="130" y="438.233"/>
      <point x="162.123" y="475"/>
      <point x="213" y="475" type="curve" smooth="yes"/>
      <point x="265.126" y="475"/>
      <point x="296" y="439.663"/>
      <point x="296" y="380" type="curve" smooth="yes"/>
      <point x="296" y="0" type="line"/>
      <point x="366" y="0" type="line"/>
      <point x="366" y="383" type="line" smooth="yes"/>
      <point x="366" y="480.249"/>
      <point x="316.073" y="538"/>
      <point x="232" y="538" type="curve" smooth="yes"/>
      <point x="188.374" y="538"/>
      <point x="148.173" y="515.967"/>
      <point x="128" y="481" type="curve"/>
      <point x="128" y="529" type="line"/>
      <point x="60" y="529" type="line"/>
    </contour>
  </outline>
</glyph>
<glyph name="p" format="2">
  <advance width="421"/>
  <unicode hex="0070"/>
  <anchor x="218" y="590" name="top"/>
  <anchor x="236" y="-86" name="bottom"/>
  <outline>
    <contour>
      <point x="60" y="-156" type="line"/>
      <point x="130" y="-156" type="line"/>
      <point x="130" y="47" type="line"/>
      <point x="153" y="10"/>
      <point x="186" y="-8"/>
      <point x="231" y="-8" type="curve" smooth="yes"/>
      <point x="320" y="-8"/>
      <point x="371" y="57"/>
      <point x="371" y="172" type="curve" smooth="yes"/>
      <point x="371" y="357" type="line" smooth="yes"/>
      <point x="371" y="472"/>
      <point x="320" y="538"/>
      <point x="230" y="538" type="curve" smooth="yes"/>
      <point x="187" y="538"/>
      <point x="153" y="517"/>
      <point x="130" y="478" type="curve"/>
      <point x="130" y="529" type="line"/>
      <point x="60" y="529" type="line"/>
    </contour>
    <contour>
      <point x="218" y="54" type="curve" smooth="yes"/>
      <point x="161" y="54"/>
      <point x="130" y="98"/>
      <point x="130" y="179" type="curve" smooth="yes"/>
      <point x="130" y="348" type="line" smooth="yes"/>
      <point x="130" y="431"/>
      <point x="160" y="475"/>
      <point x="218" y="475" type="curve" smooth="yes"/>
      <point x="273" y="475"/>
      <point x="301" y="433"/>
      <point x="301" y="349" type="curve" smooth="yes"/>
      <point x="301" y="180" type="line" smooth="yes"/>
      <point x="301" y="96"/>
      <point x="273" y="54"/>
    </contour>
  </outline>
</glyph>
<glyph name="q" format="2">
  <advance width="421"/>
  <unicode hex="0071"/>
  <anchor x="204" y="590" name="top"/>
  <anchor x="236" y="-86" name="bottom"/>
  <outline>
    <contour>
      <point x="292" y="-156" type="line"/>
      <point x="361" y="-156" type="line"/>
      <point x="361" y="529" type="line"/>
      <point x="292" y="529" type="line"/>
      <point x="292" y="478" type="line"/>
      <point x="268.667" y="518"/>
      <point x="235" y="538"/>
      <point x="191" y="538" type="curve" smooth="yes"/>
      <point x="102.076" y="538"/>
      <point x="51" y="471.967"/>
      <point x="51" y="357" type="curve" smooth="yes"/>
      <point x="51" y="172" type="line" smooth="yes"/>
      <point x="51" y="57.808"/>
      <point x="101.819" y="-8"/>
      <point x="190" y="-8" type="curve" smooth="yes"/>
      <point x="234.667" y="-8"/>
      <point x="268.667" y="10.333"/>
      <point x="292" y="47" type="curve"/>
    </contour>
    <contour>
      <point x="204" y="54" type="curve" smooth="yes"/>
      <point x="146.804" y="54"/>
      <point x="121" y="93.173"/>
      <point x="121" y="180" type="curve" smooth="yes"/>
      <point x="121" y="349" type="line" smooth="yes"/>
      <point x="121" y="433"/>
      <point x="148.667" y="475"/>
      <point x="204" y="475" type="curve" smooth="yes"/>
      <point x="262.667" y="475"/>
      <point x="292" y="432.667"/>
      <point x="292" y="348" type="curve" smooth="yes"/>
      <point x="292" y="179" type="line" smooth="yes"/>
      <point x="292" y="98.344"/>
      <point x="260.782" y="54"/>
    </contour>
  </outline>
</glyph>
<glyph name="r" format="2">
  <advance width="296"/>
  <unicode hex="0072"/>
  <anchor x="172" y="590" name="top"/>
  <anchor x="171" y="-86" name="bottom"/>
  <outline>
    <contour>
      <point x="60" y="0" type="line"/>
      <point x="130" y="0" type="line"/>
      <point x="130" y="376" type="line" smooth="yes"/>
      <point x="130" y="437.333"/>
      <point x="169" y="475"/>
      <point x="225" y="475" type="curve" smooth="yes"/>
      <point x="240.333" y="475"/>
      <point x="257.333" y="472"/>
      <point x="276" y="466" type="curve"/>
      <point x="276" y="534" type="line"/>
      <point x="266" y="536.667"/>
      <point x="253.667" y="538"/>
      <point x="239" y="538" type="curve" smooth="yes"/>
      <point x="191" y="538"/>
      <point x="150.667" y="518.333"/>
      <point x="128" y="477" type="curve"/>
      <point x="128" y="529" type="line"/>
      <point x="60" y="529" type="line"/>
    </contour>
  </outline>
</glyph>
<glyph name="s" format="2">
  <advance width="391"/>
  <unicode hex="0073"/>
  <anchor x="199" y="590" name="top"/>
  <anchor x="180" y="0" name="b.cedilla"/>
  <anchor x="198" y="-86" name="bottom"/>
  <outline>
    <contour>
      <point x="41" y="148" type="line"/>
      <point x="41" y="142" type="line" smooth="yes"/>
      <point x="41" y="50.239"/>
      <point x="101.18" y="-8"/>
      <point x="196" y="-8" type="curve" smooth="yes"/>
      <point x="295.876" y="-8"/>
      <point x="355" y="48.149"/>
      <point x="355" y="143" type="curve" smooth="yes"/>
      <point x="355" y="214.333"/>
      <point x="326.253" y="255.062"/>
      <point x="247" y="287" type="curve" smooth="yes"/>
      <point x="180" y="314" type="line" smooth="yes"/>
      <point x="133.813" y="332.612"/>
      <point x="116" y="358.5"/>
      <point x="116" y="398" type="curve" smooth="yes"/>
      <point x="116" y="447.073"/>
      <point x="147.063" y="477"/>
      <point x="198" y="477" type="curve" smooth="yes"/>
      <point x="253.766" y="477"/>
      <point x="285" y="443.253"/>
      <point x="285" y="383" type="curve" smooth="yes"/>
      <point x="285" y="377" type="line"/>
      <point x="349" y="377" type="line"/>
      <point x="349" y="390" type="line" smooth="yes"/>
      <point x="349" y="481.378"/>
      <point x="291.613" y="538"/>
      <point x="199" y="538" type="curve" smooth="yes"/>
      <point x="105.906" y="538"/>
      <point x="46" y="481.227"/>
      <point x="46" y="393" type="curve" smooth="yes"/>
      <point x="46" y="329.093"/>
      <point x="79.618" y="283.16"/>
      <point x="147" y="255" type="curve" smooth="yes"/>
      <point x="214" y="227" type="line" smooth="yes"/>
      <point x="267.624" y="204.59"/>
      <point x="286" y="181.875"/>
      <point x="286" y="138" type="curve" smooth="yes"/>
      <point x="286" y="83.576"/>
      <point x="254.345" y="53"/>
      <point x="198" y="53" type="curve" smooth="yes"/>
      <point x="139.378" y="53"/>
      <point x="105" y="85.9"/>
      <point x="105" y="142" type="curve" smooth="yes"/>
      <point x="105" y="148" type="line"/>
    </contour>
  </outline>
</glyph>
<glyph name="t" format="2">
  <advance width="302"/>
  <unicode hex="0074"/>
  <anchor x="156" y="-86" name="bottom"/>
  <anchor x="130" y="760" name="top"/>
  <outline>
    <contour>
      <point x="258" y="0" type="line"/>
      <point x="258" y="61" type="line"/>
      <point x="244" y="61" type="line" smooth="yes"/>
      <point x="190.675" y="61"/>
      <point x="165" y="87.325"/>
      <point x="165" y="142" type="curve" smooth="yes"/>
      <point x="165" y="475" type="line"/>
      <point x="266" y="475" type="line"/>
      <point x="266" y="529" type="line"/>
      <point x="165" y="529" type="line"/>
      <point x="165" y="672" type="line"/>
      <point x="95" y="640" type="line"/>
      <point x="95" y="529" type="line"/>
      <point x="28" y="529" type="line"/>
      <point x="28" y="475" type="line"/>
      <point x="95" y="475" type="line"/>
      <point x="95" y="139" type="line" smooth="yes"/>
      <point x="95" y="46.331"/>
      <point x="144.333" y="0"/>
      <point x="241" y="0" type="curve" smooth="yes"/>
    </contour>
  </outline>
</glyph>
<glyph name="u" format="2">
  <advance width="425"/>
  <unicode hex="0075"/>
  <anchor x="212" y="590" name="top"/>
  <anchor x="212" y="-86" name="bottom"/>
  <anchor x="237" y="0" name="b.cedilla"/>
  <outline>
    <contour>
      <point x="60" y="529" type="line"/>
      <point x="60" y="163" type="line" smooth="yes"/>
      <point x="60" y="59.163"/>
      <point x="102.708" y="-8"/>
      <point x="213" y="-8" type="curve" smooth="yes"/>
      <point x="324.512" y="-8"/>
      <point x="366" y="57.984"/>
      <point x="366" y="163" type="curve" smooth="yes"/>
      <point x="366" y="529" type="line"/>
      <point x="296" y="529" type="line"/>
      <point x="296" y="186.987" type="line" smooth="yes"/>
      <point x="296" y="104.283"/>
      <point x="282.812" y="54"/>
      <point x="214" y="54" type="curve" smooth="yes"/>
      <point x="145.188" y="54"/>
      <point x="130" y="104.281"/>
      <point x="130" y="186.987" type="curve" smooth="yes"/>
      <point x="130" y="529" type="line"/>
    </contour>
  </outline>
</glyph>
<glyph name="v" format="2">
  <advance width="379"/>
  <unicode hex="0076"/>
  <anchor x="190" y="590" name="top"/>
  <anchor x="190" y="-86" name="bottom"/>
  <outline>
    <contour>
      <point x="155" y="0" type="line"/>
      <point x="224" y="0" type="line"/>
      <point x="365" y="529" type="line"/>
      <point x="289" y="529" type="line"/>
      <point x="190" y="111" type="line"/>
      <point x="91" y="529" type="line"/>
      <point x="15" y="529" type="line"/>
    </contour>
  </outline>
</glyph>
<glyph name="y" format="2">
  <advance width="379"/>
  <unicode hex="0079"/>
  <anchor x="186" y="590" name="top"/>
  <anchor x="300" y="-108" name="dot"/>
  <anchor x="186" y="578" name="t.ring"/>
  <outline>
    <contour>
      <point x="46" y="-158" type="line"/>
      <point x="56" y="-158" type="line" smooth="yes"/>
      <point x="145.42" y="-158"/>
      <point x="189.637" y="-126.066"/>
      <point x="210" y="-50" type="curve" smooth="yes"/>
      <point x="365" y="529" type="line"/>
      <point x="289" y="529" type="line"/>
      <point x="191" y="125" type="line"/>
      <point x="91" y="529" type="line"/>
      <point x="15" y="529" type="line"/>
      <point x="159" y="-12" type="line"/>
      <point x="155" y="-29" type="line" smooth="yes"/>
      <point x="143.92" y="-76.091"/>
      <point x="117.562" y="-95"/>
      <point x="63" y="-95" type="curve" smooth="yes"/>
      <point x="46" y="-95" type="line"/>
    </contour>
  </outline>
</glyph>
<glyph name="z" format="2">
  <advance width="385"/>
  <unicode hex="007A"/>
  <anchor x="186" y="590" name="top"/>
  <anchor x="186" y="-86" name="bottom"/>
  <outline>
    <contour>
      <point x="51" y="0" type="line"/>
      <point x="334" y="0" type="line"/>
      <point x="334" y="63" type="line"/>
      <point x="126" y="63" type="line"/>
      <point x="334" y="466" type="line"/>
      <point x="334" y="529" type="line"/>
      <point x="51" y="529" type="line"/>
      <point x="51" y="466" type="line"/>
      <point x="259" y="466" type="line"/>
      <point x="51" y="63" type="line"/>
    </contour>
  </outline>
</glyph>
<glyph name="asciitilde" format="2">
  <advance width="430"/>
  <unicode hex="007E"/>
  <outline>
    <contour>
      <point x="86" y="218" type="line"/>
      <point x="108.286" y="258.857"/>
      <point x="125" y="273"/>
      <point x="151" y="273" type="curve" smooth="yes"/>
      <point x="187.195" y="273"/>
      <point x="226.654" y="221"/>
      <point x="284" y="221" type="curve" smooth="yes"/>
      <point x="333.333" y="221"/>
      <point x="368.333" y="249"/>
      <point x="399" y="313" type="curve"/>
      <point x="344" y="347" type="line"/>
      <point x="321.068" y="303.685"/>
      <point x="306.571" y="291"/>
      <point x="280" y="291" type="curve" smooth="yes"/>
      <point x="235.709" y="291"/>
      <point x="207.168" y="344"/>
      <point x="146" y="344" type="curve" smooth="yes"/>
      <point x="98.833" y="344"/>
      <point x="61.345" y="314.009"/>
      <point x="31" y="252" type="curve"/>
    </contour>
  </outline>
</glyph>
<glyph name="exclamdown" format="2">
  <advance width="208"/>
  <unicode hex="00A1"/>
  <outline>
    <contour>
      <point x="69" y="430" type="line"/>
      <point x="148" y="430" type="line"/>
      <point x="148" y="529" type="line"/>
      <point x="69" y="529" type="line"/>
    </contour>
    <contour>
      <point x="62" y="-156" type="line"/>
      <point x="157" y="-156" type="line"/>
      <point x="138" y="333" type="line"/>
      <point x="80" y="333" type="line"/>
    </contour>
  </outline>
</glyph>
<glyph name="cent" format="2">
  <advance width="418"/>
  <unicode hex="00A2"/>
  <outline>
    <contour>
      <point x="186" y="-102" type="line"/>
      <point x="241" y="-102" type="line"/>
      <point x="241" y="-6" type="line"/>
      <point x="323.595" y="5.013"/>
      <point x="368" y="63.753"/>
      <point x="368" y="162" type="curve" smooth="yes"/>
      <point x="368" y="175" type="line"/>
      <point x="298" y="175" type="line"/>
      <point x="298" y="161" type="line" smooth="yes"/>
      <point x="298" y="90.262"/>
      <point x="267.492" y="52.872"/>
      <point x="209.775" y="52.872" type="curve" smooth="yes"/>
      <point x="151.779" y="52.872"/>
      <point x="121" y="96.948"/>
      <point x="121" y="180" type="curve" smooth="yes"/>
      <point x="121" y="349" type="line" smooth="yes"/>
      <point x="121" y="433.668"/>
      <point x="150.539" y="475.952"/>
      <point x="209.685" y="475.952" type="curve" smooth="yes"/>
      <point x="268.545" y="475.952"/>
      <point x="298" y="440.282"/>
      <point x="298" y="369" type="curve" smooth="yes"/>
      <point x="298" y="354" type="line"/>
      <point x="368" y="354" type="line"/>
      <point x="368" y="369" type="line" smooth="yes"/>
      <point x="368" y="466.265"/>
      <point x="323.315" y="525.025"/>
      <point x="241" y="536" type="curve"/>
      <point x="241" y="627" type="line"/>
      <point x="186" y="627" type="line"/>
      <point x="186" y="537" type="line"/>
      <point x="97.035" y="527.27"/>
      <point x="51" y="465.889"/>
      <point x="51" y="357" type="curve" smooth="yes"/>
      <point x="51" y="172" type="line" smooth="yes"/>
      <point x="51" y="62.667"/>
      <point x="96" y="3"/>
      <point x="186" y="-7" type="curve"/>
    </contour>
  </outline>
</glyph>
<glyph name="sterling" format="2">
  <advance width="392"/>
  <unicode hex="00A3"/>
  <outline>
    <contour>
      <point x="44" y="0" type="line"/>
      <point x="366" y="0" type="line"/>
      <point x="366" y="68" type="line"/>
      <point x="126" y="68" type="line"/>
      <point x="152.758" y="90.744"/>
      <point x="165" y="121.821"/>
      <point x="165" y="167" type="curve" smooth="yes"/>
      <point x="165" y="310" type="line"/>
      <point x="285" y="310" type="line"/>
      <point x="285" y="377" type="line"/>
      <point x="165" y="377" type="line"/>
      <point x="165" y="572" type="line" smooth="yes"/>
      <point x="165" y="624"/>
      <point x="185.333" y="650"/>
      <point x="226" y="650" type="curve" smooth="yes"/>
      <point x="267.304" y="650"/>
      <point x="286" y="621.333"/>
      <point x="286" y="558" type="curve"/>
      <point x="357" y="558" type="line"/>
      <point x="357" y="661.268"/>
      <point x="310.382" y="717"/>
      <point x="224" y="717" type="curve" smooth="yes"/>
      <point x="137.516" y="717"/>
      <point x="89" y="659.141"/>
      <point x="89" y="556" type="curve" smooth="yes"/>
      <point x="89" y="377" type="line"/>
      <point x="27" y="377" type="line"/>
      <point x="27" y="310" type="line"/>
      <point x="89" y="310" type="line"/>
      <point x="89" y="168" type="line" smooth="yes"/>
      <point x="89" y="112.252"/>
      <point x="76.483" y="84.992"/>
      <point x="44" y="70" type="curve"/>
    </contour>
  </outline>
</glyph>
<glyph name="currency" format="2">
  <advance width="598"/>
  <unicode hex="00A4"/>
  <outline>
    <contour>
      <point x="112" y="97" type="line"/>
      <point x="181" y="166" type="line"/>
      <point x="216.333" y="142"/>
      <point x="255.667" y="130"/>
      <point x="299" y="130" type="curve" smooth="yes"/>
      <point x="341.667" y="130"/>
      <point x="381" y="142"/>
      <point x="417" y="166" type="curve"/>
      <point x="486" y="96" type="line"/>
      <point x="538" y="148" type="line"/>
      <point x="468" y="218" type="line"/>
      <point x="491.333" y="251.333"/>
      <point x="503" y="290.333"/>
      <point x="503" y="335" type="curve" smooth="yes"/>
      <point x="503" y="378.333"/>
      <point x="491" y="417.333"/>
      <point x="467" y="452" type="curve"/>
      <point x="537" y="521" type="line"/>
      <point x="485" y="572" type="line"/>
      <point x="416" y="503" type="line"/>
      <point x="381.333" y="527"/>
      <point x="342.333" y="539"/>
      <point x="299" y="539" type="curve" smooth="yes"/>
      <point x="255" y="539"/>
      <point x="215.667" y="527"/>
      <point x="181" y="503" type="curve"/>
      <point x="113" y="572" type="line"/>
      <point x="61" y="521" type="line"/>
      <point x="131" y="451" type="line"/>
      <point x="107" y="419"/>
      <point x="95" y="380.333"/>
      <point x="95" y="335" type="curve" smooth="yes"/>
      <point x="95" y="290.333"/>
      <point x="106.667" y="251.333"/>
      <point x="130" y="218" type="curve"/>
      <point x="60" y="150" type="line"/>
    </contour>
    <contour>
      <point x="299" y="201" type="curve" smooth="yes"/>
      <point x="222.823" y="201"/>
      <point x="168" y="257.078"/>
      <point x="168" y="335" type="curve" smooth="yes"/>
      <point x="168" y="411.98"/>
      <point x="223.178" y="468"/>
      <point x="299" y="468" type="curve" smooth="yes"/>
      <point x="374.177" y="468"/>
      <point x="430" y="411.325"/>
      <point x="430" y="335" type="curve" smooth="yes"/>
      <point x="430" y="258.368"/>
      <point x="373.916" y="201"/>
    </contour>
  </outline>
</glyph>
<glyph name="yen" format="2">
  <advance width="398"/>
  <unicode hex="00A5"/>
  <outline>
    <contour>
      <point x="38" y="151" type="line"/>
      <point x="162" y="151" type="line"/>
      <point x="162" y="0" type="line"/>
      <point x="237" y="0" type="line"/>
      <point x="237" y="151" type="line"/>
      <point x="360" y="151" type="line"/>
      <point x="360" y="211" type="line"/>
      <point x="237" y="211" type="line"/>
      <point x="237" y="280" type="line"/>
      <point x="360" y="280" type="line"/>
      <point x="360" y="341" type="line"/>
      <point x="252" y="341" type="line"/>
      <point x="390" y="707" type="line"/>
      <point x="307" y="707" type="line"/>
      <point x="201" y="384" type="line"/>
      <point x="93" y="707" type="line"/>
      <point x="8" y="707" type="line"/>
      <point x="146" y="341" type="line"/>
      <point x="38" y="341" type="line"/>
      <point x="38" y="280" type="line"/>
      <point x="162" y="280" type="line"/>
      <point x="162" y="211" type="line"/>
      <point x="38" y="211" type="line"/>
    </contour>
  </outline>
</glyph>
<glyph name="brokenbar" format="2">
  <advance width="272"/>
  <unicode hex="00A6"/>
  <outline>
    <contour>
      <point x="102" y="397" type="line"/>
      <point x="170" y="397" type="line"/>
      <point x="170" y="758" type="line"/>
      <point x="102" y="758" type="line"/>
    </contour>
    <contour>
      <point x="102" y="-85" type="line"/>
      <point x="170" y="-85" type="line"/>
      <point x="170" y="278" type="line"/>
      <point x="102" y="278" type="line"/>
    </contour>
  </outline>
</glyph>
<glyph name="dieresis" format="2">
  <advance width="513"/>
  <unicode hex="00A8"/>
  <outline>
    <contour>
      <point x="140" y="593" type="line"/>
      <point x="217" y="593" type="line"/>
      <point x="217" y="681" type="line"/>
      <point x="140" y="681" type="line"/>
    </contour>
    <contour>
      <point x="296" y="593" type="line"/>
      <point x="373" y="593" type="line"/>
      <point x="373" y="681" type="line"/>
      <point x="296" y="681" type="line"/>
    </contour>
  </outline>
</glyph>
<glyph name="ordfeminine" format="2">
  <advance width="301"/>
  <unicode hex="00AA"/>
  <outline>
    <contour>
      <point x="189" y="440" type="line"/>
      <point x="253" y="440" type="line"/>
      <point x="253" y="662" type="line" smooth="yes"/>
      <point x="253" y="729"/>
      <point x="215" y="766"/>
      <point x="147" y="766" type="curve" smooth="yes"/>
      <point x="84" y="766"/>
      <point x="46" y="730"/>
      <point x="46" y="670" type="curve" smooth="yes"/>
      <point x="46" y="667" type="line"/>
      <point x="108" y="667" type="line"/>
      <point x="108" y="672" type="line" smooth="yes"/>
      <point x="108" y="695"/>
      <point x="122" y="709"/>
      <point x="146" y="709" type="curve" smooth="yes"/>
      <point x="173" y="709"/>
      <point x="186" y="695"/>
      <point x="186" y="667" type="curve" smooth="yes"/>
      <point x="186" y="628" type="line"/>
      <point x="143" y="628" type="line" smooth="yes"/>
      <point x="76" y="628"/>
      <point x="37" y="594"/>
      <point x="37" y="535" type="curve" smooth="yes"/>
      <point x="37" y="470"/>
      <point x="68" y="435"/>
      <point x="125" y="435" type="curve" smooth="yes"/>
      <point x="152" y="435"/>
      <point x="170" y="445"/>
      <point x="189" y="469" type="curve"/>
    </contour>
    <contour>
      <point x="186" y="581" type="line"/>
      <point x="186" y="542" type="line" smooth="yes"/>
      <point x="186" y="511"/>
      <point x="170" y="494"/>
      <point x="142" y="494" type="curve" smooth="yes"/>
      <point x="116" y="494"/>
      <point x="103" y="508"/>
      <point x="103" y="537" type="curve" smooth="yes"/>
      <point x="103" y="567"/>
      <point x="119" y="581"/>
      <point x="153" y="581" type="curve" smooth="yes"/>
    </contour>
  </outline>
</glyph>
<glyph name="registered" format="2">
  <advance width="483"/>
  <unicode hex="00AE"/>
  <outline>
    <contour>
      <point x="242" y="314" type="curve" smooth="yes"/>
      <point x="352.156" y="314"/>
      <point x="422" y="390.441"/>
      <point x="422" y="511" type="curve" smooth="yes"/>
      <point x="422" y="631"/>
      <point x="352.769" y="706"/>
      <point x="242" y="706" type="curve" smooth="yes"/>
      <point x="131.962" y="706"/>
      <point x="61" y="629.549"/>
      <point x="61" y="511" type="curve" smooth="yes"/>
      <point x="61" y="390.965"/>
      <point x="131.714" y="314"/>
    </contour>
    <contour>
      <point x="242" y="347" type="curve" smooth="yes"/>
      <point x="150.024" y="347"/>
      <point x="97" y="406.972"/>
      <point x="97" y="511" type="curve" smooth="yes"/>
      <point x="97" y="612.393"/>
      <point x="151.247" y="673"/>
      <point x="242" y="673" type="curve" smooth="yes"/>
      <point x="331.704" y="673"/>
      <point x="386" y="611.917"/>
      <point x="386" y="511" type="curve" smooth="yes"/>
      <point x="386" y="408.699"/>
      <point x="331.825" y="347"/>
    </contour>
    <contour>
      <point x="183" y="403" type="line"/>
      <point x="220" y="403" type="line"/>
      <point x="220" y="493" type="line"/>
      <point x="245" y="493" type="line"/>
      <point x="276" y="403" type="line"/>
      <point x="316" y="403" type="line"/>
      <point x="281" y="501" type="line"/>
      <point x="300.333" y="511.667"/>
      <point x="310" y="530.333"/>
      <point x="310" y="557" type="curve" smooth="yes"/>
      <point x="310" y="599.667"/>
      <point x="289" y="621"/>
      <point x="247" y="621" type="curve" smooth="yes"/>
      <point x="183" y="621" type="line"/>
    </contour>
    <contour>
      <point x="220" y="526" type="line"/>
      <point x="220" y="588" type="line"/>
      <point x="244" y="588" type="line" smooth="yes"/>
      <point x="264.978" y="588"/>
      <point x="273" y="579.701"/>
      <point x="273" y="558" type="curve" smooth="yes"/>
      <point x="273" y="534.897"/>
      <point x="264.938" y="526"/>
      <point x="244" y="526" type="curve" smooth="yes"/>
    </contour>
  </outline>
</glyph>
<glyph name="plusminus" format="2">
  <advance width="430"/>
  <unicode hex="00B1"/>
  <outline>
    <contour>
      <point x="41" y="290" type="line"/>
      <point x="182" y="290" type="line"/>
      <point x="182" y="150" type="line"/>
      <point x="249" y="150" type="line"/>
      <point x="249" y="290" type="line"/>
      <point x="390" y="290" type="line"/>
      <point x="390" y="357" type="line"/>
      <point x="249" y="357" type="line"/>
      <point x="249" y="498" type="line"/>
      <point x="182" y="498" type="line"/>
      <point x="182" y="357" type="line"/>
      <point x="41" y="357" type="line"/>
    </contour>
    <contour>
      <point x="41" y="25" type="line"/>
      <point x="390" y="25" type="line"/>
      <point x="390" y="92" type="line"/>
      <point x="41" y="92" type="line"/>
    </contour>
  </outline>
</glyph>
<glyph name="acute" format="2">
  <advance width="513"/>
  <unicode hex="00B4"/>
  <outline>
    <contour>
      <point x="180" y="590" type="line"/>
      <point x="238" y="590" type="line"/>
      <point x="349" y="722" type="line"/>
      <point x="273" y="722" type="line"/>
    </contour>
  </outline>
</glyph>
<glyph name="mu" format="2">
  <advance width="422"/>
  <unicode hex="00B5"/>
  <outline>
    <contour>
      <point x="60" y="-158" type="line"/>
      <point x="130" y="-158" type="line"/>
      <point x="130" y="18" type="line"/>
      <point x="147.333" y="0.667"/>
      <point x="170.333" y="-8"/>
      <point x="199" y="-8" type="curve" smooth="yes"/>
      <point x="241.333" y="-8"/>
      <point x="277.045" y="12.617"/>
      <point x="296" y="48" type="curve"/>
      <point x="296" y="0" type="line"/>
      <point x="362" y="0" type="line"/>
      <point x="362" y="529" type="line"/>
      <point x="293" y="529" type="line"/>
      <point x="293" y="147" type="line" smooth="yes"/>
      <point x="293" y="90.154"/>
      <point x="260.589" y="53"/>
      <point x="211" y="53" type="curve" smooth="yes"/>
      <point x="159.582" y="53"/>
      <point x="129" y="88.057"/>
      <point x="129" y="147" type="curve" smooth="yes"/>
      <point x="129" y="529" type="line"/>
      <point x="60" y="529" type="line"/>
    </contour>
  </outline>
</glyph>
<glyph name="paragraph" format="2">
  <advance width="532"/>
  <unicode hex="00B6"/>
  <outline>
    <contour>
      <point x="231" y="-156" type="line"/>
      <point x="299" y="-156" type="line"/>
      <point x="299" y="640" type="line"/>
      <point x="373" y="640" type="line"/>
      <point x="373" y="-156" type="line"/>
      <point x="440" y="-156" type="line"/>
      <point x="440" y="707" type="line"/>
      <point x="264" y="707" type="line" smooth="yes"/>
      <point x="146.863" y="707"/>
      <point x="61" y="616.061"/>
      <point x="61" y="492" type="curve" smooth="yes"/>
      <point x="61" y="371.724"/>
      <point x="129.549" y="284.223"/>
      <point x="231" y="275" type="curve"/>
    </contour>
  </outline>
</glyph>
<glyph name="periodcentered" format="2">
  <advance width="163"/>
  <unicode hex="00B7"/>
  <anchor x="82" y="277" name="_dot"/>
  <outline>
    <contour>
      <point x="42" y="231" type="line"/>
      <point x="122" y="231" type="line"/>
      <point x="122" y="322" type="line"/>
      <point x="42" y="322" type="line"/>
    </contour>
  </outline>
</glyph>
<glyph name="ordmasculine" format="2">
  <advance width="302"/>
  <unicode hex="00BA"/>
  <outline>
    <contour>
      <point x="42" y="558" type="line" smooth="yes"/>
      <point x="42" y="476"/>
      <point x="78.667" y="435"/>
      <point x="152" y="435" type="curve" smooth="yes"/>
      <point x="225.382" y="435"/>
      <point x="260" y="474.426"/>
      <point x="260" y="558" type="curve" smooth="yes"/>
      <point x="260" y="644" type="line" smooth="yes"/>
      <point x="260" y="727.247"/>
      <point x="225.694" y="766"/>
      <point x="152" y="766" type="curve" smooth="yes"/>
      <point x="76.929" y="766"/>
      <point x="42" y="727.261"/>
      <point x="42" y="644" type="curve" smooth="yes"/>
    </contour>
    <contour>
      <point x="152" y="496" type="curve" smooth="yes"/>
      <point x="123.333" y="496"/>
      <point x="109" y="516.333"/>
      <point x="109" y="557" type="curve" smooth="yes"/>
      <point x="109" y="645" type="line" smooth="yes"/>
      <point x="109" y="686.333"/>
      <point x="123.333" y="707"/>
      <point x="152" y="707" type="curve" smooth="yes"/>
      <point x="179.778" y="707"/>
      <point x="194" y="686.006"/>
      <point x="194" y="645" type="curve" smooth="yes"/>
      <point x="194" y="557" type="line" smooth="yes"/>
      <point x="194" y="516.333"/>
      <point x="180" y="496"/>
    </contour>
  </outline>
</glyph>
<glyph name="onequarter" format="2">
  <advance width="650"/>
  <unicode hex="00BC"/>
  <outline>
    <contour>
      <point x="138" y="0" type="line"/>
      <point x="203" y="0" type="line"/>
      <point x="457" y="707" type="line"/>
      <point x="392" y="707" type="line"/>
    </contour>
    <contour>
      <point x="85" y="280" type="line"/>
      <point x="158" y="280" type="line"/>
      <point x="158" y="708" type="line"/>
      <point x="85" y="708" type="line"/>
      <point x="22" y="658" type="line"/>
      <point x="22" y="577" type="line"/>
      <point x="85" y="628" type="line"/>
    </contour>
    <contour>
      <point x="385" y="75" type="line"/>
      <point x="522" y="75" type="line"/>
      <point x="522" y="-1" type="line"/>
      <point x="593" y="-1" type="line"/>
      <point x="593" y="75" type="line"/>
      <point x="625" y="75" type="line"/>
      <point x="625" y="139" type="line"/>
      <point x="593" y="139" type="line"/>
      <point x="593" y="237" type="line"/>
      <point x="522" y="237" type="line"/>
      <point x="522" y="139" type="line"/>
      <point x="456" y="139" type="line"/>
      <point x="550" y="427" type="line"/>
      <point x="479" y="427" type="line"/>
      <point x="385" y="139" type="line"/>
    </contour>
  </outline>
</glyph>
<glyph name="questiondown" format="2">
  <advance width="371"/>
  <unicode hex="00BF"/>
  <outline>
    <contour>
      <point x="148" y="430" type="line"/>
      <point x="228" y="430" type="line"/>
      <point x="228" y="529" type="line"/>
      <point x="148" y="529" type="line"/>
    </contour>
    <contour>
      <point x="266" y="25" type="line"/>
      <point x="266" y="-67.051"/>
      <point x="244.984" y="-101"/>
      <point x="188" y="-101" type="curve" smooth="yes"/>
      <point x="138" y="-101"/>
      <point x="113" y="-67.667"/>
      <point x="113" y="-1" type="curve" smooth="yes"/>
      <point x="113" y="42.54"/>
      <point x="120.77" y="68.137"/>
      <point x="147" y="111" type="curve" smooth="yes"/>
      <point x="188" y="178" type="line" smooth="yes"/>
      <point x="219.153" y="228.908"/>
      <point x="226" y="250.892"/>
      <point x="226" y="300" type="curve" smooth="yes"/>
      <point x="226" y="340" type="line"/>
      <point x="152" y="340" type="line"/>
      <point x="152" y="304" type="line" smooth="yes"/>
      <point x="152" y="263.711"/>
      <point x="146.744" y="245.69"/>
      <point x="124" y="208" type="curve" smooth="yes"/>
      <point x="89" y="150" type="line" smooth="yes"/>
      <point x="49.842" y="85.11"/>
      <point x="38" y="50.047"/>
      <point x="38" y="-1" type="curve" smooth="yes"/>
      <point x="38" y="-107.348"/>
      <point x="92.841" y="-168"/>
      <point x="189" y="-168" type="curve" smooth="yes"/>
      <point x="289" y="-168"/>
      <point x="339.667" y="-103.667"/>
      <point x="341" y="25" type="curve"/>
    </contour>
  </outline>
</glyph>
<glyph name="AE" format="2">
  <advance width="704"/>
  <unicode hex="00C6"/>
  <anchor x="436" y="760" name="top"/>
  <outline>
    <contour>
      <point x="9" y="0" type="line"/>
      <point x="87" y="0" type="line"/>
      <point x="163" y="176" type="line"/>
      <point x="362" y="176" type="line"/>
      <point x="362" y="0" type="line"/>
      <point x="668" y="0" type="line"/>
      <point x="668" y="67" type="line"/>
      <point x="436" y="67" type="line"/>
      <point x="436" y="326" type="line"/>
      <point x="634" y="326" type="line"/>
      <point x="634" y="393" type="line"/>
      <point x="436" y="393" type="line"/>
      <point x="436" y="640" type="line"/>
      <point x="668" y="640" type="line"/>
      <point x="668" y="707" type="line"/>
      <point x="317" y="707" type="line"/>
    </contour>
    <contour>
      <point x="190" y="242" type="line"/>
      <point x="362" y="642" type="line"/>
      <point x="362" y="242" type="line"/>
    </contour>
  </outline>
</glyph>
<glyph name="Eth" format="2">
  <advance width="517"/>
  <unicode hex="00D0"/>
  <outline>
    <component base="D" xOffset="29"/>
    <contour>
      <point x="31" y="326" type="line"/>
      <point x="274" y="326" type="line"/>
      <point x="274" y="392" type="line"/>
      <point x="31" y="392" type="line"/>
    </contour>
  </outline>
</glyph>
<glyph name="Thorn" format="2">
  <advance width="450"/>
  <unicode hex="00DE"/>
  <outline>
    <contour>
      <point x="61" y="0" type="line"/>
      <point x="135" y="0" type="line"/>
      <point x="135" y="170" type="line"/>
      <point x="241" y="170" type="line" smooth="yes"/>
      <point x="362.333" y="170"/>
      <point x="423" y="237.333"/>
      <point x="423" y="372" type="curve" smooth="yes"/>
      <point x="423" y="510.556"/>
      <point x="363.414" y="578"/>
      <point x="241" y="578" type="curve" smooth="yes"/>
      <point x="135" y="578" type="line"/>
      <point x="135" y="707" type="line"/>
      <point x="61" y="707" type="line"/>
    </contour>
    <contour>
      <point x="135" y="236" type="line"/>
      <point x="135" y="511" type="line"/>
      <point x="237" y="511" type="line" smooth="yes"/>
      <point x="313.863" y="511"/>
      <point x="348" y="468.252"/>
      <point x="348" y="372" type="curve" smooth="yes"/>
      <point x="348" y="278.272"/>
      <point x="313.498" y="236"/>
      <point x="237" y="236" type="curve" smooth="yes"/>
    </contour>
  </outline>
</glyph>
<glyph name="germandbls" format="2">
  <advance width="422"/>
  <unicode hex="00DF"/>
  <outline>
    <contour>
      <point x="60" y="0" type="line"/>
      <point x="131" y="0" type="line"/>
      <point x="131" y="558" type="line" smooth="yes"/>
      <point x="131" y="620.667"/>
      <point x="159" y="652"/>
      <point x="215" y="652" type="curve" smooth="yes"/>
      <point x="270.03" y="652"/>
      <point x="296" y="620.259"/>
      <point x="296" y="553" type="curve" smooth="yes"/>
      <point x="296" y="475.497"/>
      <point x="279.063" y="447"/>
      <point x="233" y="447" type="curve" smooth="yes"/>
      <point x="212" y="447" type="line"/>
      <point x="212" y="385" type="line"/>
      <point x="233" y="385" type="line" smooth="yes"/>
      <point x="289.718" y="385"/>
      <point x="301" y="343.066"/>
      <point x="301" y="225" type="curve" smooth="yes"/>
      <point x="301" y="101.106"/>
      <point x="282.324" y="59"/>
      <point x="234" y="59" type="curve" smooth="yes"/>
      <point x="215" y="59" type="line"/>
      <point x="215" y="-4" type="line"/>
      <point x="243" y="-4" type="line" smooth="yes"/>
      <point x="350.95" y="-4"/>
      <point x="372" y="77.036"/>
      <point x="372" y="225" type="curve" smooth="yes"/>
      <point x="372" y="342.16"/>
      <point x="363.097" y="392.891"/>
      <point x="305" y="423" type="curve"/>
      <point x="351.989" y="448.508"/>
      <point x="367" y="481.194"/>
      <point x="367" y="558" type="curve" smooth="yes"/>
      <point x="367" y="655.466"/>
      <point x="309.148" y="716"/>
      <point x="216" y="716" type="curve" smooth="yes"/>
      <point x="109.529" y="716"/>
      <point x="60" y="658.534"/>
      <point x="60" y="535" type="curve" smooth="yes"/>
    </contour>
  </outline>
</glyph>
<glyph name="ae" format="2">
  <advance width="648"/>
  <unicode hex="00E6"/>
  <anchor x="319" y="590" name="top"/>
  <outline>
    <contour>
      <point x="54" y="390" type="line"/>
      <point x="120" y="390" type="line"/>
      <point x="120" y="398" type="line" smooth="yes"/>
      <point x="120" y="447.679"/>
      <point x="148.684" y="476"/>
      <point x="199" y="476" type="curve" smooth="yes"/>
      <point x="253.667" y="476"/>
      <point x="281" y="446.333"/>
      <point x="281" y="387" type="curve" smooth="yes"/>
      <point x="281" y="298" type="line"/>
      <point x="199" y="298" type="line" smooth="yes"/>
      <point x="98.139" y="298"/>
      <point x="41" y="243.392"/>
      <point x="41" y="147" type="curve" smooth="yes"/>
      <point x="41" y="48.448"/>
      <point x="93.806" y="-8"/>
      <point x="186" y="-8" type="curve" smooth="yes"/>
      <point x="241.288" y="-8"/>
      <point x="285.63" y="12.763"/>
      <point x="312" y="51" type="curve"/>
      <point x="340" y="11.667"/>
      <point x="383.333" y="-8"/>
      <point x="442" y="-8" type="curve" smooth="yes"/>
      <point x="541.693" y="-8"/>
      <point x="596" y="50.892"/>
      <point x="596" y="159" type="curve" smooth="yes"/>
      <point x="596" y="162" type="line"/>
      <point x="527" y="162" type="line"/>
      <point x="527" y="158" type="line" smooth="yes"/>
      <point x="527" y="87.914"/>
      <point x="498.201" y="52"/>
      <point x="442" y="52" type="curve" smooth="yes"/>
      <point x="379.385" y="52"/>
      <point x="350" y="93.203"/>
      <point x="350" y="181" type="curve" smooth="yes"/>
      <point x="350" y="245" type="line"/>
      <point x="597" y="245" type="line"/>
      <point x="597" y="351" type="line" smooth="yes"/>
      <point x="597" y="470.354"/>
      <point x="539.482" y="538"/>
      <point x="438" y="538" type="curve" smooth="yes"/>
      <point x="385.996" y="538"/>
      <point x="346.333" y="520.333"/>
      <point x="319" y="487" type="curve"/>
      <point x="294.333" y="521"/>
      <point x="254.333" y="538"/>
      <point x="199" y="538" type="curve" smooth="yes"/>
      <point x="109.796" y="538"/>
      <point x="54" y="484.513"/>
      <point x="54" y="399" type="curve" smooth="yes"/>
    </contour>
    <contour>
      <point x="350" y="298" type="line"/>
      <point x="350" y="419.183"/>
      <point x="359.657" y="475"/>
      <point x="439" y="475" type="curve" smooth="yes"/>
      <point x="499.366" y="475"/>
      <point x="527" y="436.061"/>
      <point x="527" y="351" type="curve" smooth="yes"/>
      <point x="527" y="298" type="line"/>
    </contour>
    <contour>
      <point x="281" y="246" type="line"/>
      <point x="281" y="153" type="line" smooth="yes"/>
      <point x="281" y="88.864"/>
      <point x="248.881" y="52"/>
      <point x="193" y="52" type="curve" smooth="yes"/>
      <point x="138.333" y="52"/>
      <point x="111" y="84"/>
      <point x="111" y="148" type="curve" smooth="yes"/>
      <point x="111" y="213.333"/>
      <point x="142.667" y="246"/>
      <point x="206" y="246" type="curve" smooth="yes"/>
    </contour>
  </outline>
</glyph>
<glyph name="thorn" format="2">
  <advance width="421"/>
  <unicode hex="00FE"/>
  <outline>
    <contour>
      <point x="60" y="-156" type="line"/>
      <point x="130" y="-156" type="line"/>
      <point x="130" y="48" type="line"/>
      <point x="152.667" y="10.667"/>
      <point x="186.333" y="-8"/>
      <point x="231" y="-8" type="curve" smooth="yes"/>
      <point x="320.185" y="-8"/>
      <point x="371" y="57.333"/>
      <point x="371" y="172" type="curve" smooth="yes"/>
      <point x="371" y="357" type="line" smooth="yes"/>
      <point x="371" y="472.248"/>
      <point x="319.779" y="538"/>
      <point x="230" y="538" type="curve"/>
      <point x="186.667" y="537.333"/>
      <point x="153.333" y="517.333"/>
      <point x="130" y="478" type="curve"/>
      <point x="130" y="707" type="line"/>
      <point x="60" y="707" type="line"/>
    </contour>
    <contour>
      <point x="218" y="54" type="curve" smooth="yes"/>
      <point x="160.704" y="54"/>
      <point x="130" y="97.614"/>
      <point x="130" y="179" type="curve" smooth="yes"/>
      <point x="130" y="348" type="line" smooth="yes"/>
      <point x="130" y="431.371"/>
      <point x="160.231" y="475"/>
      <point x="218" y="475" type="curve" smooth="yes"/>
      <point x="273.333" y="475"/>
      <point x="301" y="433"/>
      <point x="301" y="349" type="curve" smooth="yes"/>
      <point x="301" y="180" type="line" smooth="yes"/>
      <point x="301" y="96.334"/>
      <point x="273.113" y="54"/>
    </contour>
  </outline>
</glyph>
<glyph name="gcommaaccent" format="2">
  <advance width="421"/>
  <unicode hex="0123"/>
  <outline>
    <component base="g"/>
    <contour>
      <point x="168" y="574" type="line"/>
      <point x="234" y="574" type="line"/>
      <point x="234" y="707" type="line"/>
      <point x="168" y="651" type="line"/>
    </contour>
  </outline>
</glyph>
<glyph name="Lslash" format="2">
  <advance width="400"/>
  <unicode hex="0141"/>
  <outline>
    <component base="L"/>
    <contour>
      <point x="22.5" y="350" type="line"/>
      <point x="209" y="420" type="line"/>
      <point x="209" y="478" type="line"/>
      <point x="22.5" y="408" type="line"/>
    </contour>
  </outline>
</glyph>
<glyph name="eng" format="2">
  <advance width="425"/>
  <unicode hex="014B"/>
  <outline>
    <contour>
      <point x="60" y="0" type="line"/>
      <point x="130" y="0" type="line"/>
      <point x="130" y="380" type="line" smooth="yes"/>
      <point x="130" y="438.279"/>
      <point x="162.083" y="475"/>
      <point x="213" y="475" type="curve" smooth="yes"/>
      <point x="266.083" y="475"/>
      <point x="296" y="440.758"/>
      <point x="296" y="380" type="curve" smooth="yes"/>
      <point x="296" y="-30" type="line" smooth="yes"/>
      <point x="296" y="-83.294"/>
      <point x="271.667" y="-111"/>
      <point x="222" y="-111" type="curve" smooth="yes"/>
      <point x="207" y="-111" type="line"/>
      <point x="207" y="-173" type="line"/>
      <point x="224" y="-173" type="line" smooth="yes"/>
      <point x="315.675" y="-173"/>
      <point x="366" y="-123.384"/>
      <point x="366" y="-33" type="curve" smooth="yes"/>
      <point x="366" y="383" type="line" smooth="yes"/>
      <point x="366" y="480.533"/>
      <point x="316.319" y="538"/>
      <point x="232" y="538" type="curve" smooth="yes"/>
      <point x="187.57" y="538"/>
      <point x="149.14" y="516.938"/>
      <point x="128" y="481" type="curve"/>
      <point x="128" y="529" type="line"/>
      <point x="60" y="529" type="line"/>
    </contour>
  </outline>
</glyph>
<glyph name="OE" format="2">
  <advance width="699"/>
  <unicode hex="0152"/>
  <outline>
    <contour>
      <point x="369" y="0" type="line"/>
      <point x="663" y="0" type="line"/>
      <point x="663" y="67" type="line"/>
      <point x="435" y="67" type="line"/>
      <point x="436" y="326" type="line"/>
      <point x="629" y="326" type="line"/>
      <point x="629" y="393" type="line"/>
      <point x="436" y="393" type="line"/>
      <point x="435" y="640" type="line"/>
      <point x="663" y="640" type="line"/>
      <point x="663" y="707" type="line"/>
      <point x="369" y="707" type="line"/>
      <point x="369" y="668" type="line"/>
      <point x="337" y="700.667"/>
      <point x="293.667" y="717"/>
      <point x="239" y="717" type="curve" smooth="yes"/>
      <point x="118.802" y="717"/>
      <point x="53" y="640.939"/>
      <point x="53" y="502" type="curve" smooth="yes"/>
      <point x="53" y="206" type="line" smooth="yes"/>
      <point x="53" y="68.036"/>
      <point x="119.087" y="-8"/>
      <point x="239" y="-8" type="curve" smooth="yes"/>
      <point x="294.333" y="-8"/>
      <point x="337.667" y="9"/>
      <point x="369" y="43" type="curve"/>
    </contour>
    <contour>
      <point x="246" y="59" type="curve" smooth="yes"/>
      <point x="167.331" y="59"/>
      <point x="128" y="108.333"/>
      <point x="128" y="205" type="curve" smooth="yes"/>
      <point x="128" y="495" type="line" smooth="yes"/>
      <point x="128" y="598.333"/>
      <point x="166.823" y="649"/>
      <point x="246" y="649" type="curve" smooth="yes"/>
      <point x="322.165" y="649"/>
      <point x="361" y="596.994"/>
      <point x="361" y="495" type="curve" smooth="yes"/>
      <point x="361" y="205" type="line" smooth="yes"/>
      <point x="361" y="109.783"/>
      <point x="321" y="59"/>
    </contour>
  </outline>
</glyph>
<glyph name="rcommaaccent" format="2">
  <advance width="296"/>
  <unicode hex="0157"/>
  <outline>
    <contour>
      <point x="60" y="0" type="line"/>
      <point x="130" y="0" type="line"/>
      <point x="130" y="376" type="line" smooth="yes"/>
      <point x="130" y="435.846"/>
      <point x="167.572" y="475"/>
      <point x="225" y="475" type="curve" smooth="yes"/>
      <point x="240.333" y="475"/>
      <point x="257.333" y="472"/>
      <point x="276" y="466" type="curve"/>
      <point x="276" y="534" type="line"/>
      <point x="266" y="536.667"/>
      <point x="253.667" y="538"/>
      <point x="239" y="538" type="curve" smooth="yes"/>
      <point x="188.727" y="538"/>
      <point x="149.686" y="516.545"/>
      <point x="128" y="477" type="curve"/>
      <point x="128" y="529" type="line"/>
      <point x="60" y="529" type="line"/>
    </contour>
    <contour>
      <point x="63" y="-173" type="line"/>
      <point x="129" y="-117" type="line"/>
      <point x="129" y="-40" type="line"/>
      <point x="63" y="-40" type="line"/>
    </contour>
  </outline>
</glyph>
<glyph name="tcaron" format="2">
  <advance width="302"/>
  <unicode hex="0165"/>
  <outline>
    <component base="t"/>
    <contour>
      <point x="227" y="562" type="line"/>
      <point x="293" y="618" type="line"/>
      <point x="293" y="707" type="line"/>
      <point x="227" y="707" type="line"/>
    </contour>
  </outline>
</glyph>
<glyph name="longs" format="2">
  <advance width="251"/>
  <unicode hex="017F"/>
  <anchor x="108" y="760" name="top"/>
  <outline>
    <contour>
      <point x="60" y="0" type="line"/>
      <point x="130" y="0" type="line"/>
      <point x="130" y="475" type="line"/>
      <point x="221" y="475" type="line"/>
      <point x="221" y="529" type="line"/>
      <point x="130" y="529" type="line"/>
      <point x="130" y="578" type="line" smooth="yes"/>
      <point x="130" y="629.218"/>
      <point x="151.185" y="651"/>
      <point x="201" y="651" type="curve" smooth="yes"/>
      <point x="221" y="651" type="line"/>
      <point x="221" y="707" type="line"/>
      <point x="195" y="707" type="line" smooth="yes"/>
      <point x="106.971" y="707"/>
      <point x="60" y="658.637"/>
      <point x="60" y="568" type="curve" smooth="yes"/>
    </contour>
  </outline>
</glyph>
<glyph name="Ocenteredtilde" format="2">
  <advance width="489"/>
  <unicode hex="019F"/>
  <outline>
    <component base="O"/>
    <contour>
      <point x="111" y="323" type="line"/>
      <point x="393" y="323" type="line"/>
      <point x="393" y="389" type="line"/>
      <point x="111" y="389" type="line"/>
    </contour>
  </outline>
</glyph>
<glyph name="dotlessj" format="2">
  <advance width="199"/>
  <unicode hex="0237"/>
  <anchor x="98" y="590" name="top"/>
  <outline>
    <contour>
      <point x="-26" y="-156" type="line"/>
      <point x="-8" y="-156" type="line" smooth="yes"/>
      <point x="83.333" y="-156"/>
      <point x="133" y="-106.333"/>
      <point x="133" y="-15" type="curve" smooth="yes"/>
      <point x="133" y="529" type="line"/>
      <point x="62" y="529" type="line"/>
      <point x="62" y="-12" type="line" smooth="yes"/>
      <point x="62" y="-66.004"/>
      <point x="38.667" y="-93"/>
      <point x="-10" y="-93" type="curve" smooth="yes"/>
      <point x="-26" y="-93" type="line"/>
    </contour>
  </outline>
</glyph>
<glyph name="circumflex" format="2">
  <advance width="513"/>
  <unicode hex="02C6"/>
  <outline>
    <contour>
      <point x="123" y="582" type="line"/>
      <point x="191" y="582" type="line"/>
      <point x="257" y="674" type="line"/>
      <point x="322" y="582" type="line"/>
      <point x="390" y="582" type="line"/>
      <point x="288" y="728" type="line"/>
      <point x="222" y="728" type="line"/>
    </contour>
  </outline>
</glyph>
<glyph name="caron" format="2">
  <advance width="532"/>
  <unicode hex="02C7"/>
  <outline>
    <contour>
      <point x="232" y="590" type="line"/>
      <point x="298" y="590" type="line"/>
      <point x="400" y="736" type="line"/>
      <point x="332" y="736" type="line"/>
      <point x="267" y="644" type="line"/>
      <point x="202" y="736" type="line"/>
      <point x="133" y="736" type="line"/>
    </contour>
  </outline>
</glyph>
<glyph name="ring" format="2">
  <advance width="524"/>
  <unicode hex="02DA"/>
  <outline>
    <contour>
      <point x="261" y="569" type="curve" smooth="yes"/>
      <point x="313.952" y="569"/>
      <point x="353" y="607.623"/>
      <point x="353" y="660" type="curve" smooth="yes"/>
      <point x="353" y="712.667"/>
      <point x="313.667" y="752"/>
      <point x="261" y="752" type="curve" smooth="yes"/>
      <point x="209.565" y="752"/>
      <point x="171" y="712.578"/>
      <point x="171" y="660" type="curve" smooth="yes"/>
      <point x="171" y="609.006"/>
      <point x="210.566" y="569"/>
    </contour>
    <contour>
      <point x="261" y="609" type="curve" smooth="yes"/>
      <point x="232.268" y="609"/>
      <point x="212" y="630.095"/>
      <point x="212" y="660" type="curve" smooth="yes"/>
      <point x="212" y="691.197"/>
      <point x="232.157" y="713"/>
      <point x="261" y="713" type="curve" smooth="yes"/>
      <point x="290.799" y="713"/>
      <point x="311" y="691.587"/>
      <point x="311" y="660" type="curve" smooth="yes"/>
      <point x="311" y="629.659"/>
      <point x="290.746" y="609"/>
    </contour>
  </outline>
</glyph>
<glyph name="ogonek" format="2">
  <advance width="232"/>
  <unicode hex="02DB"/>
  <outline>
    <contour>
      <point x="60" y="-56" type="line"/>
      <point x="76.458" y="-157.491"/>
      <point x="116.789" y="-215.466"/>
      <point x="172" y="-217" type="curve"/>
      <point x="172" y="-132" type="line"/>
      <point x="143.8" y="-129.65"/>
      <point x="120.185" y="-110.463"/>
      <point x="108" y="-80" type="curve"/>
      <point x="172" y="0" type="line"/>
      <point x="172" y="16" type="line"/>
      <point x="142" y="16" type="line"/>
    </contour>
  </outline>
</glyph>
<glyph name="tilde" format="2">
  <advance width="513"/>
  <unicode hex="02DC"/>
  <outline>
    <contour>
      <point x="146" y="583" type="line"/>
      <point x="171.818" y="612.895"/>
      <point x="186.06" y="622"/>
      <point x="207" y="622" type="curve" smooth="yes"/>
      <point x="238.036" y="622"/>
      <point x="258.252" y="586"/>
      <point x="304" y="586" type="curve" smooth="yes"/>
      <point x="329.467" y="586"/>
      <point x="344.612" y="594.414"/>
      <point x="367" y="621" type="curve"/>
      <point x="367" y="692" type="line"/>
      <point x="338.282" y="660.41"/>
      <point x="328.667" y="654"/>
      <point x="310" y="654" type="curve" smooth="yes"/>
      <point x="271.822" y="654"/>
      <point x="252.675" y="691"/>
      <point x="210" y="691" type="curve" smooth="yes"/>
      <point x="186.171" y="691"/>
      <point x="171.618" y="683.041"/>
      <point x="146" y="656" type="curve"/>
    </contour>
  </outline>
</glyph>
<glyph name="uni0300" format="2">
  <unicode hex="0300"/>
  <anchor x="0" y="590" name="_top"/>
  <outline>
    <contour>
      <point x="-13" y="590" type="line"/>
      <point x="45" y="590" type="line"/>
      <point x="-48" y="722" type="line"/>
      <point x="-124" y="722" type="line"/>
    </contour>
  </outline>
</glyph>
<glyph name="uni0301" format="2">
  <unicode hex="0301"/>
  <anchor x="0" y="590" name="_top"/>
  <outline>
    <contour>
      <point x="-66.5" y="590" type="line"/>
      <point x="-8.5" y="590" type="line"/>
      <point x="102.5" y="722" type="line"/>
      <point x="26.5" y="722" type="line"/>
    </contour>
  </outline>
</glyph>
<glyph name="uni0302" format="2">
  <unicode hex="0302"/>
  <anchor x="0" y="590" name="_top"/>
  <outline>
    <contour>
      <point x="-133.5" y="582" type="line"/>
      <point x="-65.5" y="582" type="line"/>
      <point x="0.5" y="674" type="line"/>
      <point x="65.5" y="582" type="line"/>
      <point x="133.5" y="582" type="line"/>
      <point x="31.5" y="728" type="line"/>
      <point x="-34.5" y="728" type="line"/>
    </contour>
  </outline>
</glyph>
<glyph name="uni0303" format="2">
  <unicode hex="0303"/>
  <anchor x="0" y="590" name="_top"/>
  <outline>
    <contour>
      <point x="-110.5" y="583" type="line"/>
      <point x="-84.682" y="612.895"/>
      <point x="-70.44" y="622"/>
      <point x="-49.5" y="622" type="curve" smooth="yes"/>
      <point x="-18.464" y="622"/>
      <point x="1.752" y="586"/>
      <point x="47.5" y="586" type="curve" smooth="yes"/>
      <point x="72.967" y="586"/>
      <point x="88.112" y="594.414"/>
      <point x="110.5" y="621" type="curve"/>
      <point x="110.5" y="692" type="line"/>
      <point x="81.782" y="660.41"/>
      <point x="72.167" y="654"/>
      <point x="53.5" y="654" type="curve" smooth="yes"/>
      <point x="15.322" y="654"/>
      <point x="-3.825" y="691"/>
      <point x="-46.5" y="691" type="curve" smooth="yes"/>
      <point x="-70.329" y="691"/>
      <point x="-84.882" y="683.041"/>
      <point x="-110.5" y="656" type="curve"/>
    </contour>
  </outline>
</glyph>
<glyph name="uni0307" format="2">
  <unicode hex="0307"/>
  <anchor x="0" y="590" name="_top"/>
  <outline>
    <contour>
      <point x="-35.5" y="609" type="line"/>
      <point x="35.5" y="609" type="line"/>
      <point x="35.5" y="701" type="line"/>
      <point x="-35.5" y="701" type="line"/>
    </contour>
  </outline>
</glyph>
<glyph name="uni030A" format="2">
  <unicode hex="030A"/>
  <anchor x="0" y="569" name="_t.ring"/>
  <outline>
    <contour>
      <point x="-1" y="569" type="curve" smooth="yes"/>
      <point x="51.952" y="569"/>
      <point x="91" y="607.623"/>
      <point x="91" y="660" type="curve" smooth="yes"/>
      <point x="91" y="712.667"/>
      <point x="51.667" y="752"/>
      <point x="-1" y="752" type="curve" smooth="yes"/>
      <point x="-52.435" y="752"/>
      <point x="-91" y="712.578"/>
      <point x="-91" y="660" type="curve" smooth="yes"/>
      <point x="-91" y="609.006"/>
      <point x="-51.434" y="569"/>
    </contour>
    <contour>
      <point x="-1" y="609" type="curve" smooth="yes"/>
      <point x="-29.732" y="609"/>
      <point x="-50" y="630.095"/>
      <point x="-50" y="660" type="curve" smooth="yes"/>
      <point x="-50" y="691.197"/>
      <point x="-29.843" y="713"/>
      <point x="-1" y="713" type="curve" smooth="yes"/>
      <point x="28.799" y="713"/>
      <point x="49" y="691.587"/>
      <point x="49" y="660" type="curve" smooth="yes"/>
      <point x="49" y="629.659"/>
      <point x="28.746" y="609"/>
    </contour>
  </outline>
</glyph>
<glyph name="uni030F" format="2">
  <unicode hex="030F"/>
  <anchor x="0" y="589" name="_top"/>
  <outline>
    <contour>
      <point x="-59.8541" y="590" type="line"/>
      <point x="-1.8541" y="590" type="line"/>
      <point x="-94.8541" y="722" type="line"/>
      <point x="-170.854" y="722" type="line"/>
    </contour>
    <contour>
      <point x="86.397" y="590" type="line"/>
      <point x="144.397" y="590" type="line"/>
      <point x="51.397" y="722" type="line"/>
      <point x="-24.603" y="722" type="line"/>
    </contour>
  </outline>
</glyph>
<glyph name="uni0326" format="2">
  <unicode hex="0326"/>
  <anchor x="0" y="-40" name="_bottom"/>
  <outline>
    <contour>
      <point x="-33" y="-173" type="line"/>
      <point x="33" y="-117" type="line"/>
      <point x="33" y="-40" type="line"/>
      <point x="-33" y="-40" type="line"/>
    </contour>
  </outline>
</glyph>
<glyph name="alpha" format="2">
  <advance width="506"/>
  <unicode hex="03B1"/>
  <outline>
    <contour>
      <point x="455" y="75" type="line"/>
      <point x="406.966" y="77.001"/>
      <point x="370" y="126.145"/>
      <point x="370" y="188" type="curve" smooth="yes"/>
      <point x="370" y="341" type="line" smooth="yes"/>
      <point x="370" y="404.115"/>
      <point x="405.988" y="451.958"/>
      <point x="455" y="454" type="curve"/>
      <point x="455" y="516" type="line"/>
      <point x="407.91" y="516"/>
      <point x="378.295" y="502.295"/>
      <point x="345" y="469" type="curve"/>
      <point x="320.34" y="513.389"/>
      <point x="272.543" y="538"/>
      <point x="211" y="538" type="curve" smooth="yes"/>
      <point x="105.728" y="538"/>
      <point x="51" y="476.089"/>
      <point x="51" y="357" type="curve" smooth="yes"/>
      <point x="51" y="172" type="line" smooth="yes"/>
      <point x="51" y="53.806"/>
      <point x="105.938" y="-8"/>
      <point x="211" y="-8" type="curve" smooth="yes"/>
      <point x="272.543" y="-8"/>
      <point x="320.34" y="16.611"/>
      <point x="345" y="61" type="curve"/>
      <point x="380.127" y="25.873"/>
      <point x="407.915" y="14"/>
      <point x="455" y="14" type="curve"/>
    </contour>
    <contour>
      <point x="210" y="54" type="curve" smooth="yes"/>
      <point x="150.354" y="54"/>
      <point x="121" y="95.557"/>
      <point x="121" y="180" type="curve" smooth="yes"/>
      <point x="121" y="349" type="line" smooth="yes"/>
      <point x="121" y="434.769"/>
      <point x="149.417" y="475"/>
      <point x="210" y="475" type="curve" smooth="yes"/>
      <point x="269.8" y="475"/>
      <point x="298" y="434.623"/>
      <point x="298" y="349" type="curve" smooth="yes"/>
      <point x="298" y="180" type="line" smooth="yes"/>
      <point x="298" y="95.315"/>
      <point x="269.145" y="54"/>
    </contour>
  </outline>
</glyph>
<glyph name="Eukrcyr" format="2">
  <advance width="489"/>
  <unicode hex="0404"/>
  <anchor x="245" y="760" name="top"/>
  <outline>
    <contour>
      <point x="361" y="206" type="line"/>
      <point x="361" y="197" type="line" smooth="yes"/>
      <point x="361" y="107.561"/>
      <point x="320.884" y="59"/>
      <point x="247" y="59" type="curve" smooth="yes"/>
      <point x="167.664" y="59"/>
      <point x="128" y="108.333"/>
      <point x="128" y="205" type="curve" smooth="yes"/>
      <point x="128" y="494" type="line" smooth="yes"/>
      <point x="128" y="597.569"/>
      <point x="166.97" y="648"/>
      <point x="247" y="648" type="curve" smooth="yes"/>
      <point x="321.295" y="648"/>
      <point x="361" y="599.24"/>
      <point x="361" y="508" type="curve" smooth="yes"/>
      <point x="361" y="501" type="line"/>
      <point x="436" y="501" type="line"/>
      <point x="436" y="510" type="line" smooth="yes"/>
      <point x="436" y="639.382"/>
      <point x="365.333" y="716"/>
      <point x="246" y="716" type="curve" smooth="yes"/>
      <point x="123.367" y="716"/>
      <point x="53" y="637.611"/>
      <point x="53" y="501" type="curve" smooth="yes"/>
      <point x="53" y="206" type="line" smooth="yes"/>
      <point x="53" y="71.549"/>
      <point x="125.115" y="-8"/>
      <point x="247" y="-8" type="curve" smooth="yes"/>
      <point x="364.667" y="-8"/>
      <point x="434" y="67.636"/>
      <point x="434" y="196" type="curve" smooth="yes"/>
      <point x="434" y="206" type="line"/>
    </contour>
    <contour>
      <point x="334.711" y="327" type="line"/>
      <point x="76.991" y="327" type="line"/>
      <point x="76.991" y="393" type="line"/>
      <point x="334.711" y="393" type="line"/>
    </contour>
  </outline>
</glyph>
<glyph name="Zhecyr" format="2">
  <advance width="755"/>
  <unicode hex="0416"/>
  <outline>
    <contour>
      <point x="394.64" y="327.102" type="line"/>
      <point x="520.313" y="327.099" type="line"/>
      <point x="520.71" y="392.866" type="line"/>
      <point x="394.64" y="392.866" type="line"/>
    </contour>
    <contour>
      <point x="340" y="0" type="line"/>
      <point x="415" y="0" type="line"/>
      <point x="415" y="707" type="line"/>
      <point x="340" y="707" type="line"/>
    </contour>
    <contour>
      <point x="663" y="0" type="line"/>
      <point x="745" y="0" type="line"/>
      <point x="531.48" y="392.866" type="line"/>
      <point x="478.232" y="335.112" type="line"/>
    </contour>
    <contour>
      <point x="477.966" y="340.571" type="line"/>
      <point x="536.097" y="340.571" type="line"/>
      <point x="720" y="707" type="line"/>
      <point x="641" y="707" type="line"/>
      <point x="478" y="369.948" type="line"/>
    </contour>
    <contour>
      <point x="234.687" y="327.099" type="line"/>
      <point x="360.36" y="327.102" type="line"/>
      <point x="360.36" y="392.866" type="line"/>
      <point x="234.29" y="392.866" type="line"/>
    </contour>
    <contour>
      <point x="340" y="0" type="line"/>
      <point x="415" y="0" type="line"/>
      <point x="415" y="707" type="line"/>
      <point x="340" y="707" type="line"/>
    </contour>
    <contour>
      <point x="10" y="0" type="line"/>
      <point x="92" y="0" type="line"/>
      <point x="276.768" y="335.112" type="line"/>
      <point x="223.52" y="392.866" type="line"/>
    </contour>
    <contour>
      <point x="218.903" y="340.571" type="line"/>
      <point x="277.034" y="340.571" type="line"/>
      <point x="277" y="369.948" type="line"/>
      <point x="114" y="707" type="line"/>
      <point x="35" y="707" type="line"/>
    </contour>
  </outline>
</glyph>
<glyph name="Elcyr" format="2">
  <advance width="520"/>
  <unicode hex="041B"/>
  <outline>
    <contour>
      <point x="383.375" y="0" type="line"/>
      <point x="458.375" y="0" type="line"/>
      <point x="458.375" y="707.034" type="line"/>
      <point x="383.375" y="707" type="line"/>
    </contour>
    <contour>
      <point x="20.243" y="0" type="line"/>
      <point x="130.044" y="0"/>
      <point x="166.752" y="58.879"/>
      <point x="174.013" y="161.889" type="curve" smooth="yes"/>
      <point x="212.439" y="707.034" type="line"/>
      <point x="137.439" y="707" type="line"/>
      <point x="93.386" y="157.466" type="line" smooth="yes"/>
      <point x="88.691" y="98.894"/>
      <point x="65.091" y="67.002"/>
      <point x="20.496" y="67.002" type="curve"/>
    </contour>
    <contour>
      <point x="173.166" y="639.607" type="line"/>
      <point x="403.346" y="639.607" type="line"/>
      <point x="403.346" y="706.607" type="line"/>
      <point x="173.166" y="706.607" type="line"/>
    </contour>
  </outline>
</glyph>
<glyph name="Ucyr" format="2">
  <advance width="401"/>
  <unicode hex="0423"/>
  <anchor x="200" y="760" name="top"/>
  <outline>
    <contour>
      <point x="78.017" y="0" type="line"/>
      <point x="84.68" y="0" type="line" smooth="yes"/>
      <point x="144.663" y="0"/>
      <point x="199.611" y="43.707"/>
      <point x="220" y="114" type="curve" smooth="yes"/>
      <point x="392" y="707" type="line"/>
      <point x="310" y="707" type="line"/>
      <point x="188.371" y="248.836" type="line"/>
      <point x="195.371" y="262.836" type="line"/>
      <point x="149" y="129" type="line" smooth="yes"/>
      <point x="136.607" y="93.232"/>
      <point x="110.98" y="72"/>
      <point x="85.68" y="72" type="curve" smooth="yes"/>
      <point x="78.017" y="72" type="line"/>
    </contour>
    <contour>
      <point x="171.28" y="119.629" type="line"/>
      <point x="215.28" y="218.629" type="line"/>
      <point x="91" y="707" type="line"/>
      <point x="9" y="707" type="line"/>
    </contour>
  </outline>
</glyph>
<glyph name="Shacyr" format="2">
  <advance width="816"/>
  <unicode hex="0428"/>
  <anchor x="677" y="695" name="top"/>
  <outline>
    <contour>
      <point x="61" y="0" type="line"/>
      <point x="137" y="0" type="line"/>
      <point x="137" y="707" type="line"/>
      <point x="61" y="707" type="line"/>
    </contour>
    <contour>
      <point x="370.438" y="0" type="line"/>
      <point x="446.438" y="0" type="line"/>
      <point x="446.438" y="707" type="line"/>
      <point x="370.438" y="707" type="line"/>
    </contour>
    <contour>
      <point x="678.462" y="0" type="line"/>
      <point x="754.462" y="0" type="line"/>
      <point x="754.462" y="707" type="line"/>
      <point x="678.462" y="707" type="line"/>
    </contour>
    <contour>
      <point x="106.166" y="0" type="line"/>
      <point x="735.28" y="0" type="line"/>
      <point x="735.28" y="67" type="line"/>
      <point x="106.166" y="67" type="line"/>
    </contour>
  </outline>
</glyph>
<glyph name="Ereversedcyr" format="2">
  <advance width="489"/>
  <unicode hex="042D"/>
  <anchor x="242" y="760" name="top"/>
  <outline>
    <component base="C" xScale="-1" xOffset="489"/>
    <contour>
      <point x="154.289" y="327" type="line"/>
      <point x="412.009" y="327" type="line"/>
      <point x="412.009" y="393" type="line"/>
      <point x="154.289" y="393" type="line"/>
    </contour>
  </outline>
</glyph>
<glyph name="vecyr" format="2">
  <advance width="423"/>
  <unicode hex="0432"/>
  <outline>
    <contour>
      <point x="109" y="0" type="line"/>
      <point x="203" y="0" type="line" smooth="yes"/>
      <point x="304.503" y="0"/>
      <point x="364" y="55.062"/>
      <point x="364" y="149" type="curve" smooth="yes"/>
      <point x="364" y="223.973"/>
      <point x="342.832" y="266.923"/>
      <point x="295" y="289" type="curve"/>
      <point x="295" y="292" type="line"/>
      <point x="329.409" y="314.93"/>
      <point x="344" y="346.297"/>
      <point x="344" y="400.27" type="curve" smooth="yes"/>
      <point x="344" y="477.716"/>
      <point x="294.202" y="529"/>
      <point x="219" y="529" type="curve" smooth="yes"/>
      <point x="109" y="529" type="line"/>
      <point x="109" y="466" type="line"/>
      <point x="198" y="466" type="line" smooth="yes"/>
      <point x="246.759" y="466"/>
      <point x="275" y="437.759"/>
      <point x="275" y="389" type="curve" smooth="yes"/>
      <point x="275" y="345.169"/>
      <point x="239.667" y="308"/>
      <point x="198" y="308" type="curve" smooth="yes"/>
      <point x="109" y="308" type="line"/>
      <point x="109" y="255" type="line"/>
      <point x="218" y="255" type="line" smooth="yes"/>
      <point x="264.231" y="255"/>
      <point x="295" y="218.237"/>
      <point x="295" y="163" type="curve" smooth="yes"/>
      <point x="295" y="103.727"/>
      <point x="263.64" y="63"/>
      <point x="218" y="63" type="curve" smooth="yes"/>
      <point x="109" y="63" type="line"/>
    </contour>
    <contour>
      <point x="60" y="0" type="line"/>
      <point x="129" y="0" type="line"/>
      <point x="129" y="529" type="line"/>
      <point x="60" y="529" type="line"/>
    </contour>
  </outline>
</glyph>
<glyph name="gecyr" format="2">
  <advance width="350"/>
  <unicode hex="0433"/>
  <anchor x="234" y="590" name="top"/>
  <outline>
    <contour>
      <point x="330" y="466" type="line"/>
      <point x="330" y="529" type="line"/>
      <point x="60" y="529" type="line"/>
      <point x="60" y="465.996" type="line"/>
    </contour>
    <contour>
      <point x="60" y="0" type="line"/>
      <point x="130" y="0" type="line"/>
      <point x="130" y="529" type="line"/>
      <point x="60" y="529" type="line"/>
    </contour>
  </outline>
</glyph>
<glyph name="decyr" format="2">
  <advance width="473"/>
  <unicode hex="0434"/>
  <outline>
    <contour>
      <point x="384" y="-170" type="line"/>
      <point x="453" y="-170" type="line"/>
      <point x="453" y="63" type="line"/>
      <point x="363" y="63" type="line"/>
      <point x="363" y="0" type="line"/>
      <point x="384" y="0" type="line"/>
    </contour>
    <contour>
      <point x="20" y="-170" type="line"/>
      <point x="89" y="-170" type="line"/>
      <point x="89" y="63.202" type="line"/>
      <point x="20" y="63.202" type="line"/>
    </contour>
    <contour>
      <point x="325" y="0" type="line"/>
      <point x="394" y="0" type="line"/>
      <point x="394" y="529" type="line"/>
      <point x="325" y="529" type="line"/>
    </contour>
    <contour>
      <point x="59.634" y="62.593" type="curve"/>
      <point x="89.235" y="0" type="line"/>
      <point x="161.559" y="0"/>
      <point x="182.275" y="167.064"/>
      <point x="189" y="258.144" type="curve" smooth="yes"/>
      <point x="209" y="529" type="line"/>
      <point x="140" y="529" type="line"/>
      <point x="120" y="290.344" type="line" smooth="yes"/>
      <point x="108.443" y="152.442"/>
      <point x="95.491" y="63.314"/>
    </contour>
    <contour>
      <point x="68.8" y="-0.407" type="line"/>
      <point x="345.243" y="-0.407" type="line"/>
      <point x="345.243" y="62.593" type="line"/>
      <point x="68.8" y="62.593" type="line"/>
    </contour>
    <contour>
      <point x="178.057" y="466.146" type="line"/>
      <point x="345.243" y="466.146" type="line"/>
      <point x="345.243" y="529.146" type="line"/>
      <point x="178.057" y="529.146" type="line"/>
    </contour>
  </outline>
</glyph>
<glyph name="zecyr" format="2">
  <advance width="444"/>
  <unicode hex="0437"/>
  <outline>
    <contour>
      <point x="51" y="132.67" type="line"/>
      <point x="51" y="118.003" type="line" smooth="yes"/>
      <point x="51" y="42.523"/>
      <point x="116.429" y="-8"/>
      <point x="214.179" y="-8" type="curve" smooth="yes"/>
      <point x="316.032" y="-8"/>
      <point x="384.874" y="55.319"/>
      <point x="384.874" y="149" type="curve" smooth="yes"/>
      <point x="384.874" y="162.735" type="line" smooth="yes"/>
      <point x="384.874" y="231.15"/>
      <point x="363.1" y="266.817"/>
      <point x="322.642" y="288.481" type="curve"/>
      <point x="322.642" y="291.481" type="line"/>
      <point x="354.982" y="310.993"/>
      <point x="374.923" y="349.412"/>
      <point x="374.923" y="392.205" type="curve" smooth="yes"/>
      <point x="374.923" y="406.835" type="line" smooth="yes"/>
      <point x="374.923" y="484.372"/>
      <point x="309.729" y="538"/>
      <point x="215.469" y="538" type="curve" smooth="yes"/>
      <point x="118.371" y="538"/>
      <point x="51.096" y="484.545"/>
      <point x="51.096" y="407.393" type="curve" smooth="yes"/>
      <point x="51.096" y="397.233" type="line"/>
      <point x="120.214" y="397.233" type="line"/>
      <point x="120.214" y="407.947" type="line" smooth="yes"/>
      <point x="120.214" y="446.442"/>
      <point x="160.973" y="475"/>
      <point x="215.916" y="475" type="curve" smooth="yes"/>
      <point x="270.713" y="475"/>
      <point x="305.632" y="446.965"/>
      <point x="305.632" y="402.97" type="curve" smooth="yes"/>
      <point x="305.632" y="388.547" type="line" smooth="yes"/>
      <point x="305.632" y="346.908"/>
      <point x="281.703" y="308"/>
      <point x="237.72" y="308" type="curve" smooth="yes"/>
      <point x="165.094" y="308" type="line"/>
      <point x="165.094" y="255" type="line"/>
      <point x="234.07" y="255" type="line" smooth="yes"/>
      <point x="283.225" y="255"/>
      <point x="315.74" y="215.136"/>
      <point x="315.74" y="163" type="curve" smooth="yes"/>
      <point x="315.74" y="151.908" type="line" smooth="yes"/>
      <point x="315.74" y="93.548"/>
      <point x="277.708" y="54"/>
      <point x="212.816" y="54" type="curve" smooth="yes"/>
      <point x="158.735" y="54"/>
      <point x="120" y="81.114"/>
      <point x="120" y="118.97" type="curve" smooth="yes"/>
      <point x="120" y="132.67" type="line"/>
    </contour>
  </outline>
</glyph>
<glyph name="kacyr" format="2">
  <advance width="417"/>
  <unicode hex="043A"/>
  <anchor x="214" y="590" name="top"/>
  <outline>
    <contour>
      <point x="60" y="0" type="line"/>
      <point x="130" y="0" type="line"/>
      <point x="130" y="529" type="line"/>
      <point x="60" y="529" type="line"/>
    </contour>
    <contour>
      <point x="129" y="258" type="line"/>
      <point x="211" y="258" type="line"/>
      <point x="380" y="529" type="line"/>
      <point x="303" y="529" type="line"/>
    </contour>
    <contour>
      <point x="324" y="0" type="line"/>
      <point x="403" y="0" type="line"/>
      <point x="215" y="313" type="line"/>
      <point x="172" y="249" type="line"/>
    </contour>
    <contour>
      <point x="109" y="250" type="line"/>
      <point x="222" y="250" type="line"/>
      <point x="222" y="313" type="line"/>
      <point x="109" y="313" type="line"/>
    </contour>
  </outline>
</glyph>
<glyph name="elcyr" format="2">
  <advance width="405"/>
  <unicode hex="043B"/>
  <outline>
    <contour>
      <point x="276" y="0" type="line"/>
      <point x="345" y="0" type="line"/>
      <point x="345" y="529" type="line"/>
      <point x="276" y="529" type="line"/>
    </contour>
    <contour>
      <point x="129.057" y="466.146" type="line"/>
      <point x="296.243" y="466.146" type="line"/>
      <point x="296.243" y="529.146" type="line"/>
      <point x="129.057" y="529.146" type="line"/>
    </contour>
    <contour>
      <point x="10.634" y="62.593" type="curve"/>
      <point x="10.634" y="0" type="line"/>
      <point x="85.802" y="0"/>
      <point x="123.269" y="31.296"/>
      <point x="128.297" y="99.418" type="curve" smooth="yes"/>
      <point x="160" y="529" type="line"/>
      <point x="91" y="529" type="line"/>
      <point x="56.956" y="122.763" type="line" smooth="yes"/>
      <point x="53.931" y="86.662"/>
      <point x="46.491" y="63.314"/>
    </contour>
  </outline>
</glyph>
<glyph name="pecyr" format="2">
  <advance width="418"/>
  <unicode hex="043F"/>
  <outline>
    <contour>
      <point x="289" y="0" type="line"/>
      <point x="358" y="0" type="line"/>
      <point x="358" y="529" type="line"/>
      <point x="289" y="529" type="line"/>
    </contour>
    <contour>
      <point x="60" y="0" type="line"/>
      <point x="129" y="0" type="line"/>
      <point x="129" y="529" type="line"/>
      <point x="60" y="529" type="line"/>
    </contour>
    <contour>
      <point x="103" y="466.052" type="line"/>
      <point x="309.243" y="466.052" type="line"/>
      <point x="309.243" y="529.052" type="line"/>
      <point x="103" y="529.052" type="line"/>
    </contour>
  </outline>
</glyph>
<glyph name="checyr" format="2">
  <advance width="426"/>
  <unicode hex="0447"/>
  <outline>
    <contour>
      <point x="200.568" y="194.624" type="curve" smooth="yes"/>
      <point x="254.406" y="194.624"/>
      <point x="286.896" y="202.752"/>
      <point x="326" y="221.609" type="curve"/>
      <point x="326" y="276.11" type="line"/>
      <point x="296" y="276.11" type="line"/>
      <point x="281.314" y="264.475"/>
      <point x="248.277" y="256.624"/>
      <point x="214" y="256.624" type="curve" smooth="yes"/>
      <point x="145.188" y="256.624"/>
      <point x="130" y="306.905"/>
      <point x="130" y="389.611" type="curve" smooth="yes"/>
      <point x="130" y="529" type="line"/>
      <point x="60" y="529" type="line"/>
      <point x="60" y="365.624" type="line" smooth="yes"/>
      <point x="60" y="261.787"/>
      <point x="104.693" y="194.624"/>
    </contour>
    <contour>
      <point x="295.986" y="0" type="line"/>
      <point x="366" y="0" type="line"/>
      <point x="366" y="529" type="line"/>
      <point x="296" y="529" type="line"/>
    </contour>
  </outline>
</glyph>
<glyph name="softcyr" format="2">
  <advance width="414"/>
  <unicode hex="044C"/>
  <outline>
    <contour>
      <point x="60" y="0" type="line"/>
      <point x="129" y="0" type="line"/>
      <point x="129" y="529" type="line"/>
      <point x="60" y="529" type="line"/>
    </contour>
    <contour>
      <point x="109" y="0" type="line"/>
      <point x="203" y="0" type="line" smooth="yes"/>
      <point x="304.503" y="0"/>
      <point x="364" y="55.956"/>
      <point x="364" y="162.504" type="curve" smooth="yes"/>
      <point x="364" y="266.608"/>
      <point x="318.89" y="313"/>
      <point x="218" y="313" type="curve" smooth="yes"/>
      <point x="109" y="313" type="line"/>
      <point x="109" y="250" type="line"/>
      <point x="218" y="250" type="line" smooth="yes"/>
      <point x="264.231" y="250"/>
      <point x="295" y="214.194"/>
      <point x="295" y="160.396" type="curve" smooth="yes"/>
      <point x="295" y="102.666"/>
      <point x="263.64" y="63"/>
      <point x="218" y="63" type="curve" smooth="yes"/>
      <point x="109" y="63" type="line"/>
    </contour>
  </outline>
</glyph>
<glyph name="eukrcyr" format="2">
  <advance width="418"/>
  <unicode hex="0454"/>
  <outline>
    <contour>
      <point x="298" y="175" type="line"/>
      <point x="298" y="161" type="line" smooth="yes"/>
      <point x="298" y="89.667"/>
      <point x="269" y="54"/>
      <point x="211" y="54" type="curve" smooth="yes"/>
      <point x="148.81" y="54"/>
      <point x="121" y="92.933"/>
      <point x="121" y="180" type="curve" smooth="yes"/>
      <point x="121" y="349" type="line" smooth="yes"/>
      <point x="121" y="436.538"/>
      <point x="148.778" y="475"/>
      <point x="212" y="475" type="curve" smooth="yes"/>
      <point x="269.333" y="475"/>
      <point x="298" y="439.667"/>
      <point x="298" y="369" type="curve" smooth="yes"/>
      <point x="298" y="354" type="line"/>
      <point x="368" y="354" type="line"/>
      <point x="368" y="369" type="line" smooth="yes"/>
      <point x="368" y="479.488"/>
      <point x="313.643" y="538"/>
      <point x="211" y="538" type="curve" smooth="yes"/>
      <point x="105.527" y="538"/>
      <point x="51" y="476.317"/>
      <point x="51" y="357" type="curve" smooth="yes"/>
      <point x="51" y="172" type="line" smooth="yes"/>
      <point x="51" y="53.268"/>
      <point x="105.801" y="-8"/>
      <point x="212" y="-8" type="curve" smooth="yes"/>
      <point x="313.333" y="-8"/>
      <point x="368" y="51.573"/>
      <point x="368" y="162" type="curve" smooth="yes"/>
      <point x="368" y="175" type="line"/>
    </contour>
    <contour>
      <point x="229" y="250" type="line"/>
      <point x="103" y="250" type="line"/>
      <point x="103" y="313" type="line"/>
      <point x="229" y="313" type="line"/>
    </contour>
  </outline>
</glyph>
<glyph name="ljecyr" format="2">
  <advance width="614"/>
  <unicode hex="0459"/>
  <outline>
    <contour>
      <point x="276" y="0" type="line"/>
      <point x="345" y="0" type="line"/>
      <point x="345" y="529" type="line"/>
      <point x="276" y="529" type="line"/>
    </contour>
    <contour>
      <point x="129.057" y="466.146" type="line"/>
      <point x="296.243" y="466.146" type="line"/>
      <point x="296.243" y="529.146" type="line"/>
      <point x="129.057" y="529.146" type="line"/>
    </contour>
    <contour>
      <point x="10.634" y="62.593" type="curve"/>
      <point x="10.634" y="0" type="line"/>
      <point x="85.802" y="0"/>
      <point x="123.269" y="31.296"/>
      <point x="128.297" y="99.418" type="curve" smooth="yes"/>
      <point x="160" y="529" type="line"/>
      <point x="91" y="529" type="line"/>
      <point x="56.956" y="122.763" type="line" smooth="yes"/>
      <point x="53.931" y="86.662"/>
      <point x="46.491" y="63.314"/>
    </contour>
    <contour>
      <point x="309" y="0" type="line"/>
      <point x="403" y="0" type="line" smooth="yes"/>
      <point x="504.503" y="0"/>
      <point x="564" y="55.956"/>
      <point x="564" y="162.504" type="curve" smooth="yes"/>
      <point x="564" y="266.608"/>
      <point x="518.89" y="313"/>
      <point x="418" y="313" type="curve" smooth="yes"/>
      <point x="309" y="313" type="line"/>
      <point x="309" y="250" type="line"/>
      <point x="418" y="250" type="line" smooth="yes"/>
      <point x="464.231" y="250"/>
      <point x="495" y="214.194"/>
      <point x="495" y="160.396" type="curve" smooth="yes"/>
      <point x="495" y="102.666"/>
      <point x="463.64" y="63"/>
      <point x="418" y="63" type="curve" smooth="yes"/>
      <point x="309" y="63" type="line"/>
    </contour>
  </outline>
</glyph>
<glyph name="njecyr" format="2">
  <advance width="644"/>
  <unicode hex="045A"/>
  <outline>
    <contour>
      <point x="295" y="0" type="line"/>
      <point x="364" y="0" type="line"/>
      <point x="364" y="529" type="line"/>
      <point x="295" y="529" type="line"/>
    </contour>
    <contour>
      <point x="60" y="0" type="line"/>
      <point x="129" y="0" type="line"/>
      <point x="129" y="529" type="line"/>
      <point x="60" y="529" type="line"/>
    </contour>
    <contour>
      <point x="109" y="250" type="line"/>
      <point x="315" y="250" type="line"/>
      <point x="315" y="313" type="line"/>
      <point x="109" y="313" type="line"/>
    </contour>
    <contour>
      <point x="339" y="0" type="line"/>
      <point x="433" y="0" type="line" smooth="yes"/>
      <point x="534.503" y="0"/>
      <point x="594" y="55.956"/>
      <point x="594" y="162.504" type="curve" smooth="yes"/>
      <point x="594" y="266.608"/>
      <point x="548.89" y="313"/>
      <point x="448" y="313" type="curve" smooth="yes"/>
      <point x="339" y="313" type="line"/>
      <point x="339" y="250" type="line"/>
      <point x="448" y="250" type="line" smooth="yes"/>
      <point x="494.231" y="250"/>
      <point x="525" y="214.194"/>
      <point x="525" y="160.396" type="curve" smooth="yes"/>
      <point x="525" y="102.666"/>
      <point x="493.64" y="63"/>
      <point x="448" y="63" type="curve" smooth="yes"/>
      <point x="339" y="63" type="line"/>
    </contour>
  </outline>
</glyph>
<glyph name="Germandbls" format="2">
  <advance width="513"/>
  <unicode hex="1E9E"/>
  <outline>
    <contour>
      <point x="60" y="1" type="line"/>
      <point x="129" y="1" type="line"/>
      <point x="129" y="496" type="line" smooth="yes"/>
      <point x="129" y="565.363"/>
      <point x="152.498" y="652"/>
      <point x="236" y="652" type="curve" smooth="yes"/>
      <point x="260.638" y="652"/>
      <point x="291.146" y="632.339"/>
      <point x="326" y="594" type="curve"/>
      <point x="211" y="403" type="line"/>
      <point x="211" y="330" type="line"/>
      <point x="285" y="330" type="line" smooth="yes"/>
      <point x="352.109" y="330"/>
      <point x="394" y="278.885"/>
      <point x="394" y="197" type="curve" smooth="yes"/>
      <point x="394" y="122.666"/>
      <point x="367.361" y="64"/>
      <point x="287" y="64" type="curve" smooth="yes"/>
      <point x="198" y="64" type="line"/>
      <point x="198" y="-3" type="line"/>
      <point x="275" y="-3" type="line" smooth="yes"/>
      <point x="396.127" y="-3"/>
      <point x="463" y="68.853"/>
      <point x="463" y="199" type="curve" smooth="yes"/>
      <point x="463" y="314.926"/>
      <point x="385.874" y="401"/>
      <point x="282" y="401" type="curve"/>
      <point x="397" y="597" type="line"/>
      <point x="361.028" y="664.252"/>
      <point x="293.783" y="714"/>
      <point x="236" y="714" type="curve" smooth="yes"/>
      <point x="100.892" y="714"/>
      <point x="60" y="600.803"/>
      <point x="60" y="487" type="curve" smooth="yes"/>
    </contour>
  </outline>
</glyph>
<glyph name="hyphentwo" format="2">
  <advance width="384"/>
  <unicode hex="2010"/>
  <outline>
    <contour>
      <point x="51" y="323" type="line"/>
      <point x="333" y="323" type="line"/>
      <point x="333" y="389" type="line"/>
      <point x="51" y="389" type="line"/>
    </contour>
  </outline>
</glyph>
<glyph name="quoteleft" format="2">
  <advance width="153"/>
  <unicode hex="2018"/>
  <outline>
    <contour>
      <point x="42" y="501" type="line"/>
      <point x="112" y="501" type="line"/>
      <point x="112" y="740" type="line"/>
      <point x="42" y="680" type="line"/>
    </contour>
  </outline>
</glyph>
<glyph name="quoteright" format="2">
  <advance width="153"/>
  <unicode hex="2019"/>
  <anchor x="112" y="707" name="_dot"/>
  <outline>
    <contour>
      <point x="42" y="467" type="line"/>
      <point x="112" y="527" type="line"/>
      <point x="112" y="707" type="line"/>
      <point x="42" y="707" type="line"/>
    </contour>
  </outline>
</glyph>
<glyph name="quotedblleft" format="2">
  <advance width="286"/>
  <unicode hex="201C"/>
  <outline>
    <contour>
      <point x="42" y="501" type="line"/>
      <point x="112" y="501" type="line"/>
      <point x="112" y="740" type="line"/>
      <point x="42" y="680" type="line"/>
    </contour>
    <contour>
      <point x="175" y="501" type="line"/>
      <point x="245" y="501" type="line"/>
      <point x="245" y="740" type="line"/>
      <point x="175" y="680" type="line"/>
    </contour>
  </outline>
</glyph>
<glyph name="dagger" format="2">
  <advance width="483"/>
  <unicode hex="2020"/>
  <outline>
    <contour>
      <point x="205" y="-156" type="line"/>
      <point x="280" y="-156" type="line"/>
      <point x="280" y="388" type="line"/>
      <point x="423" y="388" type="line"/>
      <point x="423" y="456" type="line"/>
      <point x="280" y="456" type="line"/>
      <point x="280" y="707" type="line"/>
      <point x="205" y="707" type="line"/>
      <point x="205" y="456" type="line"/>
      <point x="60" y="456" type="line"/>
      <point x="60" y="388" type="line"/>
      <point x="205" y="388" type="line"/>
    </contour>
  </outline>
</glyph>
<glyph name="daggerdbl" format="2">
  <advance width="483"/>
  <unicode hex="2021"/>
  <outline>
    <contour>
      <point x="205" y="-156" type="line"/>
      <point x="280" y="-156" type="line"/>
      <point x="280" y="91" type="line"/>
      <point x="423" y="91" type="line"/>
      <point x="423" y="159" type="line"/>
      <point x="280" y="159" type="line"/>
      <point x="280" y="393" type="line"/>
      <point x="423" y="393" type="line"/>
      <point x="423" y="461" type="line"/>
      <point x="280" y="461" type="line"/>
      <point x="280" y="707" type="line"/>
      <point x="205" y="707" type="line"/>
      <point x="205" y="461" type="line"/>
      <point x="60" y="461" type="line"/>
      <point x="60" y="393" type="line"/>
      <point x="205" y="393" type="line"/>
      <point x="205" y="159" type="line"/>
      <point x="60" y="159" type="line"/>
      <point x="60" y="91" type="line"/>
      <point x="205" y="91" type="line"/>
    </contour>
  </outline>
</glyph>
<glyph name="ellipsis" format="2">
  <advance width="587"/>
  <unicode hex="2026"/>
  <outline>
    <contour>
      <point x="42" y="0" type="line"/>
      <point x="122" y="0" type="line"/>
      <point x="122" y="91" type="line"/>
      <point x="42" y="91" type="line"/>
    </contour>
    <contour>
      <point x="466" y="0" type="line"/>
      <point x="546" y="0" type="line"/>
      <point x="546" y="91" type="line"/>
      <point x="466" y="91" type="line"/>
    </contour>
    <contour>
      <point x="254" y="0" type="line"/>
      <point x="334" y="0" type="line"/>
      <point x="334" y="91" type="line"/>
      <point x="254" y="91" type="line"/>
    </contour>
  </outline>
</glyph>
<glyph name="second" format="2">
  <advance width="298"/>
  <unicode hex="2033"/>
  <outline>
    <contour>
      <point x="170" y="590" type="line"/>
      <point x="228" y="590" type="line"/>
      <point x="263" y="722" type="line"/>
      <point x="188" y="722" type="line"/>
    </contour>
    <contour>
      <point x="40" y="590" type="line"/>
      <point x="98" y="590" type="line"/>
      <point x="133" y="722" type="line"/>
      <point x="58" y="722" type="line"/>
    </contour>
  </outline>
</glyph>
<glyph name="guilsinglleft" format="2">
  <advance width="264"/>
  <unicode hex="2039"/>
  <outline>
    <contour>
      <point x="204" y="83" type="line"/>
      <point x="204" y="161" type="line"/>
      <point x="97" y="270" type="line"/>
      <point x="204" y="380" type="line"/>
      <point x="204" y="458" type="line"/>
      <point x="20" y="270" type="line"/>
    </contour>
  </outline>
</glyph>
<glyph name="guilsinglright" format="2">
  <advance width="274"/>
  <unicode hex="203A"/>
  <outline>
    <contour>
      <point x="60" y="83" type="line"/>
      <point x="244" y="270" type="line"/>
      <point x="60" y="458" type="line"/>
      <point x="60" y="380" type="line"/>
      <point x="167" y="270" type="line"/>
      <point x="60" y="161" type="line"/>
    </contour>
  </outline>
</glyph>
<glyph name="foursuperior" format="2">
  <advance width="288"/>
  <unicode hex="2074"/>
  <outline>
    <contour>
      <point x="24" y="516" type="line"/>
      <point x="161" y="516" type="line"/>
      <point x="161" y="440" type="line"/>
      <point x="232" y="440" type="line"/>
      <point x="232" y="516" type="line"/>
      <point x="264" y="516" type="line"/>
      <point x="264" y="580" type="line"/>
      <point x="232" y="580" type="line"/>
      <point x="232" y="678" type="line"/>
      <point x="161" y="678" type="line"/>
      <point x="161" y="580" type="line"/>
      <point x="95" y="580" type="line"/>
      <point x="189" y="868" type="line"/>
      <point x="118" y="868" type="line"/>
      <point x="24" y="580" type="line"/>
    </contour>
  </outline>
</glyph>
<glyph name="Euro" format="2">
  <advance width="465"/>
  <unicode hex="20AC"/>
  <outline>
    <contour>
      <point x="31" y="259" type="line"/>
      <point x="95" y="259" type="line"/>
      <point x="95" y="183" type="line" smooth="yes"/>
      <point x="95" y="54.004"/>
      <point x="147.265" y="-8"/>
      <point x="256" y="-8" type="curve" smooth="yes"/>
      <point x="355.044" y="-8"/>
      <point x="410.379" y="51.212"/>
      <point x="413" y="160" type="curve"/>
      <point x="342" y="160" type="line"/>
      <point x="336.424" y="88.909"/>
      <point x="310.667" y="58"/>
      <point x="257" y="58" type="curve" smooth="yes"/>
      <point x="196.284" y="58"/>
      <point x="170" y="94.858"/>
      <point x="170" y="180" type="curve" smooth="yes"/>
      <point x="170" y="259" type="line"/>
      <point x="310" y="259" type="line"/>
      <point x="323" y="323" type="line"/>
      <point x="170" y="323" type="line"/>
      <point x="170" y="390" type="line"/>
      <point x="336" y="390" type="line"/>
      <point x="348" y="455" type="line"/>
      <point x="170" y="455" type="line"/>
      <point x="170" y="539" type="line" smooth="yes"/>
      <point x="170" y="613"/>
      <point x="199" y="650"/>
      <point x="257" y="650" type="curve" smooth="yes"/>
      <point x="312" y="650"/>
      <point x="337.823" y="619.62"/>
      <point x="342" y="550" type="curve"/>
      <point x="412" y="550" type="line"/>
      <point x="409.292" y="658.331"/>
      <point x="354.487" y="717"/>
      <point x="256" y="717" type="curve" smooth="yes"/>
      <point x="152.066" y="717"/>
      <point x="95" y="652.137"/>
      <point x="95" y="534" type="curve" smooth="yes"/>
      <point x="95" y="455" type="line"/>
      <point x="31" y="455" type="line"/>
      <point x="31" y="390" type="line"/>
      <point x="95" y="390" type="line"/>
      <point x="95" y="323" type="line"/>
      <point x="31" y="323" type="line"/>
    </contour>
  </outline>
</glyph>
<glyph name="trademark" format="2">
  <advance width="685"/>
  <unicode hex="2122"/>
  <outline>
    <contour>
      <point x="118" y="303" type="line"/>
      <point x="184" y="303" type="line"/>
      <point x="184" y="645" type="line"/>
      <point x="271" y="645" type="line"/>
      <point x="271" y="707" type="line"/>
      <point x="31" y="707" type="line"/>
      <point x="31" y="645" type="line"/>
      <point x="118" y="645" type="line"/>
    </contour>
    <contour>
      <point x="326" y="303" type="line"/>
      <point x="389" y="303" type="line"/>
      <point x="389" y="549" type="line"/>
      <point x="391" y="549" type="line"/>
      <point x="454" y="366" type="line"/>
      <point x="497" y="366" type="line"/>
      <point x="559" y="549" type="line"/>
      <point x="561" y="549" type="line"/>
      <point x="561" y="303" type="line"/>
      <point x="624" y="303" type="line"/>
      <point x="624" y="707" type="line"/>
      <point x="558" y="707" type="line"/>
      <point x="477" y="457" type="line"/>
      <point x="475" y="457" type="line"/>
      <point x="392" y="707" type="line"/>
      <point x="326" y="707" type="line"/>
    </contour>
  </outline>
</glyph>
<glyph name="divisionslash" format="2">
  <advance width="180"/>
  <unicode hex="2215"/>
  <outline>
    <contour>
      <point x="60" y="0" type="line"/>
      <point x="122" y="0" type="line"/>
      <point x="391" y="707" type="line"/>
      <point x="330" y="707" type="line"/>
    </contour>
  </outline>
</glyph>
<glyph name="fi" format="2">
  <advance width="498"/>
  <unicode hex="FB01"/>
  <outline>
    <contour>
      <point x="103" y="0" type="line"/>
      <point x="173" y="0" type="line"/>
      <point x="173" y="475" type="line"/>
      <point x="264" y="475" type="line"/>
      <point x="264" y="529" type="line"/>
      <point x="173" y="529" type="line"/>
      <point x="173" y="578" type="line" smooth="yes"/>
      <point x="173" y="629.218"/>
      <point x="194.185" y="651"/>
      <point x="244" y="651" type="curve" smooth="yes"/>
      <point x="264" y="651" type="line"/>
      <point x="264" y="707" type="line"/>
      <point x="238" y="707" type="line" smooth="yes"/>
      <point x="149.971" y="707"/>
      <point x="103" y="658.637"/>
      <point x="103" y="568" type="curve" smooth="yes"/>
      <point x="103" y="529" type="line"/>
      <point x="40" y="529" type="line"/>
      <point x="40" y="475" type="line"/>
      <point x="103" y="475" type="line"/>
    </contour>
    <contour>
      <point x="362" y="0" type="line"/>
      <point x="431" y="0" type="line"/>
      <point x="431" y="529" type="line"/>
      <point x="362" y="529" type="line"/>
    </contour>
    <contour>
      <point x="361" y="613" type="line"/>
      <point x="432" y="613" type="line"/>
      <point x="432" y="705" type="line"/>
      <point x="361" y="705" type="line"/>
    </contour>
  </outline>
</glyph>
<glyph name="fl" format="2">
  <advance width="534"/>
  <unicode hex="FB02"/>
  <outline>
    <contour>
      <point x="514" y="0" type="line"/>
      <point x="514" y="62" type="line"/>
      <point x="499" y="62" type="line" smooth="yes"/>
      <point x="450.333" y="62"/>
      <point x="426" y="89"/>
      <point x="426" y="143" type="curve" smooth="yes"/>
      <point x="426" y="707" type="line"/>
      <point x="355" y="707" type="line"/>
      <point x="355" y="140" type="line" smooth="yes"/>
      <point x="355" y="49.7"/>
      <point x="405.41" y="0"/>
      <point x="497" y="0" type="curve" smooth="yes"/>
    </contour>
    <contour>
      <point x="103" y="0" type="line"/>
      <point x="173" y="0" type="line"/>
      <point x="173" y="475" type="line"/>
      <point x="264" y="475" type="line"/>
      <point x="264" y="529" type="line"/>
      <point x="173" y="529" type="line"/>
      <point x="173" y="578" type="line" smooth="yes"/>
      <point x="173" y="629.218"/>
      <point x="194.185" y="651"/>
      <point x="244" y="651" type="curve" smooth="yes"/>
      <point x="264" y="651" type="line"/>
      <point x="264" y="707" type="line"/>
      <point x="238" y="707" type="line" smooth="yes"/>
      <point x="149.971" y="707"/>
      <point x="103" y="658.637"/>
      <point x="103" y="568" type="curve" smooth="yes"/>
      <point x="103" y="529" type="line"/>
      <point x="40" y="529" type="line"/>
      <point x="40" y="475" type="line"/>
      <point x="103" y="475" type="line"/>
    </contour>
  </outline>
</glyph>
<glyph name="Decyr.loclBGR" format="2">
  <advance width="514"/>
  <outline>
    <component base="Elcyr.loclBGR" xOffset="23"/>
    <contour>
      <point x="309.27" y="0" type="line"/>
      <point x="428.4" y="0" type="line"/>
      <point x="428.4" y="-170" type="line"/>
      <point x="503.4" y="-170" type="line"/>
      <point x="503.4" y="66.73" type="line"/>
      <point x="309.27" y="67" type="line"/>
    </contour>
    <contour>
      <point x="169.166" y="0" type="line"/>
      <point x="359.346" y="0" type="line"/>
      <point x="359.346" y="67" type="line"/>
      <point x="169.166" y="67" type="line"/>
    </contour>
    <contour>
      <point x="10" y="-170" type="line"/>
      <point x="85" y="-170" type="line"/>
      <point x="85" y="0" type="line"/>
      <point x="218.7" y="0" type="line"/>
      <point x="218.7" y="67" type="line"/>
      <point x="10" y="66.7" type="line"/>
    </contour>
  </outline>
</glyph>
<glyph name="Nacute.loclPLK" format="2">
  <advance width="514"/>
  <outline>
    <component base="N"/>
    <contour>
      <point x="229" y="777" type="line"/>
      <point x="287" y="777" type="line"/>
      <point x="322" y="909" type="line"/>
      <point x="247" y="909" type="line"/>
    </contour>
  </outline>
</glyph>
<glyph name="Oacute.loclPLK" format="2">
  <advance width="489"/>
  <outline>
    <contour>
      <point x="245" y="-8" type="curve" smooth="yes"/>
      <point x="365.405" y="-8"/>
      <point x="436" y="71.096"/>
      <point x="436" y="206" type="curve" smooth="yes"/>
      <point x="436" y="501" type="line" smooth="yes"/>
      <point x="436" y="638.288"/>
      <point x="366.963" y="716"/>
      <point x="245" y="716" type="curve" smooth="yes"/>
      <point x="122.107" y="716"/>
      <point x="53" y="638.615"/>
      <point x="53" y="501" type="curve" smooth="yes"/>
      <point x="53" y="206" type="line" smooth="yes"/>
      <point x="53" y="70.981"/>
      <point x="123.861" y="-8"/>
    </contour>
    <contour>
      <point x="246" y="59" type="curve"/>
      <point x="167.333" y="59.667"/>
      <point x="128" y="108.333"/>
      <point x="128" y="205" type="curve" smooth="yes"/>
      <point x="128" y="494" type="line" smooth="yes"/>
      <point x="128" y="597.333"/>
      <point x="166.823" y="648"/>
      <point x="246" y="648" type="curve" smooth="yes"/>
      <point x="322.165" y="648"/>
      <point x="361" y="595.994"/>
      <point x="361" y="494" type="curve" smooth="yes"/>
      <point x="361" y="205" type="line" smooth="yes"/>
      <point x="361" y="110.948"/>
      <point x="320.082" y="59"/>
    </contour>
    <contour>
      <point x="217" y="767" type="line"/>
      <point x="275" y="767" type="line"/>
      <point x="310" y="899" type="line"/>
      <point x="235" y="899" type="line"/>
    </contour>
  </outline>
</glyph>
<glyph name="Zacute.loclPLK" format="2">
  <advance width="394"/>
  <outline>
    <component base="Z"/>
    <contour>
      <point x="169" y="777" type="line"/>
      <point x="227" y="777" type="line"/>
      <point x="262" y="909" type="line"/>
      <point x="187" y="909" type="line"/>
    </contour>
  </outline>
</glyph>
<glyph name="cacute.loclPLK" format="2">
  <advance width="418"/>
  <outline>
    <component base="c"/>
    <contour>
      <point x="181" y="590" type="line"/>
      <point x="239" y="590" type="line"/>
      <point x="274" y="722" type="line"/>
      <point x="199" y="722" type="line"/>
    </contour>
  </outline>
</glyph>
<glyph name="five.osf" format="2">
  <advance width="407"/>
  <outline>
    <contour>
      <point x="53" y="15" type="line"/>
      <point x="53" y="-3" type="line" smooth="yes"/>
      <point x="53" y="-106.505"/>
      <point x="105.353" y="-162"/>
      <point x="203" y="-162" type="curve" smooth="yes"/>
      <point x="303.667" y="-162"/>
      <point x="354" y="-105"/>
      <point x="354" y="9" type="curve" smooth="yes"/>
      <point x="354" y="121" type="line" smooth="yes"/>
      <point x="354" y="232.333"/>
      <point x="308.333" y="288"/>
      <point x="217" y="288" type="curve" smooth="yes"/>
      <point x="182.373" y="288"/>
      <point x="151.249" y="275.695"/>
      <point x="131" y="254" type="curve"/>
      <point x="131" y="459" type="line"/>
      <point x="348" y="459" type="line"/>
      <point x="348" y="529" type="line"/>
      <point x="61" y="529" type="line"/>
      <point x="61" y="171" type="line"/>
      <point x="125" y="171" type="line"/>
      <point x="143" y="204.333"/>
      <point x="169" y="221"/>
      <point x="203" y="221" type="curve" smooth="yes"/>
      <point x="256.096" y="221"/>
      <point x="280" y="189.645"/>
      <point x="280" y="120" type="curve" smooth="yes"/>
      <point x="280" y="6" type="line" smooth="yes"/>
      <point x="280" y="-64.205"/>
      <point x="255.686" y="-96"/>
      <point x="202" y="-96" type="curve" smooth="yes"/>
      <point x="150.274" y="-96"/>
      <point x="124" y="-64.336"/>
      <point x="124" y="-2" type="curve" smooth="yes"/>
      <point x="124" y="15" type="line"/>
    </contour>
  </outline>
</glyph>
<glyph name="five.tlf" format="2">
  <advance width="418"/>
  <outline>
    <contour>
      <point x="59" y="168" type="line"/>
      <point x="59" y="150" type="line" smooth="yes"/>
      <point x="59" y="47.355"/>
      <point x="112.165" y="-9"/>
      <point x="209" y="-9" type="curve" smooth="yes"/>
      <point x="309.667" y="-9"/>
      <point x="360" y="48"/>
      <point x="360" y="162" type="curve" smooth="yes"/>
      <point x="360" y="287" type="line" smooth="yes"/>
      <point x="360" y="398.333"/>
      <point x="314.333" y="454"/>
      <point x="223" y="454" type="curve" smooth="yes"/>
      <point x="188.373" y="454"/>
      <point x="157.249" y="441.695"/>
      <point x="137" y="420" type="curve"/>
      <point x="137" y="637" type="line"/>
      <point x="354" y="637" type="line"/>
      <point x="354" y="707" type="line"/>
      <point x="67" y="707" type="line"/>
      <point x="67" y="337" type="line"/>
      <point x="131" y="337" type="line"/>
      <point x="149" y="370.333"/>
      <point x="175" y="387"/>
      <point x="209" y="387" type="curve" smooth="yes"/>
      <point x="262.096" y="387"/>
      <point x="286" y="355.645"/>
      <point x="286" y="286" type="curve" smooth="yes"/>
      <point x="286" y="159" type="line" smooth="yes"/>
      <point x="286" y="88.795"/>
      <point x="261.686" y="57"/>
      <point x="208" y="57" type="curve"/>
      <point x="156" y="57.667"/>
      <point x="130" y="89"/>
      <point x="130" y="151" type="curve" smooth="yes"/>
      <point x="130" y="168" type="line"/>
    </contour>
  </outline>
</glyph>
<glyph name="five.tosf" format="2">
  <advance width="418"/>
  <outline>
    <contour>
      <point x="59" y="15" type="line"/>
      <point x="59" y="-3" type="line" smooth="yes"/>
      <point x="59" y="-106.505"/>
      <point x="111.353" y="-162"/>
      <point x="209" y="-162" type="curve" smooth="yes"/>
      <point x="309.667" y="-162"/>
      <point x="360" y="-105"/>
      <point x="360" y="9" type="curve" smooth="yes"/>
      <point x="360" y="121" type="line" smooth="yes"/>
      <point x="360" y="232.333"/>
      <point x="314.333" y="288"/>
      <point x="223" y="288" type="curve" smooth="yes"/>
      <point x="188.373" y="288"/>
      <point x="157.249" y="275.695"/>
      <point x="137" y="254" type="curve"/>
      <point x="137" y="459" type="line"/>
      <point x="354" y="459" type="line"/>
      <point x="354" y="529" type="line"/>
      <point x="67" y="529" type="line"/>
      <point x="67" y="171" type="line"/>
      <point x="131" y="171" type="line"/>
      <point x="149" y="204.333"/>
      <point x="175" y="221"/>
      <point x="209" y="221" type="curve" smooth="yes"/>
      <point x="262.096" y="221"/>
      <point x="286" y="189.645"/>
      <point x="286" y="120" type="curve" smooth="yes"/>
      <point x="286" y="6" type="line" smooth="yes"/>
      <point x="286" y="-64.205"/>
      <point x="261.686" y="-96"/>
      <point x="208" y="-96" type="curve" smooth="yes"/>
      <point x="156.274" y="-96"/>
      <point x="130" y="-64.336"/>
      <point x="130" y="-2" type="curve" smooth="yes"/>
      <point x="130" y="15" type="line"/>
    </contour>
  </outline>
</glyph>
<glyph name="four.dnom" format="2">
  <advance width="288"/>
  <outline>
    <contour>
      <point x="24" y="76" type="line"/>
      <point x="161" y="76" type="line"/>
      <point x="161" y="0" type="line"/>
      <point x="232" y="0" type="line"/>
      <point x="232" y="76" type="line"/>
      <point x="264" y="76" type="line"/>
      <point x="264" y="140" type="line"/>
      <point x="232" y="140" type="line"/>
      <point x="232" y="238" type="line"/>
      <point x="161" y="238" type="line"/>
      <point x="161" y="140" type="line"/>
      <point x="95" y="140" type="line"/>
      <point x="189" y="428" type="line"/>
      <point x="118" y="428" type="line"/>
      <point x="24" y="140" type="line"/>
    </contour>
  </outline>
</glyph>
<glyph name="four.numr" format="2">
  <advance width="288"/>
  <outline>
    <contour>
      <point x="24" y="356" type="line"/>
      <point x="161" y="356" type="line"/>
      <point x="161" y="280" type="line"/>
      <point x="232" y="280" type="line"/>
      <point x="232" y="356" type="line"/>
      <point x="264" y="356" type="line"/>
      <point x="264" y="420" type="line"/>
      <point x="232" y="420" type="line"/>
      <point x="232" y="518" type="line"/>
      <point x="161" y="518" type="line"/>
      <point x="161" y="420" type="line"/>
      <point x="95" y="420" type="line"/>
      <point x="189" y="708" type="line"/>
      <point x="118" y="708" type="line"/>
      <point x="24" y="420" type="line"/>
    </contour>
  </outline>
</glyph>
<glyph name="four.sups" format="2">
  <advance width="288"/>
  <outline>
    <contour>
      <point x="24" y="516" type="line"/>
      <point x="161" y="516" type="line"/>
      <point x="161" y="440" type="line"/>
      <point x="232" y="440" type="line"/>
      <point x="232" y="516" type="line"/>
      <point x="264" y="516" type="line"/>
      <point x="264" y="580" type="line"/>
      <point x="232" y="580" type="line"/>
      <point x="232" y="678" type="line"/>
      <point x="161" y="678" type="line"/>
      <point x="161" y="580" type="line"/>
      <point x="95" y="580" type="line"/>
      <point x="189" y="868" type="line"/>
      <point x="118" y="868" type="line"/>
      <point x="24" y="580" type="line"/>
    </contour>
  </outline>
</glyph>
<glyph name="one.dnom" format="2">
  <advance width="203"/>
  <outline>
    <contour>
      <point x="85" y="0" type="line"/>
      <point x="158" y="0" type="line"/>
      <point x="158" y="428" type="line"/>
      <point x="85" y="428" type="line"/>
      <point x="22" y="378" type="line"/>
      <point x="22" y="297" type="line"/>
      <point x="85" y="348" type="line"/>
    </contour>
  </outline>
</glyph>
<glyph name="one.osf" format="2">
  <advance width="280"/>
  <outline>
    <contour>
      <point x="144" y="0" type="line"/>
      <point x="213" y="0" type="line"/>
      <point x="213" y="539" type="line"/>
      <point x="144" y="539" type="line"/>
      <point x="40" y="457" type="line"/>
      <point x="40" y="370" type="line"/>
      <point x="144" y="452" type="line"/>
    </contour>
  </outline>
</glyph>
<glyph name="one.sups" format="2">
  <advance width="203"/>
  <outline>
    <contour>
      <point x="85" y="440" type="line"/>
      <point x="158" y="440" type="line"/>
      <point x="158" y="868" type="line"/>
      <point x="85" y="868" type="line"/>
      <point x="22" y="818" type="line"/>
      <point x="22" y="737" type="line"/>
      <point x="85" y="788" type="line"/>
    </contour>
  </outline>
</glyph>
<glyph name="seven.osf" format="2">
  <advance width="369"/>
  <outline>
    <contour>
      <point x="73" y="-162" type="line"/>
      <point x="147" y="-162" type="line"/>
      <point x="338" y="462" type="line"/>
      <point x="338" y="529" type="line"/>
      <point x="32" y="529" type="line"/>
      <point x="32" y="462" type="line"/>
      <point x="264" y="462" type="line"/>
    </contour>
  </outline>
</glyph>
<glyph name="shacyr.loclBGR" format="2">
  <advance width="659"/>
  <outline>
    <contour>
      <point x="600" y="529" type="line"/>
      <point x="529" y="529" type="line"/>
      <point x="529" y="149" type="line" smooth="yes"/>
      <point x="529" y="90.423"/>
      <point x="497.561" y="54"/>
      <point x="447" y="54" type="curve" smooth="yes"/>
      <point x="395.456" y="54"/>
      <point x="364" y="90.004"/>
      <point x="364" y="149" type="curve" smooth="yes"/>
      <point x="364" y="529" type="line"/>
      <point x="294" y="529" type="line"/>
      <point x="294" y="148" type="line" smooth="yes"/>
      <point x="294" y="90.317"/>
      <point x="261.546" y="54"/>
      <point x="210" y="54" type="curve" smooth="yes"/>
      <point x="160.175" y="54"/>
      <point x="130" y="89.833"/>
      <point x="130" y="149" type="curve" smooth="yes"/>
      <point x="130" y="529" type="line"/>
      <point x="59" y="529" type="line"/>
      <point x="59" y="146" type="line" smooth="yes"/>
      <point x="59" y="45.377"/>
      <point x="107.062" y="-9"/>
      <point x="196" y="-9" type="curve" smooth="yes"/>
      <point x="245.254" y="-9"/>
      <point x="287.626" y="15.264"/>
      <point x="313" y="58" type="curve"/>
      <point x="336.227" y="15.644"/>
      <point x="378.527" y="-9"/>
      <point x="428" y="-9" type="curve" smooth="yes"/>
      <point x="471.322" y="-9"/>
      <point x="510.682" y="12.782"/>
      <point x="531" y="48" type="curve"/>
      <point x="531" y="0" type="line"/>
      <point x="600" y="0" type="line"/>
    </contour>
  </outline>
</glyph>
<glyph name="three.dnom" format="2">
  <advance width="274"/>
  <outline>
    <contour>
      <point x="31" y="121" type="line"/>
      <point x="31" y="96" type="line" smooth="yes"/>
      <point x="31" y="31.237"/>
      <point x="68.967" y="-6"/>
      <point x="135" y="-6" type="curve" smooth="yes"/>
      <point x="199.667" y="-6"/>
      <point x="242" y="36.333"/>
      <point x="242" y="101" type="curve" smooth="yes"/>
      <point x="242" y="137" type="line" smooth="yes"/>
      <point x="242" y="186.035"/>
      <point x="228.473" y="211.363"/>
      <point x="195" y="225" type="curve"/>
      <point x="225.969" y="239.811"/>
      <point x="240" y="265.067"/>
      <point x="240" y="306" type="curve" smooth="yes"/>
      <point x="240" y="331" type="line" smooth="yes"/>
      <point x="240" y="396.333"/>
      <point x="200.333" y="436"/>
      <point x="135" y="436" type="curve" smooth="yes"/>
      <point x="71.422" y="436"/>
      <point x="31" y="396.744"/>
      <point x="31" y="335" type="curve" smooth="yes"/>
      <point x="31" y="309" type="line"/>
      <point x="99" y="309" type="line"/>
      <point x="99" y="332" type="line" smooth="yes"/>
      <point x="99" y="358.61"/>
      <point x="111.285" y="373"/>
      <point x="134" y="373" type="curve" smooth="yes"/>
      <point x="157.333" y="373"/>
      <point x="169" y="358"/>
      <point x="169" y="328" type="curve" smooth="yes"/>
      <point x="169" y="297" type="line" smooth="yes"/>
      <point x="169" y="267"/>
      <point x="156" y="252"/>
      <point x="130" y="252" type="curve" smooth="yes"/>
      <point x="112" y="252" type="line"/>
      <point x="112" y="190" type="line"/>
      <point x="130" y="190" type="line" smooth="yes"/>
      <point x="159.17" y="190"/>
      <point x="171" y="175.862"/>
      <point x="171" y="141" type="curve" smooth="yes"/>
      <point x="171" y="104" type="line" smooth="yes"/>
      <point x="171" y="72.667"/>
      <point x="158.667" y="57"/>
      <point x="134" y="57" type="curve" smooth="yes"/>
      <point x="111.545" y="57"/>
      <point x="98" y="72.426"/>
      <point x="98" y="98" type="curve" smooth="yes"/>
      <point x="98" y="121" type="line"/>
    </contour>
  </outline>
</glyph>
<glyph name="three.numr" format="2">
  <advance width="274"/>
  <outline>
    <contour>
      <point x="31" y="400" type="line"/>
      <point x="31" y="375" type="line" smooth="yes"/>
      <point x="31" y="310.237"/>
      <point x="68.967" y="273"/>
      <point x="135" y="273" type="curve" smooth="yes"/>
      <point x="199.667" y="273"/>
      <point x="242" y="315.333"/>
      <point x="242" y="380" type="curve" smooth="yes"/>
      <point x="242" y="416" type="line" smooth="yes"/>
      <point x="242" y="465.035"/>
      <point x="228.473" y="490.363"/>
      <point x="195" y="504" type="curve"/>
      <point x="225.969" y="518.811"/>
      <point x="240" y="544.067"/>
      <point x="240" y="585" type="curve" smooth="yes"/>
      <point x="240" y="610" type="line" smooth="yes"/>
      <point x="240" y="675.333"/>
      <point x="200.333" y="715"/>
      <point x="135" y="715" type="curve" smooth="yes"/>
      <point x="71.422" y="715"/>
      <point x="31" y="675.744"/>
      <point x="31" y="614" type="curve" smooth="yes"/>
      <point x="31" y="588" type="line"/>
      <point x="99" y="588" type="line"/>
      <point x="99" y="611" type="line" smooth="yes"/>
      <point x="99" y="637.61"/>
      <point x="111.285" y="652"/>
      <point x="134" y="652" type="curve" smooth="yes"/>
      <point x="157.333" y="652"/>
      <point x="169" y="637"/>
      <point x="169" y="607" type="curve" smooth="yes"/>
      <point x="169" y="576" type="line" smooth="yes"/>
      <point x="169" y="546"/>
      <point x="156" y="531"/>
      <point x="130" y="531" type="curve" smooth="yes"/>
      <point x="112" y="531" type="line"/>
      <point x="112" y="469" type="line"/>
      <point x="130" y="469" type="line" smooth="yes"/>
      <point x="159.17" y="469"/>
      <point x="171" y="454.862"/>
      <point x="171" y="420" type="curve" smooth="yes"/>
      <point x="171" y="383" type="line" smooth="yes"/>
      <point x="171" y="351.667"/>
      <point x="158.667" y="336"/>
      <point x="134" y="336" type="curve" smooth="yes"/>
      <point x="111.545" y="336"/>
      <point x="98" y="351.426"/>
      <point x="98" y="377" type="curve" smooth="yes"/>
      <point x="98" y="400" type="line"/>
    </contour>
  </outline>
</glyph>
<glyph name="three.tlf" format="2">
  <advance width="418"/>
  <outline>
    <contour>
      <point x="56" y="184" type="line"/>
      <point x="56" y="139" type="line" smooth="yes"/>
      <point x="56" y="44.463"/>
      <point x="111.991" y="-9"/>
      <point x="211" y="-9" type="curve" smooth="yes"/>
      <point x="313.073" y="-9"/>
      <point x="369" y="49.051"/>
      <point x="369" y="155" type="curve" smooth="yes"/>
      <point x="369" y="229" type="line" smooth="yes"/>
      <point x="369" y="307.095"/>
      <point x="348.199" y="345.455"/>
      <point x="292" y="371" type="curve"/>
      <point x="343.699" y="394.265"/>
      <point x="365" y="432.781"/>
      <point x="365" y="503" type="curve" smooth="yes"/>
      <point x="365" y="563" type="line" smooth="yes"/>
      <point x="365" y="661.325"/>
      <point x="310.682" y="716"/>
      <point x="213" y="716" type="curve" smooth="yes"/>
      <point x="114.017" y="716"/>
      <point x="58" y="660.344"/>
      <point x="58" y="562" type="curve" smooth="yes"/>
      <point x="58" y="520" type="line"/>
      <point x="132" y="520" type="line"/>
      <point x="132" y="561" type="line" smooth="yes"/>
      <point x="132" y="617.219"/>
      <point x="160.53" y="649"/>
      <point x="211" y="649" type="curve" smooth="yes"/>
      <point x="263.426" y="649"/>
      <point x="292" y="615.84"/>
      <point x="292" y="555" type="curve" smooth="yes"/>
      <point x="292" y="500" type="line" smooth="yes"/>
      <point x="292" y="431.619"/>
      <point x="265.44" y="400"/>
      <point x="208" y="400" type="curve" smooth="yes"/>
      <point x="178" y="400" type="line"/>
      <point x="178" y="334" type="line"/>
      <point x="208" y="334" type="line" smooth="yes"/>
      <point x="267.109" y="334"/>
      <point x="295" y="300.659"/>
      <point x="295" y="230" type="curve" smooth="yes"/>
      <point x="295" y="152" type="line" smooth="yes"/>
      <point x="295" y="90.048"/>
      <point x="266.126" y="57"/>
      <point x="212" y="57" type="curve" smooth="yes"/>
      <point x="159.909" y="57"/>
      <point x="130" y="89.098"/>
      <point x="130" y="145" type="curve" smooth="yes"/>
      <point x="130" y="184" type="line"/>
    </contour>
  </outline>
</glyph>
<glyph name="two.dnom" format="2">
  <advance width="277"/>
  <outline>
    <contour>
      <point x="33" y="0" type="line"/>
      <point x="244" y="0" type="line"/>
      <point x="244" y="64" type="line"/>
      <point x="115" y="64" type="line"/>
      <point x="210" y="212" type="line" smooth="yes"/>
      <point x="235.443" y="251.638"/>
      <point x="244" y="276.05"/>
      <point x="244" y="309" type="curve" smooth="yes"/>
      <point x="244" y="333" type="line" smooth="yes"/>
      <point x="244" y="394.699"/>
      <point x="202.298" y="436"/>
      <point x="140" y="436" type="curve" smooth="yes"/>
      <point x="76.431" y="436"/>
      <point x="35" y="395.752"/>
      <point x="35" y="334" type="curve" smooth="yes"/>
      <point x="35" y="303" type="line"/>
      <point x="103" y="303" type="line"/>
      <point x="103" y="326" type="line" smooth="yes"/>
      <point x="103" y="357.333"/>
      <point x="114.667" y="373"/>
      <point x="138" y="373" type="curve" smooth="yes"/>
      <point x="160.556" y="373"/>
      <point x="173" y="358.067"/>
      <point x="173" y="331" type="curve" smooth="yes"/>
      <point x="173" y="311" type="line" smooth="yes"/>
      <point x="173" y="286.06"/>
      <point x="167.593" y="269.592"/>
      <point x="151" y="244" type="curve" smooth="yes"/>
      <point x="33" y="62" type="line"/>
    </contour>
  </outline>
</glyph>
<glyph name="two.numr" format="2">
  <advance width="277"/>
  <outline>
    <contour>
      <point x="33" y="280" type="line"/>
      <point x="244" y="280" type="line"/>
      <point x="244" y="344" type="line"/>
      <point x="115" y="344" type="line"/>
      <point x="210" y="492" type="line" smooth="yes"/>
      <point x="235.443" y="531.638"/>
      <point x="244" y="556.05"/>
      <point x="244" y="589" type="curve" smooth="yes"/>
      <point x="244" y="613" type="line" smooth="yes"/>
      <point x="244" y="674.699"/>
      <point x="202.298" y="716"/>
      <point x="140" y="716" type="curve" smooth="yes"/>
      <point x="76.431" y="716"/>
      <point x="35" y="675.752"/>
      <point x="35" y="614" type="curve" smooth="yes"/>
      <point x="35" y="583" type="line"/>
      <point x="103" y="583" type="line"/>
      <point x="103" y="606" type="line" smooth="yes"/>
      <point x="103" y="637.333"/>
      <point x="114.667" y="653"/>
      <point x="138" y="653" type="curve" smooth="yes"/>
      <point x="160.556" y="653"/>
      <point x="173" y="638.067"/>
      <point x="173" y="611" type="curve" smooth="yes"/>
      <point x="173" y="591" type="line" smooth="yes"/>
      <point x="173" y="566.06"/>
      <point x="167.593" y="549.592"/>
      <point x="151" y="524" type="curve" smooth="yes"/>
      <point x="33" y="342" type="line"/>
    </contour>
  </outline>
</glyph>
<glyph name="two.sups" format="2">
  <advance width="277"/>
  <outline>
    <contour>
      <point x="33" y="440" type="line"/>
      <point x="244" y="440" type="line"/>
      <point x="244" y="504" type="line"/>
      <point x="115" y="504" type="line"/>
      <point x="210" y="652" type="line" smooth="yes"/>
      <point x="235.443" y="691.638"/>
      <point x="244" y="716.05"/>
      <point x="244" y="749" type="curve" smooth="yes"/>
      <point x="244" y="773" type="line" smooth="yes"/>
      <point x="244" y="834.699"/>
      <point x="202.298" y="876"/>
      <point x="140" y="876" type="curve" smooth="yes"/>
      <point x="76.431" y="876"/>
      <point x="35" y="835.752"/>
      <point x="35" y="774" type="curve" smooth="yes"/>
      <point x="35" y="743" type="line"/>
      <point x="103" y="743" type="line"/>
      <point x="103" y="766" type="line" smooth="yes"/>
      <point x="103" y="797.333"/>
      <point x="114.667" y="813"/>
      <point x="138" y="813" type="curve" smooth="yes"/>
      <point x="160.556" y="813"/>
      <point x="173" y="798.067"/>
      <point x="173" y="771" type="curve" smooth="yes"/>
      <point x="173" y="751" type="line" smooth="yes"/>
      <point x="173" y="726.06"/>
      <point x="167.593" y="709.592"/>
      <point x="151" y="684" type="curve" smooth="yes"/>
      <point x="33" y="502" type="line"/>
    </contour>
  </outline>
</glyph>
<glyph name="uni0301.loclPLK" format="2">
  <outline>
    <contour>
      <point x="-28" y="590" type="line"/>
      <point x="30" y="590" type="line"/>
      <point x="65" y="722" type="line"/>
      <point x="-10" y="722" type="line"/>
    </contour>
  </outline>
</glyph>
<glyph name="vecyr.loclBGR" format="2">
  <advance width="423"/>
  <outline>
    <contour>
      <point x="60" y="155" type="line"/>
      <point x="60" y="61.763"/>
      <point x="120.73" y="-8"/>
      <point x="212.408" y="-8" type="curve" smooth="yes"/>
      <point x="316.119" y="-8"/>
      <point x="384" y="78.724"/>
      <point x="384" y="199" type="curve" smooth="yes"/>
      <point x="384" y="285.996"/>
      <point x="345.213" y="360.606"/>
      <point x="283.694" y="389" type="curve"/>
      <point x="283.694" y="392" type="line"/>
      <point x="333.672" y="425.306"/>
      <point x="364" y="485.077"/>
      <point x="364" y="550.27" type="curve" smooth="yes"/>
      <point x="364" y="642.113"/>
      <point x="303.908" y="707"/>
      <point x="215.223" y="707" type="curve" smooth="yes"/>
      <point x="119.012" y="707"/>
      <point x="60" y="648.98"/>
      <point x="60" y="552" type="curve"/>
      <point x="129" y="552" type="line"/>
      <point x="129" y="607.086"/>
      <point x="155.782" y="644"/>
      <point x="211.066" y="644" type="curve" smooth="yes"/>
      <point x="260.802" y="644"/>
      <point x="295" y="608.618"/>
      <point x="295" y="539" type="curve" smooth="yes"/>
      <point x="295" y="468.74"/>
      <point x="253.83" y="408"/>
      <point x="206.206" y="408" type="curve" smooth="yes"/>
      <point x="109" y="408" type="line"/>
      <point x="109" y="355" type="line"/>
      <point x="198.414" y="355" type="line" smooth="yes"/>
      <point x="260.649" y="355"/>
      <point x="315" y="288.801"/>
      <point x="315" y="213" type="curve" smooth="yes"/>
      <point x="315" y="117.209"/>
      <point x="283.82" y="55"/>
      <point x="219.285" y="55" type="curve" smooth="yes"/>
      <point x="159.549" y="55"/>
      <point x="129" y="91.183"/>
      <point x="129" y="155" type="curve"/>
    </contour>
    <contour>
      <point x="60" y="155" type="line"/>
      <point x="129" y="155" type="line"/>
      <point x="129" y="552" type="line"/>
      <point x="60" y="552" type="line"/>
    </contour>
  </outline>
</glyph>
<glyph name="zacute.loclPLK" format="2">
  <advance width="385"/>
  <outline>
    <component base="z"/>
    <contour>
      <point x="164" y="590" type="line"/>
      <point x="222" y="590" type="line"/>
      <point x="257" y="722" type="line"/>
      <point x="182" y="722" type="line"/>
    </contour>
  </outline>
</glyph>
<glyph name="zero.dnom" format="2">
  <advance width="283"/>
  <outline>
    <contour>
      <point x="34" y="124" type="line" smooth="yes"/>
      <point x="34" y="37.185"/>
      <point x="69.545" y="-6"/>
      <point x="141" y="-6" type="curve" smooth="yes"/>
      <point x="214.887" y="-6"/>
      <point x="249" y="35.062"/>
      <point x="249" y="124" type="curve" smooth="yes"/>
      <point x="249" y="310" type="line" smooth="yes"/>
      <point x="249" y="396.123"/>
      <point x="213.667" y="438"/>
      <point x="141" y="438" type="curve" smooth="yes"/>
      <point x="68.776" y="438"/>
      <point x="34" y="396.399"/>
      <point x="34" y="310" type="curve" smooth="yes"/>
    </contour>
    <contour>
      <point x="141" y="58" type="curve" smooth="yes"/>
      <point x="114.212" y="58"/>
      <point x="104" y="76.216"/>
      <point x="104" y="124" type="curve" smooth="yes"/>
      <point x="104" y="310" type="line" smooth="yes"/>
      <point x="104" y="355.73"/>
      <point x="114.563" y="374"/>
      <point x="141" y="374" type="curve" smooth="yes"/>
      <point x="168.49" y="374"/>
      <point x="178" y="357.55"/>
      <point x="178" y="310" type="curve" smooth="yes"/>
      <point x="178" y="124" type="line" smooth="yes"/>
      <point x="178" y="77.171"/>
      <point x="167.252" y="58"/>
    </contour>
  </outline>
</glyph>
<glyph name="zero.numr" format="2">
  <advance width="283"/>
  <outline>
    <contour>
      <point x="34" y="403" type="line" smooth="yes"/>
      <point x="34" y="316.185"/>
      <point x="69.545" y="273"/>
      <point x="141" y="273" type="curve" smooth="yes"/>
      <point x="214.887" y="273"/>
      <point x="249" y="314.062"/>
      <point x="249" y="403" type="curve" smooth="yes"/>
      <point x="249" y="589" type="line" smooth="yes"/>
      <point x="249" y="675.123"/>
      <point x="213.667" y="717"/>
      <point x="141" y="717" type="curve" smooth="yes"/>
      <point x="68.776" y="717"/>
      <point x="34" y="675.399"/>
      <point x="34" y="589" type="curve" smooth="yes"/>
    </contour>
    <contour>
      <point x="141" y="337" type="curve" smooth="yes"/>
      <point x="114.212" y="337"/>
      <point x="104" y="355.216"/>
      <point x="104" y="403" type="curve" smooth="yes"/>
      <point x="104" y="589" type="line" smooth="yes"/>
      <point x="104" y="634.73"/>
      <point x="114.563" y="653"/>
      <point x="141" y="653" type="curve" smooth="yes"/>
      <point x="168.49" y="653"/>
      <point x="178" y="636.55"/>
      <point x="178" y="589" type="curve" smooth="yes"/>
      <point x="178" y="403" type="line" smooth="yes"/>
      <point x="178" y="356.171"/>
      <point x="167.252" y="337"/>
    </contour>
  </outline>
</glyph>
<glyph name="zero.sups" format="2">
  <advance width="283"/>
  <outline>
    <contour>
      <point x="34" y="557" type="line" smooth="yes"/>
      <point x="34" y="470.185"/>
      <point x="69.545" y="427"/>
      <point x="141" y="427" type="curve" smooth="yes"/>
      <point x="214.887" y="427"/>
      <point x="249" y="468.062"/>
      <point x="249" y="557" type="curve" smooth="yes"/>
      <point x="249" y="743" type="line" smooth="yes"/>
      <point x="249" y="829.123"/>
      <point x="213.667" y="871"/>
      <point x="141" y="871" type="curve" smooth="yes"/>
      <point x="68.776" y="871"/>
      <point x="34" y="829.399"/>
      <point x="34" y="743" type="curve" smooth="yes"/>
    </contour>
    <contour>
      <point x="141" y="491" type="curve" smooth="yes"/>
      <point x="114.212" y="491"/>
      <point x="104" y="509.216"/>
      <point x="104" y="557" type="curve" smooth="yes"/>
      <point x="104" y="743" type="line" smooth="yes"/>
      <point x="104" y="788.73"/>
      <point x="114.563" y="807"/>
      <point x="141" y="807" type="curve" smooth="yes"/>
      <point x="168.49" y="807"/>
      <point x="178" y="790.55"/>
      <point x="178" y="743" type="curve" smooth="yes"/>
      <point x="178" y="557" type="line" smooth="yes"/>
      <point x="178" y="510.171"/>
      <point x="167.252" y="491"/>
    </contour>
  </outline>
</glyph>
